<svg xmlns="http://www.w3.org/2000/svg" viewBox="0 0 92.19 77"><defs><style>.cls-1{fill:#c3c6ce;}.cls-2{fill:#fff;}.cls-3{fill:#6b6d75;}</style></defs><title>zoo logo</title><g id="_2" data-name="2"><path class="cls-1" d="M80,37a21.14,21.14,0,0,0-2.1-9.15A12.56,12.56,0,1,0,61,15.73a21.3,21.3,0,0,0-2.35-.14H32.21A12.56,12.56,0,1,0,13.07,26.72,21.18,21.18,0,0,0,10.43,37v35.4H80ZM27.28,39.69a3.56,3.56,0,1,1,3.56-3.56A3.56,3.56,0,0,1,27.28,39.69ZM47.64,56.8A6.3,6.3,0,1,1,35,56.8V45a6.3,6.3,0,1,1,12.59,0Zm7-17.11a3.56,3.56,0,1,1,3.56-3.56A3.56,3.56,0,0,1,54.64,39.69Z"/><circle class="cls-2" cx="27.28" cy="36.13" r="3.56"/><circle class="cls-2" cx="54.64" cy="36.13" r="3.56"/><path class="cls-3" d="M41.35,38.68A6.31,6.31,0,0,0,35,45V56.8a6.3,6.3,0,1,0,12.59,0V45A6.31,6.31,0,0,0,41.35,38.68Z"/></g></svg>