<svg xmlns="http://www.w3.org/2000/svg" xmlns:xlink="http://www.w3.org/1999/xlink" width="151" height="319" viewBox="0 0 151 319">
  <defs>
    <clipPath id="clip-path">
      <rect id="Rectangle_1404" data-name="Rectangle 1404" width="114" height="304" transform="translate(1156 -802)" fill="#fff" stroke="#707070" stroke-width="1"/>
    </clipPath>
    <clipPath id="clip-path-2">
      <path id="Path_25" data-name="Path 25" d="M66.364,318.521a62.132,62.132,0,0,0,7.83,13.037,24.92,24.92,0,0,0,13.258,8.187,39.394,39.394,0,0,1,7.73,2.572,63.41,63.41,0,0,1,6.446,4.184,18.5,18.5,0,0,0,12.413,3.491,21.636,21.636,0,0,0,18.549-16.339c2.48-9.923-1.192-20.4-7.86-27.847a47.973,47.973,0,0,0-11.414-9.181c-4.365-2.579-26.223-8.452-25.205-17.354.6-5.284-.834-10.52-5.521-13.368-4.866-2.958-14.65-2.86-17.541,3a26.429,26.429,0,0,0-2.147,9.179,133.816,133.816,0,0,0,.273,20c.431,6.033.874,12.286,2.416,18.158A12.526,12.526,0,0,0,66.364,318.521Z" transform="translate(-62.632 -263.991)" fill="none"/>
    </clipPath>
    <clipPath id="clip-Artboard_3">
      <rect width="151" height="319"/>
    </clipPath>
  </defs>
  <g id="Artboard_3" data-name="Artboard – 3" clip-path="url(#clip-Artboard_3)">
    <rect width="151" height="319" fill="#fff"/>
    <g id="Group_229" data-name="Group 229" transform="translate(-257.488 -923.642) rotate(66)">
      <path id="Path_149" data-name="Path 149" d="M24.8,5.766A51.387,51.387,0,0,1,38.31,19.759,30.741,30.741,0,0,1,42.473,43.17c-1.351,6.211-1.693,15.574,5.821,21.951,12.14,10.3,9.347,26.125,9.347,26.125s-.911,5.668,2.291,10.216a18.536,18.536,0,0,1,3.583,10.891c-.014,1.2-1.024,6.537-1.265,7.874,0,0-9.086-4.846-10.881-12.613S46.873,96.65,42.1,94.322s-12.428-16.71-14.28-25.758S8.785,53.381,3.85,46.277-2.99,25.084,8.792,2.629L12.824.522S11.252-2.445,24.8,5.766Z" transform="matrix(0.545, 0.839, -0.839, 0.545, 829.895, -99.171)" fill="#447762"/>
      <path id="Path_157" data-name="Path 157" d="M92.288,0S90.342,13.036,55.744,14.783-3.309,55.052,1.9,57.2s6.325,6,19.456-7.353S49.7,20.893,65.493,18.9A64.44,64.44,0,0,0,92.108,9.279S93.19,23.731,87.2,27.026s-7.523,3.58-14.811,3.685-17.4-2.694-31.517,8.969S14.317,72.668,18.052,72.286s4.666,4.122,18.161-10.542,20.762-22.56,37.231-24.37S85.377,33.6,85.377,33.6s4.067,8.909-22.11,22.187S31.536,76.019,28.551,81.561s-16.662,20.865-11.815,24.329S34.823,90.373,34.823,90.373s10.252-13.438,19.306-17.3,28.723-22.48,28.723-22.48S72.9,83.928,65.012,88.822s-32.3,14.414-36.268,18.269-37.5,38.45-26.562,51.385c0,0,7.416,2.053,12.585-11.378s15.292-29.028,19.755-32.039S62.829,96.709,63.557,94.08s-6.475,28.637-20.408,39.642-37.97,45.4-32.972,58.81c0,0,4.976,5.623,9.728-3.677s10.52-27.518,14.672-32.03,15.5-21.895,16.042-23.867-1.359,18.023-5.875,23.85-4.762,27.7-.171,26.844c0,0,6.614-.293,8.411-14.656s3.3-48.624,8.593-59.9,9.557-21.415,9.557-21.415,5.725,10.785,3.489,21.488-2.472,14.177,1.755,14.639c0,0,5.993-3.295,5.351-14.088s-6.935-27.4-6.935-27.4l1.638-5.916s7.513,14.817,7.535,22.608c0,0,3.81,4.593,3.97-3.855s-7.845-24.109-7.845-24.109l4.858-14.931s8.187,15,7.3,26.08-1.541,18.68,3.232,17.171,4.687-32.67-6.507-49.922l4.109-20.093s.61,21.4,8.722,31.428,2.387,43.828,2.387,43.828-.6,4.788,4.72,1.306,10.337-26.861-3.318-48.331-6.7-30.868-6.7-30.868,18.921,20.805,18.343,33.383.868,25.716,4.11,24.491,3.243-1.226,3.478-4.7,1.1-22.34-4.859-29.651-17.027-22.4-17.284-26.721,18.1,10.671,22.838,19.767,8.679,15.847,11.119,12.277,4.57-8.642-2.119-13.324S95.3,10.869,94.912,4.393L95.244.239Z" transform="matrix(0.829, -0.559, 0.559, 0.829, 772.897, -44.411)" fill="#024f39"/>
    </g>
    <g id="Mask_Group_10" data-name="Mask Group 10" transform="translate(-1118 817)" clip-path="url(#clip-path)">
      <rect id="Rectangle_1313" data-name="Rectangle 1313" width="106" height="212" rx="28" transform="translate(1188.017 -772.374)" fill="#9ece0c"/>
      <text id="購_票_去" data-name="購
票
去" transform="translate(1214.017 -673.374)" fill="#fff" font-size="22" font-family="YuGothicUI-Regular, Yu Gothic UI" letter-spacing="-0.001em"><tspan x="0" y="0">購</tspan><tspan y="0" font-family="SegoeUI, Segoe UI"></tspan><tspan x="0" y="30">票</tspan><tspan y="30" font-family="SegoeUI, Segoe UI"></tspan><tspan x="0" y="60">去</tspan></text>
      <path id="Icon_awesome-ticket-alt" data-name="Icon awesome-ticket-alt" d="M8.822,11.117H30.878V24.35H8.822Zm27.57,6.617A3.308,3.308,0,0,0,39.7,21.042v6.617a3.308,3.308,0,0,1-3.308,3.308H3.308A3.308,3.308,0,0,1,0,27.659V21.042a3.308,3.308,0,0,0,3.308-3.308A3.308,3.308,0,0,0,0,14.425V7.808A3.308,3.308,0,0,1,3.308,4.5H36.392A3.308,3.308,0,0,1,39.7,7.808v6.617A3.308,3.308,0,0,0,36.392,17.733Zm-3.308-7.168A1.654,1.654,0,0,0,31.43,8.911H8.271a1.654,1.654,0,0,0-1.654,1.654V24.9a1.654,1.654,0,0,0,1.654,1.654H31.43A1.654,1.654,0,0,0,33.084,24.9Z" transform="matrix(0.921, 0.391, -0.391, 0.921, 1213.673, -751.666)" fill="#fff"/>
      <g id="Group_214" data-name="Group 214" transform="translate(1163.997 -633.874)">
        <g id="Group_86" data-name="Group 86" transform="translate(4.744 48.215)">
          <path id="Path_13" data-name="Path 13" d="M166.92,382.891a8.158,8.158,0,0,0,4.046.654c2.4-.074,4.785-.666,5.02-1.061,2.862-4.588,3.109-10.484,1.517-15.652-1.48-4.823-4.625-10.213-8.547-13.444-3.009,3.663-.814,7.179,1.209,10.373,2.689,4.243,5.279,11.051,3.256,14.357a16.056,16.056,0,0,0-4.934,2.1C167.191,381.128,166.71,382.077,166.92,382.891Z" transform="translate(-166.872 -353.388)" fill="#8c4808"/>
          <path id="Path_14" data-name="Path 14" d="M180.818,405.8a8.158,8.158,0,0,0,4.046.654c.185-1.16-1.024-2.479-2.479-3.33C181.089,404.041,180.608,404.991,180.818,405.8Z" transform="translate(-180.77 -376.302)"/>
        </g>
        <path id="Path_15" data-name="Path 15" d="M189.554,270.554a3.152,3.152,0,0,0-4.037.622c-1.3,1.6-.686,3.962-.007,5.911l1.452,4.174c.276.791.654,1.686,1.456,1.928.995.3,1.939-.6,2.457-1.5C192.315,279.182,190.8,271.376,189.554,270.554Z" transform="translate(-184.755 -266.798)"/>
        <path id="Path_16" data-name="Path 16" d="M146.244,287.3c-.763,1.336-2.888-5.489-2.821-6.256.135-1.533,1.236-6.784,2.6-7.77C150.706,269.9,147.4,285.265,146.244,287.3Z" transform="translate(-119.461 -268.044)"/>
        <g id="Group_89" data-name="Group 89" transform="translate(1.836 0)">
          <g id="Group_88" data-name="Group 88" clip-path="url(#clip-path-2)">
            <path id="Path_17" data-name="Path 17" d="M66.364,318.521a62.132,62.132,0,0,0,7.83,13.037,24.92,24.92,0,0,0,13.258,8.187,39.394,39.394,0,0,1,7.73,2.572,63.41,63.41,0,0,1,6.446,4.184,18.5,18.5,0,0,0,12.413,3.491,21.636,21.636,0,0,0,18.549-16.339c2.48-9.923-1.192-20.4-7.86-27.847a47.973,47.973,0,0,0-11.414-9.181c-4.365-2.579-26.223-8.452-25.205-17.354.6-5.284-.834-10.52-5.521-13.368-4.866-2.958-14.65-2.86-17.541,3a26.429,26.429,0,0,0-2.147,9.179,133.816,133.816,0,0,0,.273,20c.431,6.033.874,12.286,2.416,18.158A12.526,12.526,0,0,0,66.364,318.521Z" transform="translate(-62.632 -263.991)" fill="#d67d24"/>
            <g id="Group_87" data-name="Group 87" transform="translate(32.182 23.651)">
              <path id="Path_18" data-name="Path 18" d="M127.315,322.925c-1.284-4.953-2.554-10.83-6.493-14.623.4.388,3.193-.856,4.105-.323,1.115.653,1.52,3.019,1.838,4.175C127.724,315.648,128.672,320.015,127.315,322.925Z" transform="translate(-120.822 -307.844)" fill="#783e36"/>
              <path id="Path_19" data-name="Path 19" d="M114.728,320.965c.286,2.531.837,4.812-.069,7.629-1.412-5.029-3.636-9.653-5.419-14.512C113.41,313.565,114.33,317.448,114.728,320.965Z" transform="translate(-101.741 -310.696)" fill="#783e36"/>
              <path id="Path_20" data-name="Path 20" d="M103.479,333.037c.408-5.369-1.628-11.087-2.539-15.245C108.4,318.295,105.511,328.834,103.479,333.037Z" transform="translate(-87.88 -312.427)" fill="#783e36"/>
              <path id="Path_21" data-name="Path 21" d="M88.3,338.218c1.311-.622,2.188-4.826,2.458-6.1a26.788,26.788,0,0,0,.236-6.92C100.441,326.173,92.794,336.084,88.3,338.218Z" transform="translate(-70.788 -315.838)" fill="#783e36"/>
              <path id="Path_22" data-name="Path 22" d="M84.225,343.4a29.444,29.444,0,0,1-6.5,3.6,47.148,47.148,0,0,0,6.053-9.47c.976-2.024,3.594-1.924,3.953.456C88.028,339.977,85.591,342.307,84.225,343.4Z" transform="translate(-57.34 -320.862)" fill="#783e36"/>
              <path id="Path_23" data-name="Path 23" d="M69.357,355.222c1.656-1.594,11.055-12.867,12.136-7.6.471,2.295-1.644,3.838-3.336,4.778a23.836,23.836,0,0,1-4.477,1.9C72.791,354.573,69.941,354.659,69.357,355.222Z" transform="translate(-46.633 -325.528)" fill="#783e36"/>
            </g>
            <path id="Path_24" data-name="Path 24" d="M137.272,303.417c1.379,6.524,4.065,12.654,6.821,18.674,3,6.537,8.614,19.463,14.08,23.6l2.593.518c1.144.222,9.319-.674,10.335-1.278,2.067-1.209-7.549-9.367-8.028-11.821-2.827-14.456-3.961-38.91-.186-42.915,2-2.12,4.461-8.74,3.562-11.565a16.44,16.44,0,0,0-3.306-5.846,10.4,10.4,0,0,0-5.77-.962c-1.437.185-2.687.913-4.182.986-2.359.111-4.754-1.184-7.09-.358-2.3.826-3.516,3.466-4.181,5.945C141.582,279.636,135.882,296.892,137.272,303.417Z" transform="translate(-140.796 -267.561)" fill="#fbd8bc"/>
          </g>
        </g>
        <path id="Path_26" data-name="Path 26" d="M178.574,274.875a4.279,4.279,0,0,0-3.407-.91c-.57.1-1.12.313-1.7.364a7.353,7.353,0,0,0-1.387.105,1.76,1.76,0,0,0-1.228,1.608,1.882,1.882,0,0,0,1.1,1.719c.547.243,1.232.246,1.635.69.846.935-.472,2.606.255,3.637a1.479,1.479,0,0,0,1.45.5,4.357,4.357,0,0,0,1.473-.647C179.45,280.344,181.669,277.439,178.574,274.875Z" transform="translate(-165.877 -268.559)" fill="#783e36"/>
        <path id="Path_27" data-name="Path 27" d="M156.228,277.627a2.37,2.37,0,0,0-.238-2.2,4.242,4.242,0,0,0-1.744-1.457,2.721,2.721,0,0,0-2.535-.174c-1.042.616-1.085,2.1-.835,3.289a13.187,13.187,0,0,0,1.181,3.321c.385.746,1.021,1.55,1.856,1.462a1.577,1.577,0,0,0,1.217-1.685,4.6,4.6,0,0,0-.834-2.107S155.912,278.326,156.228,277.627Z" transform="translate(-131.352 -268.396)" fill="#783e36"/>
        <g id="Group_90" data-name="Group 90" transform="translate(25.105 59.732)">
          <path id="Path_28" data-name="Path 28" d="M57.845,414.165c5.526,2.207,20.3,2.664,32.365-1.973a31.028,31.028,0,0,0,12.063-7.845,8.7,8.7,0,0,0,.642-.728,18.575,18.575,0,0,0,1.2-1.6,10.422,10.422,0,0,0,.765-1.209,8.278,8.278,0,0,0,.419-.715c.111-.222.222-.432.321-.654a11.676,11.676,0,0,0,.518-1.147,22.814,22.814,0,0,0,1.431-5.008c.123-.74.21-1.468.259-2.208a23.5,23.5,0,0,0,.049-2.8c-.025-.592-.061-1.184-.136-1.776a21.631,21.631,0,0,0-.37-2.356,25.02,25.02,0,0,0-1.356-4.514c-1.135-2.775-2.652-6.932-5.563-3.725-1.863,2.048-1.788,5.957-1.184,8.449.987,4.07,3.787,8.2,2.492,12.186-2.7,8.3-9.534,12.383-17.391,14.53C75.36,413.512,64.975,413.413,57.845,414.165Z" transform="translate(-57.845 -374.743)" fill="#d67d24"/>
          <path id="Path_29" data-name="Path 29" d="M58.455,409.651a15.912,15.912,0,0,0,4.712,2,19.6,19.6,0,0,0,.567-2.528A47.632,47.632,0,0,1,58.455,409.651Z" transform="translate(-14.015 -390.579)" fill="#783e36"/>
          <path id="Path_30" data-name="Path 30" d="M61.108,416.781a11.869,11.869,0,0,0,1.986,2.023,11.678,11.678,0,0,0,.518-1.147C62.773,417.361,61.947,417.077,61.108,416.781Z" transform="translate(-15.323 -394.108)" fill="#783e36"/>
          <path id="Path_31" data-name="Path 31" d="M63.44,420.875a10.361,10.361,0,0,0,.975,2.392,10.427,10.427,0,0,0,.765-1.209Z" transform="translate(-18.149 -395.994)" fill="#783e36"/>
          <path id="Path_32" data-name="Path 32" d="M67.076,425.472c.37.765.765,1.517,1.2,2.245a8.7,8.7,0,0,0,.642-.728A23.356,23.356,0,0,1,67.076,425.472Z" transform="translate(-23.845 -398.112)" fill="#783e36"/>
          <path id="Path_33" data-name="Path 33" d="M57.845,402.167a17.014,17.014,0,0,0,3.787.468,23.5,23.5,0,0,0,.049-2.8C60.4,400.612,59.115,401.389,57.845,402.167Z" transform="translate(-11.654 -386.302)" fill="#783e36"/>
          <path id="Path_34" data-name="Path 34" d="M58.135,395.837c.444-.493,2.64-.826,3.33-1.135.135-.062.271-.124.407-.173a21.627,21.627,0,0,0-.37-2.356A26.474,26.474,0,0,0,58.135,395.837Z" transform="translate(-11.98 -382.773)" fill="#783e36"/>
          <path id="Path_35" data-name="Path 35" d="M90.632,445.194c5.526,2.207,20.3,2.664,32.365-1.973a58.182,58.182,0,0,0-5.846-1.122C108.147,444.54,97.761,444.441,90.632,445.194Z" transform="translate(-90.632 -405.771)"/>
        </g>
        <path id="Path_36" data-name="Path 36" d="M163.4,292.321q-2.113.131-4.232.142a2.129,2.129,0,0,0,2.049,2.2C163.4,294.663,163.4,292.321,163.4,292.321Z" transform="translate(-142.887 -277.042)"/>
        <path id="Path_37" data-name="Path 37" d="M155.987,278.45c0,.719.383,1.3.855,1.3s.856-.583.856-1.3-.383-1.3-.856-1.3S155.987,277.731,155.987,278.45Z" transform="translate(-135.477 -270.052)"/>
        <path id="Path_38" data-name="Path 38" d="M174.466,278.45c0,.719.383,1.3.855,1.3s.856-.583.856-1.3-.383-1.3-.856-1.3S174.466,277.731,174.466,278.45Z" transform="translate(-163.922 -270.052)"/>
        <path id="Path_39" data-name="Path 39" d="M164.607,297.314s-1.711,1.154-3.895-.65c0,0-.872,2.379-4.726.409" transform="translate(-142.385 -279.043)" fill="none" stroke="#000" stroke-miterlimit="10" stroke-width="1.715"/>
        <g id="Group_91" data-name="Group 91" transform="translate(16.801 56.782)">
          <path id="Path_40" data-name="Path 40" d="M101.11,385.274c.078,4.64-.7,10.039-4.7,12.4-2.39,1.414-5.34,1.34-8.046,1.965s-5.6,2.579-5.491,5.354l40.2-5.869a6.291,6.291,0,0,0,3.664-1.37c1.783-1.784.831-4.8-.3-7.049a109.459,109.459,0,0,0-7.071-12.068c-1.965-2.909-4.166-5.81-7.236-7.511C101.353,365.16,100.993,378.219,101.11,385.274Z" transform="translate(-82.873 -369.428)" fill="#d67d24"/>
          <path id="Path_41" data-name="Path 41" d="M121.473,369.273a11.762,11.762,0,0,0-2.815,4.767" transform="translate(-95.919 -369.273)" fill="none" stroke="#f0e9c2" stroke-miterlimit="10" stroke-width="2.68" opacity="0.4"/>
          <path id="Path_42" data-name="Path 42" d="M124.4,383.051l-1.236,3.905" transform="translate(-101.284 -375.62)" fill="none" stroke="#f0e9c2" stroke-miterlimit="10" stroke-width="2.68" opacity="0.4"/>
          <path id="Path_43" data-name="Path 43" d="M111.455,376.185l-1.231,3.7" transform="translate(-81.353 -372.457)" fill="none" stroke="#f0e9c2" stroke-miterlimit="10" stroke-width="2.68" opacity="0.4"/>
          <path id="Path_44" data-name="Path 44" d="M105.527,388l-1.027,3.083" transform="translate(-72.338 -377.902)" fill="none" stroke="#f0e9c2" stroke-miterlimit="10" stroke-width="2.68" opacity="0.4"/>
          <path id="Path_45" data-name="Path 45" d="M120.187,391.053a4.85,4.85,0,0,1-.822,2.672" transform="translate(-95.014 -379.306)" fill="none" stroke="#f0e9c2" stroke-miterlimit="10" stroke-width="2.68" opacity="0.4"/>
          <path id="Path_46" data-name="Path 46" d="M129.334,396.389q-.412,2.158-.822,4.317" transform="translate(-109.095 -381.764)" fill="none" stroke="#f0e9c2" stroke-miterlimit="10" stroke-width="2.68" opacity="0.4"/>
        </g>
        <g id="Group_93" data-name="Group 93" transform="translate(3.355 40.344)">
          <g id="Group_92" data-name="Group 92" transform="translate(0)">
            <path id="Path_47" data-name="Path 47" d="M136.085,383.3a46.9,46.9,0,0,0,6.352-.086,12.26,12.26,0,0,0,10.077-6.7c4.07-7.709,7.228-15.874,10.842-23.8a20.113,20.113,0,0,0,2.245-7.29c.309-7.326-7.7-9.177-10.287-2.492-3.342,8.634-5.76,17.749-8.634,26.543-1.221,3.762-2.8,7.943-6.4,9.6a19.11,19.11,0,0,0-3.084,1.345,1.908,1.908,0,0,0-.246.2h-.012A2.352,2.352,0,0,0,136.085,383.3Z" transform="translate(-135.92 -338.795)" fill="#d67d24"/>
            <path id="Path_48" data-name="Path 48" d="M179.049,419.013a46.9,46.9,0,0,0,6.352-.086c-.654-1.7-3.343-2.466-5.489-2.6H179.9A2.352,2.352,0,0,0,179.049,419.013Z" transform="translate(-178.884 -374.51)"/>
          </g>
          <path id="Path_49" data-name="Path 49" d="M150.593,343.028a12.928,12.928,0,0,0-2.261,3.906" transform="translate(-127.598 -340.745)" fill="none" stroke="#f0e9c2" stroke-miterlimit="10" stroke-width="2.68" opacity="0.4"/>
          <path id="Path_50" data-name="Path 50" d="M154.881,356.359a4.4,4.4,0,0,1-.649,3.287" transform="translate(-135.152 -346.886)" fill="none" stroke="#f0e9c2" stroke-miterlimit="10" stroke-width="2.68" opacity="0.4"/>
          <path id="Path_51" data-name="Path 51" d="M147.826,353.7a7.78,7.78,0,0,1-1.057,3.9" transform="translate(-123.987 -345.661)" fill="none" stroke="#f0e9c2" stroke-miterlimit="10" stroke-width="2.68" opacity="0.4"/>
          <path id="Path_52" data-name="Path 52" d="M154.285,367.421l-.616,2.467" transform="translate(-134.168 -351.982)" fill="none" stroke="#f0e9c2" stroke-miterlimit="10" stroke-width="2.68" opacity="0.4"/>
        </g>
      </g>
    </g>
  </g>
</svg>
