<?xml version="1.0" encoding="utf-8"?>
<!-- Generator: Adobe Illustrator 21.1.0, SVG Export Plug-In . SVG Version: 6.00 Build 0)  -->
<svg version="1.1" id="圖層_1" xmlns="http://www.w3.org/2000/svg" xmlns:xlink="http://www.w3.org/1999/xlink" x="0px" y="0px"
	 viewBox="0 0 50 50" style="enable-background:new 0 0 50 50;" xml:space="preserve">
<style type="text/css">
	.st0{clip-path:url(#SVGID_2_);}
	.st1{fill:#FFFFFF;}
	.st2{fill:#534741;}
</style>
<g>
	<g>
		<defs>
			<rect id="SVGID_1_" width="50" height="50"/>
		</defs>
		<clipPath id="SVGID_2_">
			<use xlink:href="#SVGID_1_"  style="overflow:visible;"/>
		</clipPath>
		<g id="Artboard_2" class="st0">
			<g id="Group_823" transform="translate(-21.776 -99.875)">
				<path id="Rectangle_1355" class="st1" d="M34.8,103h23.9c5.2,0,9.5,4.2,9.5,9.5v23.9c0,5.2-4.2,9.5-9.5,9.5H34.8
					c-5.2,0-9.5-4.2-9.5-9.5v-23.9C25.5,107.3,29.7,103,34.8,103z"/>
				<path id="Path_929" class="st2" d="M43.5,137.3h5.2v-13h3.7l0.3-4.3h-4v-2.4c0-1,0.2-1.4,1.2-1.4h2.8v-4.6h-3.6
					c-3.9,0-5.6,1.7-5.6,5v3.4h-2.7v4.4h2.7v12.9H43.5z"/>
			</g>
		</g>
	</g>
</g>
</svg>
