<?xml version="1.0" encoding="utf-8"?>
<!-- Generator: Adobe Illustrator 21.1.0, SVG Export Plug-In . SVG Version: 6.00 Build 0)  -->
<svg version="1.1" id="圖層_1" xmlns="http://www.w3.org/2000/svg" xmlns:xlink="http://www.w3.org/1999/xlink" x="0px" y="0px"
	 viewBox="0 0 50 50" style="enable-background:new 0 0 50 50;" xml:space="preserve">
<style type="text/css">
	.st0{fill:none;}
	.st1{fill:#FFFFFF;}
	.st2{fill:#534741;}
</style>
<rect class="st0" width="50" height="50"/>
<g id="Artboard_1">
	<g id="Group_822" transform="translate(375.647 -857.861)">
		<g id="Group_6" transform="translate(-369.318 860.338)">
			<circle id="Ellipse_13" class="st1" cx="20.2" cy="20.2" r="20.2"/>
		</g>
		<g id="Group_84" transform="translate(-361.429 866.514)">
			<path id="Path_1" class="st2" d="M20.1,7.5c0,4.1-3.4,7.5-7.5,7.5c-4.1,0-7.5-3.4-7.5-7.5C5.1,3.4,8.4,0,12.6,0c0,0,0,0,0,0
				C16.7,0,20.1,3.4,20.1,7.5z"/>
			<path id="Path_2" class="st2" d="M-0.4,29.6c0.2-6.9,5.8-12.5,12.7-12.6c7,0.1,12.7,5.8,12.6,12.8c0,0,0,0,0,0
				c0,0-6,4.2-12.8,4.3S-0.4,29.6-0.4,29.6z"/>
		</g>
	</g>
</g>
</svg>
