<?xml version="1.0" encoding="utf-8"?>
<!-- Generator: Adobe Illustrator 21.1.0, SVG Export Plug-In . SVG Version: 6.00 Build 0)  -->
<svg version="1.1" id="圖層_1" xmlns="http://www.w3.org/2000/svg" xmlns:xlink="http://www.w3.org/1999/xlink" x="0px" y="0px"
	 viewBox="0 0 384 319" style="enable-background:new 0 0 384 319;" xml:space="preserve">
<style type="text/css">
	.st0{clip-path:url(#SVGID_2_);}
	.st1{fill:#D5E5E5;}
	.st2{fill:#6DADB7;}
	.st3{fill:#456A7A;}
	.st4{fill:#FFFFFF;}
	.st5{font-family:'SegoeUI';}
	.st6{font-size:35px;}
	.st7{font-size:34px;}
	.st8{fill:#79A4BF;}
	.st9{fill:#FFFFFB;}
	.st10{fill:#5A859B;}
	.st11{fill:#FC8700;}
	.st12{fill:#24446A;}
	.st13{fill:#8393A3;}
	.st14{fill:#FFFFFD;}
	.st15{fill:#0B1413;}
	.st16{fill:#2F5275;}
	.st17{fill:#E6E6E6;}
	.st18{fill:#0E1211;}
	.st19{fill:#473E3F;}
	.st20{fill:none;stroke:#473E3F;stroke-miterlimit:10;}
	.st21{fill:#ACAEAD;}
</style>
<g>
	<defs>
		<rect id="SVGID_1_" width="384" height="319"/>
	</defs>
	<clipPath id="SVGID_2_">
		<use xlink:href="#SVGID_1_"  style="overflow:visible;"/>
	</clipPath>
	<g id="Artboard_4" class="st0">
		<g id="Group_836" transform="translate(-27.5 -31.139)">
			<path id="Path_757" class="st1" d="M216.4,208.7l14.5-64l20.4,7.7l17.9-13.6l30.7,19.4l10.2,50.4L216.4,208.7z"/>
			<rect id="Rectangle_1288" x="284" y="168.7" class="st2" width="9.1" height="29.1"/>
			<rect id="Rectangle_1289" x="171" y="120.3" class="st3" width="32.1" height="91.8"/>
			<rect id="Rectangle_1290" x="265.8" y="120.3" class="st3" width="32.1" height="91.8"/>
			<rect id="Rectangle_1291" x="171" y="120.3" class="st2" width="32.1" height="7.2"/>
			<rect id="Rectangle_1292" x="265.8" y="120.3" class="st2" width="32.1" height="7.2"/>
			<rect id="Rectangle_1293" x="171" y="206.1" class="st2" width="32.1" height="7.2"/>
			<rect id="Rectangle_1294" x="265.8" y="206.1" class="st2" width="32.1" height="7.2"/>
			<rect id="Rectangle_1295" x="177.5" y="131.3" class="st2" width="2.7" height="69.2"/>
			<rect id="Rectangle_1296" x="185.7" y="131.3" class="st2" width="1.8" height="69.2"/>
			<rect id="Rectangle_1297" x="192.9" y="131.3" class="st2" width="2.7" height="69.2"/>
			<rect id="Rectangle_1298" x="272.2" y="131.3" class="st2" width="2.7" height="69.2"/>
			<rect id="Rectangle_1299" x="280.4" y="131.3" class="st2" width="1.8" height="69.2"/>
			<rect id="Rectangle_1300" x="287.6" y="131.3" class="st2" width="2.7" height="69.2"/>
			<path id="Path_758" class="st3" d="M203.3,120.5c0-0.1,0-0.3,0-0.4c0-17,13.8-30.8,30.8-30.8c17,0,30.8,13.8,30.8,30.8
				c0,0,0,0,0,0c0,0.1,0,0.3,0,0.4h33c0-0.1,0-0.3,0-0.4c0-35.2-28.6-63.8-63.8-63.8s-63.8,28.6-63.8,63.8c0,0.1,0,0.3,0,0.4H203.3z
				"/>
			<rect id="Rectangle_1301" x="177.5" y="104" class="st2" width="2.7" height="10"/>
			<rect id="Rectangle_1302" x="185.7" y="104" class="st2" width="1.8" height="10"/>
			<rect id="Rectangle_1303" x="192.9" y="104" class="st2" width="2.7" height="10"/>
			<rect id="Rectangle_1304" x="272.2" y="104" class="st2" width="2.7" height="10"/>
			<rect id="Rectangle_1305" x="280.4" y="104" class="st2" width="1.8" height="10"/>
			<rect id="Rectangle_1306" x="287.6" y="104" class="st2" width="2.7" height="10"/>
			<rect id="Rectangle_1307" x="209.3" y="64.9" class="st2" width="49.2" height="1.8"/>
			<rect id="Rectangle_1308" x="209.3" y="72.2" class="st2" width="49.2" height="2.7"/>
			<rect id="Rectangle_1309" x="209.3" y="80.3" class="st2" width="49.2" height="2.7"/>
			<text transform="matrix(0.9075 -0.4201 0.4201 0.9075 202.27 91.8321)" class="st4 st5 st6">Z</text>
			<text transform="matrix(1 0 0 1 223.026 81.139)" class="st4 st5 st6">o</text>
			<text transform="matrix(0.897 0.442 -0.442 0.897 246.417 82.9439)" class="st4 st5 st7">o</text>
			<path id="Path_759" class="st2" d="M323.2,201.4"/>
			<path id="Path_760" class="st8" d="M102.5,209.6l11.9-80.9l16.9,9.8l14.7-17.2l25.3,24.5l8.4,63.7L102.5,209.6z"/>
			<path id="Path_761" class="st3" d="M348.8,250.6h-58.5v-20c0-6-4.9-10.9-10.9-10.9H119.2c-6,0-10.9,4.9-10.9,10.9v9.1H70.9
				c-6,0-10.9,4.9-10.9,10.9v40.1c0,6,4.9,10.9,10.9,10.9l0,0h96.5v3c0,6.4,5.2,11.6,11.6,11.6h169.8c6.4,0,11.6-5.2,11.6-11.6
				v-42.5C360.4,255.8,355.2,250.6,348.8,250.6L348.8,250.6z"/>
			<path id="Path_762" class="st2" d="M348.8,239.7h-58.5v-20c0-6-4.9-10.9-10.9-10.9H119.2c-6,0-10.9,4.9-10.9,10.9v9.1H70.9
				c-6,0-10.9,4.9-10.9,10.9v40.1c0,6,4.9,10.9,10.9,10.9l0,0h96.5v3c0,6.4,5.2,11.6,11.6,11.6h169.8c6.4,0,11.6-5.2,11.6-11.6
				v-42.5C360.4,244.9,355.2,239.7,348.8,239.7z"/>
			<path id="Path_763" class="st9" d="M237.8,247l17.6-102.1l24.8,12.3l21.7-21.7l37.2,31l12.4,80.4L237.8,247z"/>
			<path id="Path_764" class="st10" d="M286.5,267.9l10.5-70.9l14.8,8.6l12.9-15l22.2,21.5l7.4,55.9L286.5,267.9z"/>
			<path id="Path_765" class="st4" d="M77,237L87.5,166l14.8,8.6l12.9-15l22.2,21.5l7.4,55.9L77,237z"/>
			<g id="Group_208" transform="translate(284.689 217.615)">
				<path id="Path_766" class="st11" d="M41.6,68.7c0,1.5-3.1,2.6-6.9,2.6s-6.9-1.2-6.9-2.6S31,66,34.8,66S41.6,67.2,41.6,68.7z"/>
				<path id="Path_767" class="st11" d="M27.4,68.7c0,1.5-3.1,2.6-6.9,2.6s-6.9-1.2-6.9-2.6s3.1-2.6,6.9-2.6S27.4,67.2,27.4,68.7z"
					/>
				<path id="Path_768" class="st12" d="M44.6,18.2c0,10.1-7.7,18.2-17.2,18.2s-17.2-8.2-17.2-18.2S17.9,0,27.4,0
					S44.6,8.2,44.6,18.2z"/>
				<path id="Path_769" class="st12" d="M46.6,43.7c0,13.8-8.8,25-19.7,25S7.3,57.5,7.3,43.7s8.8-25,19.7-25S46.6,29.9,46.6,43.7z"
					/>
				<path id="Path_770" class="st12" d="M50.6,38.7c3.3,9.5,4.2,17.8,2.1,18.5s-6.5-6.4-9.7-15.9s-4.2-17.8-2.1-18.5
					S47.4,29.2,50.6,38.7z"/>
				<path id="Path_771" class="st12" d="M3.2,38.7C0,48.2-1,56.5,1.1,57.2s6.5-6.4,9.7-15.9s4.2-17.8,2.1-18.5S6.5,29.2,3.2,38.7z"
					/>
				<path id="Path_772" class="st13" d="M36.9,55.3c0,5.3-4.3,9.6-9.6,9.6l0,0c-5.3,0-9.6-4.3-9.6-9.6V41c0-5.3,4.3-9.6,9.6-9.6l0,0
					c5.3,0,9.6,4.3,9.6,9.6V55.3z"/>
				<path id="Path_773" class="st14" d="M37.7,14.4c0,4.8-4.7,8.7-10.4,8.7s-10.4-3.9-10.4-8.7s4.7-8.7,10.4-8.7S37.7,9.6,37.7,14.4
					z"/>
				<path id="Path_774" class="st12" d="M31.2,9.2c0,3.7-1.8,6.7-4.1,6.7l0,0c-2.3,0-4.1-3-4.1-6.7V6.7C23,3,24.7,0,27.1,0l0,0
					c2.3,0,4.1,3,4.1,6.7V9.2z"/>
				<circle id="Ellipse_72" class="st15" cx="34" cy="12.2" r="0.8"/>
				<path id="Path_775" class="st15" d="M21.7,12.2c0,0.5-0.4,0.8-0.8,0.8c-0.5,0-0.8-0.4-0.8-0.8s0.4-0.8,0.8-0.8l0,0
					C21.3,11.4,21.7,11.7,21.7,12.2C21.7,12.2,21.7,12.2,21.7,12.2z"/>
				<path id="Path_776" class="st11" d="M28.2,11.4L27,13.6l-1.3-2.1L28.2,11.4z"/>
			</g>
			<g id="Group_209" transform="translate(246.444 230.074)">
				<path id="Path_777" class="st11" d="M35.9,59.3c0,1.3-2.7,2.3-5.9,2.3s-5.9-1-5.9-2.3S26.7,57,30,57S35.9,58,35.9,59.3z"/>
				<path id="Path_778" class="st11" d="M23.7,59.3c0,1.3-2.7,2.3-5.9,2.3s-5.9-1-5.9-2.3s2.7-2.3,5.9-2.3S23.7,58,23.7,59.3z"/>
				<path id="Path_779" class="st16" d="M38.5,15.7c0,8.7-6.6,15.7-14.9,15.7s-14.9-7-14.9-15.7S15.5,0,23.7,0S38.5,7.1,38.5,15.7z"
					/>
				<path id="Path_780" class="st16" d="M40.2,37.7c0,11.9-7.6,21.6-17,21.6s-17-9.7-17-21.6s7.6-21.6,17-21.6S40.2,25.8,40.2,37.7z
					"/>
				<path id="Path_781" class="st16" d="M43.7,33.4c2.8,8.2,3.7,15.4,1.8,16s-5.6-5.5-8.4-13.8s-3.7-15.4-1.8-16
					S40.9,25.2,43.7,33.4z"/>
				<path id="Path_782" class="st16" d="M2.8,33.4C0,41.6-0.9,48.8,1,49.4s5.6-5.5,8.4-13.8s3.7-15.4,1.8-16S5.6,25.2,2.8,33.4z"/>
				<path id="Path_783" class="st13" d="M31.9,47.7c0,4.6-3.7,8.3-8.3,8.3l0,0c-4.6,0-8.3-3.7-8.3-8.3V35.4c0-4.6,3.7-8.3,8.3-8.3
					l0,0c4.6,0,8.3,3.7,8.3,8.3V47.7z"/>
				<path id="Path_784" class="st14" d="M32.5,12.4c0,4.2-4,7.5-9,7.5s-9-3.4-9-7.5s4-7.5,9-7.5S32.5,8.3,32.5,12.4z"/>
				<path id="Path_785" class="st16" d="M26.6,7.9c0,3.2-1.2,5.8-3.2,5.8l0,0c-2,0-3.2-2.6-3.2-5.8V5.8c0-3.2,1.2-5.8,3.2-5.8l0,0
					c2,0,3.2,2.6,3.2,5.8V7.9z"/>
				<path id="Path_786" class="st15" d="M30.1,10.5c0,0.4-0.3,0.7-0.7,0.7c-0.4,0-0.7-0.3-0.7-0.7c0-0.4,0.3-0.7,0.7-0.7
					c0,0,0,0,0,0C29.7,9.8,30,10.1,30.1,10.5z"/>
				<circle id="Ellipse_73" class="st15" cx="18" cy="10.5" r="0.7"/>
				<path id="Path_787" class="st11" d="M24.4,9.8l-1.1,1.9l-1.1-1.9L24.4,9.8z"/>
			</g>
			<g id="Group_210" transform="translate(118.186 192.049)">
				<path id="Path_788" class="st17" d="M90.4,42.7c0,5.1-4.1,9.3-9.2,9.3l-57.7,0.5c-5.1,0-9.3-4.1-9.3-9.2l-0.1-9.2
					c0-5.1,4.1-9.3,9.2-9.3L81,24.4c5.1,0,9.3,4.1,9.3,9.1c0,0,0,0,0,0L90.4,42.7z"/>
				<path id="Path_789" class="st17" d="M90,16.6c0.1,9.3-7.4,16.8-16.6,16.9c-9.3,0.1-16.8-7.4-16.9-16.6C56.4,7.6,63.8,0.1,73.1,0
					C82.3-0.1,89.9,7.4,90,16.6z"/>
				
					<rect id="Rectangle_1310" x="57.7" y="16.4" transform="matrix(1 -8.080786e-03 8.080786e-03 1 -0.2385 0.598)" class="st17" width="32.3" height="26.8"/>
				<path id="Path_790" class="st18" d="M69,12.8c0,0.8-0.6,1.5-1.5,1.5c-0.8,0-1.5-0.6-1.5-1.5c0-0.8,0.6-1.5,1.5-1.5
					C68.3,11.3,69,12,69,12.8C69,12.8,69,12.8,69,12.8z"/>
				<path id="Path_791" class="st18" d="M81.5,12.7c0,0.8-0.6,1.5-1.5,1.5c-0.8,0-1.5-0.6-1.5-1.5c0-0.8,0.6-1.5,1.5-1.5
					c0,0,0,0,0,0C80.8,11.2,81.4,11.9,81.5,12.7z"/>
				<path id="Path_792" class="st17" d="M100.8,51.3c-1,3.1-5.7,4.3-10.4,2.7s-7.7-5.4-6.6-8.5s5.7-4.3,10.4-2.7
					S101.9,48.2,100.8,51.3z"/>
				<path id="Path_793" class="st17" d="M85.6,47.5c2,2.5,0.5,7.1-3.4,10.2s-8.7,3.5-10.7,1s-0.5-7.1,3.4-10.2S83.5,45,85.6,47.5z"
					/>
				<path id="Path_794" class="st19" d="M78.2,18.4c0,1.1-2.1,2-4.8,2s-4.8-0.8-4.8-1.9s2.1-2,4.8-2S78.2,17.3,78.2,18.4z"/>
				<path id="Path_795" class="st17" d="M0,41.9c0,0,8.1,0.7,8.5,4.2c0.4,3.5-4.6,4.3-4.1,10s-2-6.5,12.3-4.3s-0.1-10-0.1-10
					S10.7,33.8,0,41.9z"/>
				<line id="Line_60" class="st20" x1="84.8" y1="17.5" x2="94.8" y2="17.4"/>
				<line id="Line_61" class="st20" x1="84.9" y1="15" x2="94.7" y2="13.3"/>
				<line id="Line_62" class="st20" x1="84.4" y1="20.1" x2="94" y2="22.8"/>
				<line id="Line_63" class="st20" x1="64.3" y1="17.7" x2="54.4" y2="17.8"/>
				<line id="Line_64" class="st20" x1="64.2" y1="15.2" x2="54.4" y2="13.6"/>
				<line id="Line_65" class="st20" x1="64.8" y1="20.3" x2="55.3" y2="23.1"/>
			</g>
			<g id="Group_211" transform="translate(76.988 217.598)">
				<path id="Path_796" class="st21" d="M93.4,44.2c0,5.3-4.2,9.6-9.5,9.6l-59.6,0.5c-5.3,0-9.6-4.2-9.6-9.5c0,0,0,0,0,0l-0.1-9.5
					c0-5.3,4.2-9.6,9.5-9.6c0,0,0,0,0,0l59.6-0.5c5.3,0,9.6,4.2,9.6,9.5L93.4,44.2z"/>
				<path id="Path_797" class="st21" d="M93,17.2c0.1,9.6-7.6,17.4-17.2,17.5S58.5,27,58.4,17.5C58.3,7.9,66,0.1,75.6,0
					C85.1-0.1,93,7.6,93,17.2C93,17.2,93,17.2,93,17.2z"/>
				
					<rect id="Rectangle_1311" x="59.3" y="16.9" transform="matrix(1 -8.063334e-03 8.063334e-03 1 -0.2439 0.6167)" class="st21" width="34.2" height="27.3"/>
				<path id="Path_798" class="st18" d="M71.3,13.2c0,0.8-0.7,1.5-1.5,1.5c-0.8,0-1.5-0.7-1.5-1.5c0-0.8,0.7-1.5,1.5-1.5
					c0,0,0,0,0,0C70.6,11.7,71.3,12.4,71.3,13.2C71.3,13.2,71.3,13.2,71.3,13.2z"/>
				<path id="Path_799" class="st18" d="M84.2,13.1c0,0.8-0.7,1.5-1.5,1.5c-0.8,0-1.5-0.7-1.5-1.5c0-0.8,0.7-1.5,1.5-1.5
					c0,0,0,0,0,0C83.5,11.6,84.2,12.3,84.2,13.1z"/>
				<path id="Path_800" class="st21" d="M104.3,53c-1.1,3.2-5.9,4.4-10.8,2.8s-7.9-5.6-6.8-8.8s5.9-4.4,10.8-2.8
					S105.3,49.8,104.3,53z"/>
				<path id="Path_801" class="st21" d="M88.5,49.1c2.1,2.6,0.5,7.4-3.5,10.6s-9,3.6-11.1,1s-0.5-7.4,3.5-10.6S86.4,46.5,88.5,49.1z
					"/>
				<path id="Path_802" class="st19" d="M80.9,19c0,1.1-2.2,2-5,2.1s-5-0.9-5-2s2.2-2,5-2.1S80.9,17.9,80.9,19z"/>
				<path id="Path_803" class="st21" d="M0,43.4c0,0,8.4,0.7,8.8,4.3S4,52.1,4.5,58s-2-6.7,12.7-4.5s-0.1-10.3-0.1-10.3
					S11.1,34.9,0,43.4z"/>
				<line id="Line_66" class="st20" x1="87.7" y1="18.1" x2="98" y2="18"/>
				<line id="Line_67" class="st20" x1="87.8" y1="15.5" x2="97.9" y2="13.8"/>
				<line id="Line_68" class="st20" x1="87.3" y1="20.8" x2="97.2" y2="23.5"/>
				<line id="Line_69" class="st20" x1="66.5" y1="18.3" x2="56.2" y2="18.4"/>
				<line id="Line_70" class="st20" x1="66.4" y1="15.7" x2="56.3" y2="14.1"/>
				<line id="Line_71" class="st20" x1="67" y1="21" x2="57.2" y2="23.9"/>
			</g>
		</g>
	</g>
</g>
</svg>
