<svg xmlns="http://www.w3.org/2000/svg" xmlns:xlink="http://www.w3.org/1999/xlink" width="162" height="329" viewBox="0 0 162 329">
  <defs>
    <clipPath id="clip-path">
      <rect id="Rectangle_1424" data-name="Rectangle 1424" width="173" height="355" transform="translate(0 1835.495)" fill="#fff"/>
    </clipPath>
    <clipPath id="clip-Artboard_15">
      <rect width="162" height="329"/>
    </clipPath>
  </defs>
  <g id="Artboard_15" data-name="Artboard – 15" clip-path="url(#clip-Artboard_15)">
    <rect width="162" height="329" fill="#fff"/>
    <g id="Group_894" data-name="Group 894" transform="translate(0 -1861.496)" clip-path="url(#clip-path)">
      <g id="Group_893" data-name="Group 893" transform="translate(-71.954 1855.183)">
        <g id="Group_884" data-name="Group 884" transform="matrix(0.809, -0.588, 0.588, 0.809, 45.527, 53.989)">
          <g id="Group_882" data-name="Group 882" transform="translate(17.691 0)">
            <g id="Group_880" data-name="Group 880" transform="translate(0 21.141)">
              <path id="Path_1325" data-name="Path 1325" d="M0,7.618S16.027-7.024,26.683,4.29C26.683,4.29,15.851,16.935,0,7.618Z" transform="translate(3.891 26.941)" fill="#559972"/>
              <path id="Path_1326" data-name="Path 1326" d="M8.818,0s13.914,21.869-4.1,35.42C4.715,35.42-8.25,20.511,8.818,0Z" transform="translate(0 0)" fill="#559972"/>
            </g>
            <g id="Group_881" data-name="Group 881" transform="translate(38.342 0)">
              <path id="Path_1327" data-name="Path 1327" d="M1.1,25.077S19.192,13.084,10.8,0C10.8,0-4.092,7.438,1.1,25.077Z" transform="translate(0)" fill="#559972"/>
              <path id="Path_1328" data-name="Path 1328" d="M35.357,9.915S17.52-8.891,0,5.3C0,5.3,11.316,21.495,35.357,9.915Z" transform="translate(0.462 18.771)" fill="#559972"/>
            </g>
          </g>
          <path id="Path_1329" data-name="Path 1329" d="M29.648,6.155S16.754,20.117,0,7.93C0,7.93,12.154-8.663,29.648,6.155Z" transform="translate(37.528 33.495)" fill="#559972"/>
          <path id="Path_1330" data-name="Path 1330" d="M12.873,0s11.14,19.363-8.409,33.883C4.464,33.883-9.886,14.428,12.873,0Z" transform="translate(33.862 8.178)" fill="#559972"/>
          <g id="Group_883" data-name="Group 883" transform="translate(0 22.419)">
            <path id="Path_1331" data-name="Path 1331" d="M59.808,1.226,58.979,0C58.7.186,31.169,19.017,0,58.372l1.16.919C32.176,20.13,59.536,1.411,59.808,1.226Z" transform="translate(0 0)" fill="#559972"/>
          </g>
        </g>
        <g id="Group_890" data-name="Group 890" transform="matrix(0.899, 0.438, -0.438, 0.899, 117.011, 50.286)">
          <g id="Group_885" data-name="Group 885" transform="translate(31.559 177.119)">
            <rect id="Rectangle_1423" data-name="Rectangle 1423" width="89.87" height="2.572" transform="translate(0 89.606) rotate(-85.605)" fill="#101111"/>
          </g>
          <path id="Path_1332" data-name="Path 1332" d="M89.285,141.96c-1.233-10.423-4.449-20.523-7.189-30.617a111.1,111.1,0,0,1-2.944-12.822,52.37,52.37,0,0,1-.218-9.966c.379-8.675,1.317-17.264,2.011-25.9.9-11.2.517-22.8-2.452-33.678C75.062,16.4,67.38,5.2,54.313,1.5A42.855,42.855,0,0,0,43.214,0,50.784,50.784,0,0,0,19.488,6.275a33.6,33.6,0,0,0-14.3,14.89C.643,30.841,1.507,41.943,2.133,52.317,2.8,63.36,4.479,74.3,5.355,85.318a121.874,121.874,0,0,1-1.637,31.293c-1.579,8.9-3.166,17.848-3.6,26.892-.38,7.928.007,16.444,3.663,23.659,3.587,7.08,10.294,11.2,17.946,12.692,11.113,2.163,23.21,1.363,34.179-1.208,9.707-2.276,19.86-6.219,26.99-13.445a22.6,22.6,0,0,0,6.061-10.275A36.351,36.351,0,0,0,89.285,141.96Z" transform="translate(0 0)" fill="#043a2c"/>
          <g id="Group_886" data-name="Group 886" transform="translate(31.717 50.567)">
            <path id="Path_1333" data-name="Path 1333" d="M7.238,130.694C.532,121.41-1.528,96.564,1.115,56.845,3.075,27.392,7.023.271,7.063,0L8.972.28C8.814,1.357-6.633,108.2,8.8,129.566Z" transform="translate(0 0)" fill="#447762"/>
          </g>
          <g id="Group_887" data-name="Group 887" transform="translate(22.162 62.598)">
            <path id="Path_1334" data-name="Path 1334" d="M13.587,17.045C4.315,13.673.172,1.125,0,.593L1.836,0c.039.121,4.029,12.184,12.411,15.232Z" transform="translate(0 0)" fill="#447762"/>
          </g>
          <g id="Group_888" data-name="Group 888" transform="translate(32.497 117.092)">
            <path id="Path_1335" data-name="Path 1335" d="M.668,32.012,0,30.2c13.366-4.935,21.1-12.877,25.237-18.671A38.641,38.641,0,0,0,31.083,0l1.871.468C32.9.685,27.243,22.2.668,32.012Z" transform="translate(0 0)" fill="#447762"/>
          </g>
          <g id="Group_889" data-name="Group 889" transform="translate(22.262 113.159)">
            <path id="Path_1336" data-name="Path 1336" d="M10.432,8.779C4.37,7.913.176,1.3,0,1.023L1.636,0c.038.061,3.9,6.132,9.069,6.869Z" transform="translate(0 0)" fill="#447762"/>
          </g>
        </g>
        <g id="Group_891" data-name="Group 891" transform="translate(167.56 231.595) rotate(41)">
          <path id="Path_1337" data-name="Path 1337" d="M12.783,121.893C1.959,120.33-.718,111.351.153,102c1.258-13.49,6.6-28.118,13.721-39.677,8.345-13.543,17.1-27.179,28.826-38.082C48.517,18.838,54.5,14,59.988,8.289c2.43-2.529,6.372-3.977,9.488-5.49C71,2.057,72.992.343,74.694.047c1.978-.344,1.688,1.24,1.662,2.942-.064,4.225.06,8.452-.03,12.67-.132,6.185-2.034,12.15-3.271,18.153-2.8,13.565-7.713,27.742-12.556,40.716a98.536,98.536,0,0,1-9.873,19.912c-4.794,7.284-9.082,14.672-16.332,19.671-1.956,1.348-3.91,2.431-5.819,3.845-1.5,1.109-3.258,1.475-4.8,2.508C20.7,122.458,16.243,122.392,12.783,121.893Z" transform="translate(0 0)" fill="#447762"/>
          <path id="Path_1338" data-name="Path 1338" d="M12.737,88.108l.13.035L13,88.1c.195-.064,19.542-6.469,30.757-19.059a.456.456,0,1,0-.681-.606C33.153,79.57,16.74,85.808,13.347,87.014,18.523,78.407,23.7,69.453,28.629,60.708c1.765-.408,15.467-3.8,23.2-12.114a.456.456,0,0,0-.668-.622c-6.825,7.341-18.47,10.762-21.918,11.646,4.31-7.66,8.42-15.136,12.169-22.055,1.269-.323,8.411-2.432,16.16-10.552a.456.456,0,1,0-.66-.63c-6.437,6.744-12.546,9.265-14.881,10.039C52.988,16.16,60.692.974,60.851.662A.456.456,0,0,0,60.037.25c-.159.313-7.881,15.534-18.858,35.826-4.311-11.307.452-22.89.5-23.006a.456.456,0,0,0-.837-.364c-.053.123-5.163,12.545-.233,24.417C36.844,44.078,32.711,51.6,28.377,59.3c-6.29-13.645-2.653-29.823-2.615-29.989a.456.456,0,0,0-.889-.207c-.04.171-3.857,17.114,2.953,31.171-4.927,8.738-10.1,17.683-15.268,26.28-1.326-3.3-2.856-17.7-3.678-31.316a.456.456,0,1,0-.911.055c0,.08.488,8.033,1.273,15.967,1.126,11.387,2.083,15,2.766,16.207C7.987,94.136,3.97,100.581.075,106.538a.456.456,0,0,0,.132.632h0a.456.456,0,0,0,.63-.134C4.709,101.119,8.7,94.717,12.7,88.1Z" transform="translate(7.659 12.957)" fill="#043a2c"/>
        </g>
        <g id="Group_892" data-name="Group 892" transform="translate(128.593 189.246) rotate(50)">
          <path id="Path_1339" data-name="Path 1339" d="M97.276,132.732c-9.84,11.589-22.244,10.189-32.445,4.55C50.11,129.143,37.1,115.774,28.967,101.9,19.441,85.635,10.107,68.863,6.155,50.044,4.2,40.713,3.019,31.474.461,22.367c-1.133-4.032.11-9.256.665-13.566C1.4,6.688.885,3.563,1.8,1.471,2.87-.96,4.494.158,6.449,1.033,11.3,3.207,16.3,5.164,21.129,7.363c7.079,3.223,12.591,8.359,18.638,12.754C53.433,30.05,66.237,42.71,77.7,54.687A97.639,97.639,0,0,1,93.484,75.858c4.9,9.1,10.29,17.664,10.714,28.43.114,2.9-.078,5.674.146,8.559.175,2.261-.7,4.454-.649,6.728C103.8,123.969,100.422,129.026,97.276,132.732Z" transform="translate(0 0)" fill="#559972"/>
          <path id="Path_1340" data-name="Path 1340" d="M66.958,98.614l.137-.132.047-.167c.071-.254,6.985-25.54.694-44.607a.564.564,0,0,0-.774-.278.646.646,0,0,0-.435.754c5.564,16.864.631,38.714-.486,43.189-6.149-10.189-12.7-20.55-19.192-30.527.835-2.22,7.065-19.556,3.148-32.523a.559.559,0,0,0-.766-.294.656.656,0,0,0-.451.748c3.457,11.444-1.21,26.448-2.741,30.826C40.447,56.875,34.82,48.465,29.572,40.746c.566-1.611,3.415-10.818-.259-23.7a.556.556,0,0,0-.759-.3.66.66,0,0,0-.461.744A41.651,41.651,0,0,1,28.7,39.471C13.322,16.887,1.414.541,1.169.206A.634.634,0,0,0,.309.13a.575.575,0,0,0-.221.8c.245.336,12.181,16.72,27.587,39.341a39.722,39.722,0,0,1-26.323-12,.652.652,0,0,0-.873-.028.562.562,0,0,0-.17.8c.1.121,10.728,12.131,28.16,12.395C33.745,49.2,39.4,57.657,45.125,66.434c-20.5.409-36.574-11.783-36.737-11.909a.7.7,0,0,0-.889.118.522.522,0,0,0-.01.795c.168.13,17,12.907,38.361,12.11,6.485,9.969,13.031,20.319,19.172,30.5-4.808-.123-22.658-5.53-39.066-11.354a.742.742,0,0,0-.854.34.482.482,0,0,0,.243.728c.1.034,9.683,3.433,19.472,6.476,14.047,4.37,18.955,5.074,20.857,4.891,4.755,7.908,9.256,15.7,13.279,23.109a.6.6,0,0,0,.83.163l0,0a.6.6,0,0,0,.313-.785c-4-7.363-8.465-15.1-13.186-22.958Z" transform="translate(11.796 15.073)" fill="#9fc54d"/>
        </g>
      </g>
    </g>
  </g>
</svg>
