<svg xmlns="http://www.w3.org/2000/svg" xmlns:xlink="http://www.w3.org/1999/xlink" width="108" height="291" viewBox="0 0 108 291">
  <defs>
    <clipPath id="clip-path">
      <rect id="Rectangle_1414" data-name="Rectangle 1414" width="126" height="291" transform="translate(0 1243)" fill="#fff" stroke="#707070" stroke-width="1"/>
    </clipPath>
    <clipPath id="clip-Artboard_3">
      <rect width="108" height="291"/>
    </clipPath>
  </defs>
  <g id="Artboard_3" data-name="Artboard – 3" clip-path="url(#clip-Artboard_3)">
    <rect width="108" height="291" fill="#fff"/>
    <g id="Mask_Group_14" data-name="Mask Group 14" transform="translate(0 -1243)" clip-path="url(#clip-path)">
      <g id="Group_866" data-name="Group 866" transform="translate(-20.343 1075.893)">
        <g id="樹葉" transform="translate(-16.248 181)">
          <g id="Group_856" data-name="Group 856" transform="translate(148.396 52.399) rotate(166)">
            <g id="Group_854" data-name="Group 854" transform="translate(0 12.988)">
              <g id="Group_852" data-name="Group 852" transform="translate(36.184 0)">
                <path id="Path_1299" data-name="Path 1299" d="M20.747,4.263S6.7,13.4,0,3.446C0,3.446,9.841-4.827,20.747,4.263Z" transform="translate(0 0)" fill="#043a2c"/>
                <path id="Path_1300" data-name="Path 1300" d="M2,26.471S-5.855,8.061,9.574,0C9.574,0,17.58,12.988,2,26.471Z" transform="translate(10.653 3.504)" fill="#043a2c"/>
              </g>
              <g id="Group_853" data-name="Group 853" transform="translate(0 14.59)">
                <path id="Path_1301" data-name="Path 1301" d="M11.459,0S-3.834,6.864.914,17.887C.914,17.887,13.2,14.091,11.459,0Z" transform="translate(14.541 8.539)" fill="#043a2c"/>
                <path id="Path_1302" data-name="Path 1302" d="M0,1.427S11.227,18,26.358,9.387C26.358,9.387,19.771-4.375,0,1.427Z" transform="translate(0)" fill="#043a2c"/>
              </g>
            </g>
            <path id="Path_1303" data-name="Path 1303" d="M0,3.388S11.578-5.63,22.812,5.76C22.812,5.76,11.467,16.875,0,3.388Z" transform="translate(20.177 20.364)" fill="#043a2c"/>
            <path id="Path_1304" data-name="Path 1304" d="M1.068,24.759S-4.987,8.607,11.732,0C11.732,0,20.221,16.626,1.068,24.759Z" transform="translate(30.729 25.539)" fill="#043a2c"/>
            <g id="Group_855" data-name="Group 855" transform="translate(23.781 0)">
              <path id="Path_1305" data-name="Path 1305" d="M0,36.871.478,37.91C.71,37.8,24.055,26.915,52.747.846L51.978,0C23.428,25.94.231,36.765,0,36.871Z" transform="translate(0)" fill="#043a2c"/>
            </g>
          </g>
          <g id="Group_862" data-name="Group 862" transform="translate(66.343 241.641) rotate(-172)">
            <g id="Group_857" data-name="Group 857" transform="translate(37.38 0)">
              <rect id="Rectangle_1413" data-name="Rectangle 1413" width="1.92" height="67.106" transform="translate(8.299 0) rotate(7.104)" fill="#101111"/>
            </g>
            <path id="Path_1306" data-name="Path 1306" d="M.125,27.357c.552,7.818,2.594,15.465,4.281,23.09a82.852,82.852,0,0,1,1.743,9.667,39.078,39.078,0,0,1-.189,7.441C5.371,74.012,4.367,80.385,3.545,86.8c-1.067,8.32-1.191,16.984.64,25.205,2.115,9.5,7.45,18.129,17.066,21.346a32,32,0,0,0,8.225,1.512,37.924,37.924,0,0,0,17.917-3.842,25.1,25.1,0,0,0,11.189-10.6c3.734-7.056,3.481-15.367,3.381-23.127-.107-8.26-.974-16.477-1.238-24.728a91,91,0,0,1,2.326-23.283,158.971,158.971,0,0,0,3.635-19.93c.564-5.9.576-12.265-1.9-17.775-2.426-5.407-7.283-8.719-12.937-10.1a62.111,62.111,0,0,0-25.535-.305C19,2.529,11.285,5.112,5.712,10.25A16.883,16.883,0,0,0,.828,17.7,27.157,27.157,0,0,0,.125,27.357Z" transform="translate(0 63.899)" fill="#559972"/>
            <g id="Group_858" data-name="Group 858" transform="translate(33.154 63.72)">
              <path id="Path_1307" data-name="Path 1307" d="M5.9,0c4.674,7.161,5.333,25.766,1.96,55.3-2.5,21.9-6.4,41.988-6.443,42.189L0,97.21c.156-.8,15.449-79.939,4.691-96.424Z" transform="translate(0 0)" fill="#447762"/>
            </g>
            <g id="Group_859" data-name="Group 859" transform="translate(37.3 139.627)">
              <path id="Path_1308" data-name="Path 1308" d="M.556,0C7.353,2.843,10,12.348,10.109,12.751l-1.39.377C8.694,13.037,6.144,3.9,0,1.329Z" transform="translate(0 0)" fill="#447762"/>
            </g>
            <g id="Group_860" data-name="Group 860" transform="translate(17.041 87.91)">
              <path id="Path_1309" data-name="Path 1309" d="M25.194,0l.435,1.373A39.529,39.529,0,0,0,6.146,14.408a28.85,28.85,0,0,0-4.767,8.4L0,22.388C.048,22.228,5.027,6.38,25.194,0Z" transform="translate(0)" fill="#447762"/>
            </g>
            <g id="Group_861" data-name="Group 861" transform="translate(41.356 108.188)">
              <path id="Path_1310" data-name="Path 1310" d="M.271,0c4.49.861,7.385,5.938,7.506,6.153l-1.256.7C6.495,6.812,3.828,2.148,0,1.415Z" transform="translate(0 0)" fill="#447762"/>
            </g>
          </g>
          <g id="Group_865" data-name="Group 865" transform="matrix(-0.985, -0.174, 0.174, -0.985, 104.551, 292.505)">
            <g id="Group_863" data-name="Group 863" transform="translate(0 0)">
              <path id="Path_1311" data-name="Path 1311" d="M93.635,8.188c-4.02-9.271-12.675-9.481-20.8-6.435C61.114,6.147,49.367,14.458,40.788,23.613,30.738,34.339,20.7,45.45,13.827,58.555c-3.409,6.5-6.271,13.006-10.032,19.285-1.665,2.78-2,6.647-2.593,9.791C.911,89.172-.134,91.363.014,92.952c.173,1.847,1.515,1.2,3.026.768,3.752-1.083,7.551-2,11.29-3.1C19.813,89,24.671,85.858,29.722,83.3,41.138,77.513,52.586,69.69,62.979,62.225A91.034,91.034,0,0,0,78.337,48.591c5.331-6.042,10.879-11.658,13.577-19.335.728-2.07,1.219-4.075,2.016-6.121.625-1.6.525-3.262,1.072-4.887C96.06,15.109,94.92,11.153,93.635,8.188Z" fill="#559972"/>
              <path id="Path_1312" data-name="Path 1312" d="M67,15.9l.063.108-.006.125c-.009.189-1.027,18.993-9.531,32.047a.421.421,0,1,1-.705-.46c7.52-11.546,9.1-27.693,9.353-31.011-6.418,6.7-13.147,13.49-19.748,20.008.064,1.673.367,14.712-5.172,23.625a.422.422,0,1,1-.716-.445c4.889-7.866,5.114-19.079,5.066-22.368-5.784,5.7-11.453,11.179-16.713,16.2.02,1.21-.128,8.09-5.487,16.969a.421.421,0,1,1-.722-.435c4.452-7.376,5.217-13.434,5.341-15.7C12.615,69.248.944,79.8.7,80.018a.422.422,0,0,1-.565-.625c.241-.217,11.939-10.8,27.369-25.506-11.128-1.1-20.3,5.956-20.391,6.03a.422.422,0,0,1-.527-.658c.1-.078,9.933-7.647,21.714-6.132,5.287-5.047,10.987-10.557,16.8-16.29-13.693-2.3-27.235,4.87-27.374,4.944a.421.421,0,0,1-.4-.742c.142-.077,14.323-7.59,28.509-4.929,6.6-6.513,13.317-13.292,19.728-19.989C62.311,15.74,49.1,17.87,36.757,20.44a.422.422,0,0,1-.172-.826c.072-.015,7.281-1.514,14.546-2.738,10.426-1.758,13.883-1.783,15.122-1.466C71.222,10.206,76,5.061,80.361.142a.422.422,0,0,1,.6-.036h0A.422.422,0,0,1,80.991.7c-4.338,4.887-9.078,10-14.013,15.169Z" transform="translate(9.911 4.126)" fill="#9fc54d"/>
            </g>
            <g id="Group_864" data-name="Group 864" transform="translate(67.092 27.271) rotate(11)">
              <path id="Path_1313" data-name="Path 1313" d="M24.688.711C16.356-1.658,10.623,2.235,7.245,7.364A45.338,45.338,0,0,0,0,32.085c.121,9.515.49,19.2,4.136,28.334,1.96,4.91,2.984,10.533,5.851,15,1.292,2.013,4.81,7.91,7.725,7.218,1.988-.474,5.295-6.23,6.564-7.853,2.55-3.263,3.753-6.932,5.442-10.425,3.817-7.895,6.395-16.732,8.51-24.919a43.464,43.464,0,0,0,1.52-13.285c-.282-5.207-.161-10.321-3.158-15.059-.808-1.279-1.729-2.418-2.477-3.716-.586-1.019-1.676-1.728-2.326-2.72C30.534,2.745,27.352,1.469,24.688.711Z" transform="translate(0)" fill="#043a2c"/>
              <path id="Path_1314" data-name="Path 1314" d="M17.466,13.624l.107.02.073.06c.111.09,11.072,9.121,13.633,18.984.039.148-.1.293-.3.325a.379.379,0,0,1-.44-.208C28.273,24.081,19.318,16,17.431,14.374c-.013,6.01-.176,12.2-.422,18.21,1.076.733,9.329,6.529,11.25,13.141.043.147-.088.294-.292.329a.387.387,0,0,1-.446-.2c-1.7-5.835-8.479-11.044-10.543-12.519-.222,5.261-.507,10.368-.81,15.077A20.127,20.127,0,0,1,23.1,58.665c.045.146-.083.295-.286.332a.391.391,0,0,1-.45-.2,20.394,20.394,0,0,0-6.247-9.611c-.9,13.786-1.934,23.969-1.955,24.178a.367.367,0,0,1-.4.261c-.207-.007-.364-.134-.348-.285.021-.209,1.059-10.417,1.959-24.225A20.2,20.2,0,0,0,5.892,61.258a.384.384,0,0,1-.424.243c-.206-.016-.351-.15-.324-.3a20.866,20.866,0,0,1,10.27-12.8c.3-4.735.591-9.87.813-15.16A34.573,34.573,0,0,0,1.559,48.109a.427.427,0,0,1-.475.185c-.2-.043-.306-.194-.242-.339A35.176,35.176,0,0,1,16.255,32.574c.246-6,.408-12.189.421-18.192C14.329,15.71,7.089,22.77.688,29.625a.477.477,0,0,1-.525.08.228.228,0,0,1-.1-.377c.037-.04,3.779-4.044,7.725-7.949,5.664-5.6,7.887-7.209,8.885-7.635,0-4.66-.088-9.2-.3-13.453C16.369.14,16.532.01,16.74,0h0c.207-.009.381.1.389.254.212,4.225.3,8.736.3,13.363Z" transform="translate(3.711 0.185)" fill="#447762"/>
            </g>
          </g>
        </g>
      </g>
    </g>
  </g>
</svg>
