<svg id="圖層_1" data-name="圖層 1" xmlns="http://www.w3.org/2000/svg" xmlns:xlink="http://www.w3.org/1999/xlink" viewBox="0 0 108 291"><defs><style>.cls-1{fill:none;}.cls-2{clip-path:url(#clip-path);}.cls-3{clip-path:url(#clip-path-2);}.cls-4{fill:#043a2c;}.cls-5{fill:#101111;}.cls-6{fill:#559972;}.cls-7{fill:#447762;}.cls-8{fill:#9fc54d;}</style><clipPath id="clip-path"><rect class="cls-1" width="108" height="291"/></clipPath><clipPath id="clip-path-2"><rect class="cls-1" width="126" height="291"/></clipPath></defs><title>Artboard – 3</title><g class="cls-2"><g id="Artboard_3" data-name="Artboard 3"><g class="cls-3"><g id="Mask_Group_14" data-name="Mask Group 14"><g id="Group_866" data-name="Group 866"><g id="樹葉"><g id="Group_856" data-name="Group 856"><g id="Group_854" data-name="Group 854"><g id="Group_852" data-name="Group 852"><path id="Path_1299" data-name="Path 1299" class="cls-4" d="M52.39,63.33S63.81,51.06,72.72,59.1C72.72,59.1,65.17,69.51,52.39,63.33Z"/><path id="Path_1300" data-name="Path 1300" class="cls-4" d="M54,36.42s12.08,16-.95,27.52C53.08,63.94,42.17,53.27,54,36.42Z"/></g><g id="Group_853" data-name="Group 853"><path id="Path_1301" data-name="Path 1301" class="cls-4" d="M77.84,37.54S91,27.18,83.74,17.63C83.74,17.63,72.74,24.29,77.84,37.54Z"/><path id="Path_1302" data-name="Path 1302" class="cls-4" d="M104.79,38.15s-14.9-13.36-27.5-1.35C77.29,36.8,87,48.56,104.79,38.15Z"/></g></g><path id="Path_1303" data-name="Path 1303" class="cls-4" d="M86.48,48.13s-9.05,11.55-22.71,3.22C63.77,51.34,72.09,37.81,86.48,48.13Z"/><path id="Path_1304" data-name="Path 1304" class="cls-4" d="M68.78,25.18s9.78,14.21-4.36,26.6C64.43,51.78,52.17,37.71,68.78,25.18Z"/><g id="Group_855" data-name="Group 855"><path id="Path_1305" data-name="Path 1305" class="cls-4" d="M79.81,36.27l-.72-.89c-.2.16-20.22,16.37-41.75,48.61l1,.63C59.72,52.54,79.61,36.43,79.81,36.27Z"/></g></g><g id="Group_862" data-name="Group 862"><g id="Group_857" data-name="Group 857"><rect id="Rectangle_1413" data-name="Rectangle 1413" class="cls-5" x="-41.22" y="215.57" width="67.11" height="1.92" transform="translate(-214.72 152.71) rotate(-74.9)"/></g><path id="Path_1306" data-name="Path 1306" class="cls-6" d="M42.33,165.15c.54-7.82-.42-15.68-1-23.46a82.85,82.85,0,0,1-.38-9.82,39.08,39.08,0,0,1,1.22-7.34c1.48-6.31,3.36-12.48,5.07-18.72,2.21-8.09,3.54-16.65,2.87-25-.77-9.7-4.85-19-13.93-23.51a32,32,0,0,0-7.93-2.64A37.92,37.92,0,0,0,9.95,55.92,25.1,25.1,0,0,0-2.61,64.85c-4.68,6.47-5.59,14.73-6.57,22.43-1,8.19-1.33,16.45-2.22,24.66a91,91,0,0,1-5.54,22.73,159,159,0,0,0-6.37,19.23c-1.38,5.76-2.28,12.07-.59,17.87s6,9.65,11.41,11.8a62.11,62.11,0,0,0,25.24,3.86c7.43-.32,15.43-1.81,21.66-6.12a16.88,16.88,0,0,0,5.87-6.7A27.16,27.16,0,0,0,42.33,165.15Z"/><g id="Group_858" data-name="Group 858"><path id="Path_1307" data-name="Path 1307" class="cls-7" d="M-.05,187c-3.63-7.74-1.7-26.26,5.76-55C11.23,110.63,17.88,91.28,18,91.08l1.36.47c-.27.77-26.42,77-18.06,94.83Z"/></g><g id="Group_859" data-name="Group 859"><path id="Path_1308" data-name="Path 1308" class="cls-7" d="M11.7,112C5.36,108.24,4.06,98.46,4,98l1.43-.18c0,.09,1.27,9.5,7,12.9Z"/></g><g id="Group_860" data-name="Group 860"><path id="Path_1309" data-name="Path 1309" class="cls-7" d="M.16,162.6l-.24-1.42A39.53,39.53,0,0,0,21,151a28.85,28.85,0,0,0,5.89-7.65l1.31.61C28.16,144.09,21,159.09.16,162.6Z"/></g><g id="Group_861" data-name="Group 861"><path id="Path_1310" data-name="Path 1310" class="cls-7" d="M3.59,142.61C-.74,141.13-2.9,135.7-3,135.47l1.34-.52s2,5,5.7,6.29Z"/></g></g><g id="Group_865" data-name="Group 865"><g id="Group_863" data-name="Group 863"><path id="Path_1311" data-name="Path 1311" class="cls-6" d="M-22.85,282c2.35,9.83,10.84,11.54,19.37,10,12.31-2.29,25.33-8.43,35.37-16,11.77-8.82,23.59-18,32.64-29.73C69,240.51,73,234.6,77.77,229.07c2.12-2.45,3.13-6.2,4.26-9.19.55-1.47,2-3.44,2.1-5,.15-1.85-1.28-1.45-2.85-1.28-3.88.41-7.79.66-11.66,1.09-5.68.64-11,2.89-16.43,4.53-12.25,3.71-24.89,9.43-36.43,15A91.06,91.06,0,0,0-.75,244.91c-6.3,5-12.74,9.59-16.74,16.68-1.08,1.91-1.91,3.8-3.05,5.68-.89,1.47-1.08,3.12-1.91,4.63C-24,274.8-23.6,278.9-22.85,282Z"/><path id="Path_1312" data-name="Path 1312" class="cls-8" d="M-4.31,273.29l0-.12,0-.12c0-.18,4.32-18.53,15-29.91a.42.42,0,0,1,.63.56h0C1.83,253.78-2.53,269.41-3.36,272.64c7.49-5.48,15.3-11,22.93-16.27.23-1.66,2.2-14.56,9.21-22.37a.42.42,0,1,1,.66.53l0,0c-6.18,6.9-8.36,17.9-8.88,21.15,6.69-4.61,13.23-9,19.28-13,.19-1.2,1.53-7.95,8.36-15.76a.42.42,0,1,1,.64.55c-5.67,6.49-7.48,12.32-8,14.54,17.73-11.78,31.06-20.15,31.34-20.32a.42.42,0,0,1,.45.71c-.28.17-13.64,8.56-31.4,20.36,10.77,3,21-2.33,21.13-2.39a.42.42,0,0,1,.4.74c-.11.06-11.11,5.8-22.46,2.26-6.09,4.05-12.66,8.49-19.38,13.12,13.09,4.65,27.67-.06,27.82-.11a.42.42,0,1,1,.26.8c-.15.05-15.43,5-28.94-.11-7.63,5.27-15.43,10.78-22.91,16.26,3.14.94,16.52,1.14,29.13.76a.42.42,0,0,1,0,.84c-.07,0-7.44.22-14.8.17-10.58-.08-14-.66-15.15-1.19-5.8,4.26-11.4,8.5-16.55,12.58a.42.42,0,0,1-.59-.06h0a.42.42,0,0,1,.07-.59c5.12-4.06,10.68-8.27,16.44-12.5Z"/></g><g id="Group_864" data-name="Group 864"><path id="Path_1313" data-name="Path 1313" class="cls-4" d="M-16.18,258.34c6.93,5.2,13.68,3.62,18.67,0A45.35,45.35,0,0,0,18.13,237.9c3.3-8.93,6.43-18.1,6.3-27.94-.07-5.29,1-10.91-.08-16.1-.48-2.34-1.65-9.11-4.62-9.51-2-.27-7.18,3.92-8.95,5-3.55,2.13-6,5.13-8.82,7.78-6.4,6-12,13.33-16.89,20.21a43.47,43.47,0,0,0-6.19,11.86c-1.6,5-3.55,9.69-2.45,15.19.3,1.48.75,2.88,1,4.36.18,1.16.94,2.21,1.2,3.37C-20.91,254.34-18.39,256.68-16.18,258.34Z"/><path id="Path_1314" data-name="Path 1314" class="cls-7" d="M-8.2,247.37l-.09-.06,0-.08c-.07-.12-7.07-12.49-5.92-22.62,0-.15.2-.24.4-.2a.38.38,0,0,1,.34.35c-1,9,4.45,19.72,5.63,21.91,2.17-5.61,4.54-11.33,6.93-16.85-.74-1.07-6.37-9.44-5.79-16.31,0-.15.19-.24.39-.2a.39.39,0,0,1,.34.35c-.51,6.06,4,13.35,5.35,15.47,2.09-4.83,4.19-9.5,6.17-13.79A20.13,20.13,0,0,1,2.7,203.3c0-.15.18-.25.39-.21a.39.39,0,0,1,.35.35,20.4,20.4,0,0,0,2.38,11.21c5.79-12.55,10.4-21.69,10.5-21.87a.37.37,0,0,1,.47-.1c.19.08.29.26.22.39S12.28,202.41,6.49,215A20.21,20.21,0,0,0,19.7,207a.38.38,0,0,1,.48-.07c.19.09.27.27.19.4a20.87,20.87,0,0,1-14.18,8.27c-2,4.31-4.09,9-6.2,13.86a34.58,34.58,0,0,0,19-8.62.43.43,0,0,1,.51,0c.17.11.22.29.1.4A35.18,35.18,0,0,1-.27,230.11c-2.38,5.51-4.75,11.23-6.92,16.83,2.67-.4,12-4.39,20.4-8.5a.48.48,0,0,1,.52.11.23.23,0,0,1,0,.39s-5,2.42-10.06,4.65c-7.3,3.2-10,3.9-11,3.94-1.67,4.35-3.22,8.62-4.55,12.67a.34.34,0,0,1-.45.14h0c-.2-.07-.32-.23-.27-.38,1.32-4,2.85-8.26,4.51-12.58Z"/></g></g></g></g></g></g></g></g></svg>