<svg id="圖層_1" data-name="圖層 1" xmlns="http://www.w3.org/2000/svg" xmlns:xlink="http://www.w3.org/1999/xlink" viewBox="0 0 290 196"><defs><style>.cls-1{fill:none;}.cls-2{clip-path:url(#clip-path);}.cls-3{fill:#559972;}.cls-4{fill:#447762;}.cls-5{fill:#043531;}.cls-6{fill:#46695e;}.cls-7{fill:#f2bc41;}.cls-8{fill:#040100;}.cls-9{fill:#fff;}.cls-10{fill:#c99732;}.cls-11{fill:#efc048;}.cls-12{fill:#1a1b1f;}.cls-13{fill:#df9c36;}.cls-14{fill:#b3513b;}.cls-15{fill:#e06243;}.cls-16{fill:#29100d;}.cls-17{fill:#043a2c;}.cls-18{fill:#9fc54d;}</style><clipPath id="clip-path"><rect class="cls-1" width="290" height="196"/></clipPath></defs><title>artboard – 29</title><g class="cls-2"><g id="artboard_29" data-name="artboard 29"><g id="Group_919" data-name="Group 919"><g id="Group_902" data-name="Group 902"><g id="Group_779" data-name="Group 779"><path id="Path_1284" data-name="Path 1284" class="cls-3" d="M75.66,146.56a50.66,50.66,0,0,0,6.74-18.86A33,33,0,0,0,76,103.34c-4.06-5.5-8.56-14.46-4.19-23.59,7.06-14.74-2.66-29-2.66-29s-3.4-5.15-2.35-10.82a19.49,19.49,0,0,0-1.41-12c-.55-1.16-3.89-5.95-4.72-7.15,0,0-6.56,8.25-4.83,16.5s.57,12.4-3,16.53S48.35,74.9,50.6,84.41s-11.51,22.17-13.08,31,2.87,23.25,24.18,40.45l4.81.47S66.32,159.82,75.66,146.56Z"/><path id="Path_1285" data-name="Path 1285" class="cls-4" d="M79.5,145.86a39.49,39.49,0,0,0,8-12.62A23.63,23.63,0,0,0,87,115c-2-4.47-3.67-11.47,1-17.42,7.55-9.63,3-21.11,3-21.11a11.8,11.8,0,0,1,.15-8,14.25,14.25,0,0,0,1-8.75c-.2-.9-1.78-4.76-2.16-5.73,0,0-6.09,5-6.25,11.17S82.12,74,78.88,76.52,72.1,91,72.1,98.12s-12,14.36-14.61,20.47-1.88,17,10.45,32.1l3.36,1S70.57,154.13,79.5,145.86Z"/><path id="Path_1286" data-name="Path 1286" class="cls-5" d="M56.62,143.27a29.44,29.44,0,0,0,.52-12,21.5,21.5,0,0,0-8.19-13.36c-3.38-2.65-7.64-7.27-6.74-13.22,1.46-9.62-6.83-16.62-6.83-16.62a10.74,10.74,0,0,1-3.34-6,12.44,12.44,0,0,0-3-6.81c-.53-.6-3.36-2.94-4.06-3.53,0,0-2.34,5.75.17,10.34s2.59,7.18,1.26,10.09,1.2,13,4.25,18.22-2.71,14.6-2,20,5.91,13.21,21.51,20.3l2.9-.4S53.55,152.35,56.62,143.27Z"/></g></g><g id="Group_903" data-name="Group 903"><g id="Group_741" data-name="Group 741"><g id="Group_544" data-name="Group 544"><path id="Path_1154" data-name="Path 1154" class="cls-6" d="M101.26,166.69c26.8,0,47.79,3.48,47.79,7.92s-21,7.92-47.79,7.92-47.79-3.48-47.79-7.92S74.47,166.69,101.26,166.69Z"/></g><g id="Group_740" data-name="Group 740"><g id="Group_545" data-name="Group 545"><path id="Path_1155" data-name="Path 1155" class="cls-7" d="M47.83,127.24c1.15-8,4.57-15.17,8.21-22.31s7.33-14.62,10.84-22a77.19,77.19,0,0,1,4.29-8.5,28.3,28.3,0,0,1,4.53-5.07c1.71-1.64,3.39-3.34,5.16-4.91a48,48,0,0,1,12.5-8.1,31.69,31.69,0,0,1,13.81-3c4.17.16,7.83,1.71,11.59,3.36,5.43,2.38,10.37,5.44,11.78,11.59.93,4.06.46,8.38-.21,12.44a1,1,0,0,1-.93.79,48.05,48.05,0,0,0-5.8,1.08c-3.29.79-6.91,1.83-9.57,4a5,5,0,0,0-2.09,3.59,5.48,5.48,0,0,0,.49,2.26c.65,1.62,1.35,3.23,2,4.86,2,5.18,3.2,10.66.42,15.8-1.14,2.11-3.49,3.88-3.72,6.37a7.61,7.61,0,0,0,1.68,4.92,28.13,28.13,0,0,0,8,7.1,24.12,24.12,0,0,1,7.82,8.83,25.44,25.44,0,0,1,3.29,13.35c-.26,6.52-3.24,12.52-7.13,17.64a5.78,5.78,0,0,0,3.74-.38,11.23,11.23,0,0,0,4.43-4.34,38.33,38.33,0,0,0,4.41-11.26,66.15,66.15,0,0,0,2.13-13.22,24.59,24.59,0,0,0-.87-8.68c-.43-1.32-1.2-3.08-2.61-3.62a1.91,1.91,0,0,0-1.35,0c-1.17.41-2.07,1.38-3.31,1.74-3.12.91-5.78-2-5.1-5.16.5-2.25,3.3-3.35,5.33-3.69,3.67-1.37,8.44-.92,11.08,2.19,2.78,3.28,3,8.32,3.23,12.45.59,9.23-.2,19.11-4.33,27.53a27.65,27.65,0,0,1-9.93,11.35c-5.21,3.3-11.48,4.47-17.58,4.39-6.86-.09-13.91-1.61-20.54-3.45A95.26,95.26,0,0,1,69.08,166.9c-8.66-5.34-16.44-12.77-19.82-22.58A36.48,36.48,0,0,1,47.83,127.24Z"/></g><g id="Group_546" data-name="Group 546"><path id="Path_1156" data-name="Path 1156" class="cls-8" d="M99.4,58.35c1.49-2.32,4.58-4.51,7.46-4.28,2.19.17,3.79,1.8,4.82,3.61A15,15,0,0,1,113.33,62a.74.74,0,0,1-.32.71L104.75,69a.88.88,0,0,1-.43.17.83.83,0,0,1-.63-.11C100.29,66.81,96.79,62.41,99.4,58.35Z"/></g><g id="Group_547" data-name="Group 547"><path id="Path_1157" data-name="Path 1157" class="cls-9" d="M102.71,60.15c1-1.5,3.1-2.93,5-2.65a4.31,4.31,0,0,1,3,2.41,10.26,10.26,0,0,1,1.08,2.91,0,0,0,0,1,0,0l-5.9,4.44a.18.18,0,0,1-.11,0,.37.37,0,0,1-.18,0C103.31,65.82,100.87,62.84,102.71,60.15Z"/></g><g id="Group_548" data-name="Group 548"><path id="Path_1158" data-name="Path 1158" class="cls-8" d="M121.85,62.17c.62-3.06,2.36-6.86,5.63-7.74,2.79-.75,5.72,1,7.55,3a5.75,5.75,0,0,1,.62,7.24,13.62,13.62,0,0,1-4.19,4.17,1.07,1.07,0,0,1-.84.1.73.73,0,0,1-.37-.13L122,62.58A.4.4,0,0,1,121.85,62.17Z"/></g><g id="Group_549" data-name="Group 549"><path id="Path_1159" data-name="Path 1159" class="cls-9" d="M123.64,62.65c.58-2.84,2.54-5.61,5.73-4.34,2,.79,4.09,2.76,3.35,5.08a7.07,7.07,0,0,1-2.93,3.46.71.71,0,0,1-.53,0,1,1,0,0,1-.34-.11l-5.17-3.89S123.62,62.71,123.64,62.65Z"/></g><g id="Group_550" data-name="Group 550"><path id="Path_1160" data-name="Path 1160" class="cls-10" d="M106.45,115.55c.58-4.12,1.33-8.22,1.72-12.36a49.7,49.7,0,0,0,.25-6.09c-.06-2.27-.4-4.52-.54-6.79-.36-5.9-.19-12.15,1.5-17.87.07-.24.14-.47.23-.71h0s0,0,0-.08a1,1,0,0,1,.57-.3c.45-.17,1-.3,1.05-.16l4.15,11.43c.28.78.65,1.57.86,2.37s-.38,1.64-.52,2.63c-.43,3,.85,5.7,1.74,8.5,1.88,5.92,2.71,12.69.1,18.53-.89,2-2.43,3.87-2.39,6.14.07,3.23,2.29,6.2,4.31,8.52,2.33,2.68,4.83,5.22,7,8,.24.3,1.4,1.43,1.31,1.92s-1.39.77-1.72.88c-6,2.18-12.05-.14-16.46-4.49C104.45,130.46,105.51,122.15,106.45,115.55Z"/></g><g id="Group_551" data-name="Group 551"><path id="Path_1161" data-name="Path 1161" class="cls-11" d="M101.91,74.42c1-6,5.09-13.83,12.06-13.88,4.29-.95,9.5-.9,13.35,1.37,3.53,2.09,4.66,5.78,4.9,9.67s0,7.79-1.69,11.26c-3.65,7.46-13.5,8.66-20.78,6.77C102.88,87.83,100.84,80.77,101.91,74.42Z"/></g><g id="Group_556" data-name="Group 556"><g id="Group_553" data-name="Group 553"><g id="Group_552" data-name="Group 552"><path id="Path_1162" data-name="Path 1162" class="cls-9" d="M118.25,79.43s.27,6,2.71,3.8S119.6,76.72,118.25,79.43Z"/></g></g><g id="Group_555" data-name="Group 555"><g id="Group_554" data-name="Group 554"><path id="Path_1163" data-name="Path 1163" class="cls-9" d="M118.23,79.43s-.27,6-2.71,3.8S116.88,76.72,118.23,79.43Z"/></g></g></g><g id="Group_558" data-name="Group 558"><g id="Group_557" data-name="Group 557"><path id="Path_1164" data-name="Path 1164" class="cls-9" d="M129.63,73.16s-4-4.91-8.66.58C121,73.74,125.88,77.49,129.63,73.16Z"/></g></g><g id="Group_559" data-name="Group 559"><path id="Path_1165" data-name="Path 1165" class="cls-8" d="M122.87,73.38a3.22,3.22,0,0,1,.38-1c.25-.41.49-.46.65-.42s.36.17.44.64a3.21,3.21,0,0,1,0,1.11c-.15.75-.52,1.47-1,1.47h-.08C122.79,75,122.71,74.18,122.87,73.38Z"/></g><g id="Group_561" data-name="Group 561"><g id="Group_560" data-name="Group 560"><path id="Path_1166" data-name="Path 1166" class="cls-9" d="M114,73.16s-3.46-4.62-8.08.87C106,74,110.29,77.49,114,73.16Z"/></g></g><g id="Group_562" data-name="Group 562"><path id="Path_1167" data-name="Path 1167" class="cls-8" d="M107.28,73.38a3.22,3.22,0,0,1,.38-1c.25-.41.49-.46.65-.42s.36.17.44.64a3.2,3.2,0,0,1,0,1.11c-.15.75-.52,1.47-1,1.47h-.08C107.21,75,107.12,74.18,107.28,73.38Z"/></g><g id="Group_564" data-name="Group 564"><g id="Group_563" data-name="Group 563"><path id="Path_1168" data-name="Path 1168" class="cls-9" d="M121,60.45s-.81,19-1.63,20.06h-2.44l-2.67-19.64S119.87,59.64,121,60.45Z"/></g></g><g id="Group_565" data-name="Group 565"><path id="Path_1169" data-name="Path 1169" class="cls-12" d="M116.42,76.64h3.52l.08,0a0,0,0,0,1,0,0q-.06.83-.15,1.66a5.74,5.74,0,0,1-.33,2c-.18.3-.5.21-.82.21h-1.92s-.09,0-.1,0l-.54-3.8C116.16,76.66,116.37,76.64,116.42,76.64Z"/></g><g id="Group_570" data-name="Group 570"><g id="Group_566" data-name="Group 566"><path id="Path_1170" data-name="Path 1170" class="cls-12" d="M116.08,80a.2.2,0,1,1,.2.2.2.2,0,0,1-.2-.2Z"/></g><g id="Group_567" data-name="Group 567"><path id="Path_1171" data-name="Path 1171" class="cls-12" d="M117.09,80.92a.2.2,0,1,1-.2.2.2.2,0,0,1,.2-.2Z"/></g><g id="Group_568" data-name="Group 568"><path id="Path_1172" data-name="Path 1172" class="cls-12" d="M116.21,80.85a.2.2,0,1,1-.2-.2.2.2,0,0,1,.2.2Z"/></g><g id="Group_569" data-name="Group 569"><path id="Path_1173" data-name="Path 1173" class="cls-12" d="M116,81.46a.2.2,0,1,1-.2.2.2.2,0,0,1,.2-.2Z"/></g></g><g id="Group_575" data-name="Group 575"><g id="Group_571" data-name="Group 571"><path id="Path_1174" data-name="Path 1174" class="cls-12" d="M119.53,80.92a.2.2,0,1,1-.2.2.2.2,0,0,1,.2-.2Z"/></g><g id="Group_572" data-name="Group 572"><path id="Path_1175" data-name="Path 1175" class="cls-12" d="M120.08,79.83a.2.2,0,1,1-.2.2.2.2,0,0,1,.2-.2Z"/></g><g id="Group_573" data-name="Group 573"><path id="Path_1176" data-name="Path 1176" class="cls-12" d="M120.89,80.65a.2.2,0,1,1-.2.2.2.2,0,0,1,.2-.2Z"/></g><g id="Group_574" data-name="Group 574"><path id="Path_1177" data-name="Path 1177" class="cls-12" d="M120.35,81.46a.2.2,0,1,1-.2.2.2.2,0,0,1,.2-.2Z"/></g></g><g id="Group_582" data-name="Group 582"><g id="Group_577" data-name="Group 577"><g id="Group_576" data-name="Group 576"><path id="Path_1178" data-name="Path 1178" class="cls-12" d="M127.32,78.24h11a.17.17,0,0,0,0-.35h-11a.17.17,0,0,0,0,.35Z"/></g></g><g id="Group_579" data-name="Group 579"><g id="Group_578" data-name="Group 578"><path id="Path_1179" data-name="Path 1179" class="cls-12" d="M137.13,83.44a.17.17,0,0,0,.05-.34l-9.52-3.17a.17.17,0,0,0-.11.33l9.52,3.17Z"/></g></g><g id="Group_581" data-name="Group 581"><g id="Group_580" data-name="Group 580"><path id="Path_1180" data-name="Path 1180" class="cls-12" d="M132.51,86.61a.17.17,0,0,0,.12-.3l-5.19-4.62a.17.17,0,0,0-.23.26h0l5.19,4.62A.17.17,0,0,0,132.51,86.61Z"/></g></g></g><g id="Group_589" data-name="Group 589"><g id="Group_584" data-name="Group 584"><g id="Group_583" data-name="Group 583"><path id="Path_1181" data-name="Path 1181" class="cls-12" d="M95.72,77.23h11a.17.17,0,0,0,0-.35h-11a.17.17,0,1,0,0,.35Z"/></g></g><g id="Group_586" data-name="Group 586"><g id="Group_585" data-name="Group 585"><path id="Path_1182" data-name="Path 1182" class="cls-12" d="M96.87,82.43h.05l9.52-3.17a.17.17,0,0,0-.11-.33l-9.52,3.17a.18.18,0,0,0,.05.34Z"/></g></g><g id="Group_588" data-name="Group 588"><g id="Group_587" data-name="Group 587"><path id="Path_1183" data-name="Path 1183" class="cls-12" d="M101.49,85.6a.18.18,0,0,0,.12,0l5.2-4.62a.17.17,0,0,0-.23-.26h0l-5.2,4.62a.17.17,0,0,0,.12.3Z"/></g></g></g><g id="Group_591" data-name="Group 591"><g id="Group_590" data-name="Group 590"><rect id="Rectangle_1400" data-name="Rectangle 1400" class="cls-12" x="118.06" y="79.84" width="0.35" height="3.86" transform="translate(-0.24 0.35) rotate(-0.17)"/></g></g><g id="Group_594" data-name="Group 594"><g id="Group_593" data-name="Group 593"><g id="Group_592" data-name="Group 592"><path id="Path_1184" data-name="Path 1184" class="cls-12" d="M120.78,85.79a4.35,4.35,0,0,0-1.18-1.43c-1.59-1.23-3.14.08-4.21,1.36-.14.16-.77.11-.68,0,1.14-1.36,2.84-2.72,4.71-2a4,4,0,0,1,2,1.92c.1.2-.58.31-.66.14Z"/></g></g></g><g id="Group_597" data-name="Group 597"><g id="Group_596" data-name="Group 596"><g id="Group_595" data-name="Group 595"><path id="Path_1185" data-name="Path 1185" class="cls-12" d="M119.8,83.46a4.7,4.7,0,0,0,1.67-6.22c-.69-1.54-1.78-2.65-.51-4.28,2.65-3.4,6.5-2.31,9.27.36.24.23-.73.15-.92,0-1.87-1.8-4.12-2.86-6.32-1.07-1.1.9-2.1,2.13-1.4,3.6a10.08,10.08,0,0,1,1.4,3.62,4.44,4.44,0,0,1-2.24,4.39c-.26.16-1.14-.25-.95-.36Z"/></g></g></g><g id="Group_600" data-name="Group 600"><g id="Group_599" data-name="Group 599"><g id="Group_598" data-name="Group 598"><path id="Path_1186" data-name="Path 1186" class="cls-12" d="M116.82,83.87c-3.75-.48-2.88-4.75-2.27-7.38a3.62,3.62,0,0,0-1.68-4.11c-2-1.41-4.76-.4-6.29,1.68-.15.21-1.12-.12-.95-.36a5.59,5.59,0,0,1,5.92-2.31,5.47,5.47,0,0,1,4,3.19,5.39,5.39,0,0,1-.23,3c-.36,1.55-1.08,5.55,1.3,5.85.43.05.89.51.18.42Z"/></g></g></g><g id="Group_601" data-name="Group 601"><path id="Path_1187" data-name="Path 1187" class="cls-10" d="M125.61,127.32a.83.83,0,0,1,0-.23,3.94,3.94,0,0,1,4-3.65,4.14,4.14,0,0,1,4,4.07,3.94,3.94,0,0,1-3.92,3.88,4.15,4.15,0,0,1-4.1-3.87A.8.8,0,0,1,125.61,127.32Z"/></g><g id="Group_603" data-name="Group 603"><g id="Group_602" data-name="Group 602"><path id="Path_1188" data-name="Path 1188" d="M65.78,101.26a1.74,1.74,0,1,0,1.74-1.74h0A1.74,1.74,0,0,0,65.78,101.26Z"/></g></g><g id="Group_605" data-name="Group 605"><g id="Group_604" data-name="Group 604"><path id="Path_1189" data-name="Path 1189" d="M85.76,91.34a1.31,1.31,0,1,0,1.3-1.44A1.38,1.38,0,0,0,85.76,91.34Z"/></g></g><g id="Group_607" data-name="Group 607"><g id="Group_606" data-name="Group 606"><path id="Path_1190" data-name="Path 1190" d="M78,90.62a.72.72,0,1,0,.72-.72.72.72,0,0,0-.72.72Z"/></g></g><g id="Group_609" data-name="Group 609"><g id="Group_608" data-name="Group 608"><circle id="Ellipse_89" data-name="Ellipse 89" cx="73.77" cy="110.97" r="1.71"/></g></g><g id="Group_611" data-name="Group 611"><g id="Group_610" data-name="Group 610"><path id="Path_1191" data-name="Path 1191" d="M67.87,88.17a1.73,1.73,0,1,0,1.73-1.73,1.73,1.73,0,0,0-1.73,1.73Z"/></g></g><g id="Group_613" data-name="Group 613"><g id="Group_612" data-name="Group 612"><path id="Path_1192" data-name="Path 1192" d="M60.88,111.66a1.73,1.73,0,1,0,2.25,1,1.73,1.73,0,0,0-2.25-1Z"/></g></g><g id="Group_615" data-name="Group 615"><g id="Group_614" data-name="Group 614"><path id="Path_1193" data-name="Path 1193" d="M131.36,125.4a1.15,1.15,0,1,0,1.15-1.15h0A1.15,1.15,0,0,0,131.36,125.4Z"/></g></g><g id="Group_617" data-name="Group 617"><g id="Group_616" data-name="Group 616"><path id="Path_1194" data-name="Path 1194" d="M141.17,129.44a.58.58,0,1,0,.58-.58.58.58,0,0,0-.58.58Z"/></g></g><g id="Group_619" data-name="Group 619"><g id="Group_618" data-name="Group 618"><path id="Path_1195" data-name="Path 1195" d="M141.75,138a.72.72,0,1,0,.72-.72.72.72,0,0,0-.72.72Z"/></g></g><g id="Group_621" data-name="Group 621"><g id="Group_620" data-name="Group 620"><path id="Path_1196" data-name="Path 1196" d="M81.74,152.06a.72.72,0,1,0,.72-.72h0A.72.72,0,0,0,81.74,152.06Z"/></g></g><g id="Group_623" data-name="Group 623"><g id="Group_622" data-name="Group 622"><circle id="Ellipse_90" data-name="Ellipse 90" cx="138.33" cy="157.33" r="0.87"/></g></g><g id="Group_625" data-name="Group 625"><g id="Group_624" data-name="Group 624"><path id="Path_1197" data-name="Path 1197" d="M78.51,121.57a.87.87,0,1,0,.87-.87.87.87,0,0,0-.87.87Z"/></g></g><g id="Group_627" data-name="Group 627"><g id="Group_626" data-name="Group 626"><path id="Path_1198" data-name="Path 1198" d="M137.62,166.06a.87.87,0,1,0,0-1.22h0A.87.87,0,0,0,137.62,166.06Z"/></g></g><g id="Group_629" data-name="Group 629"><g id="Group_628" data-name="Group 628"><path id="Path_1199" data-name="Path 1199" d="M120.39,172.44a1.44,1.44,0,1,0,1.44-1.44h0A1.44,1.44,0,0,0,120.39,172.44Z"/></g></g><g id="Group_631" data-name="Group 631"><g id="Group_630" data-name="Group 630"><path id="Path_1200" data-name="Path 1200" d="M125.24,159.25a1,1,0,1,0,1-1,1,1,0,0,0-1,1Z"/></g></g><g id="Group_633" data-name="Group 633"><g id="Group_632" data-name="Group 632"><path id="Path_1201" data-name="Path 1201" d="M118.22,150a1.59,1.59,0,1,0,2.24.1,1.59,1.59,0,0,0-2.24-.1Z"/></g></g><g id="Group_635" data-name="Group 635"><g id="Group_634" data-name="Group 634"><path id="Path_1202" data-name="Path 1202" d="M115.2,161.61a1.59,1.59,0,1,0,1.59-1.59h0A1.59,1.59,0,0,0,115.2,161.61Z"/></g></g><g id="Group_637" data-name="Group 637"><g id="Group_636" data-name="Group 636"><path id="Path_1203" data-name="Path 1203" d="M104,168.48a1.2,1.2,0,1,0,1.31-1.08h-.12A1.14,1.14,0,0,0,104,168.48Z"/></g></g><g id="Group_639" data-name="Group 639"><g id="Group_638" data-name="Group 638"><path id="Path_1204" data-name="Path 1204" d="M81.84,168.85a.72.72,0,1,0,.72-.72h0A.72.72,0,0,0,81.84,168.85Z"/></g></g><g id="Group_641" data-name="Group 641"><g id="Group_640" data-name="Group 640"><path id="Path_1205" data-name="Path 1205" d="M67.44,152.8a.87.87,0,1,0,.87-.87.87.87,0,0,0-.87.87Z"/></g></g><g id="Group_643" data-name="Group 643"><g id="Group_642" data-name="Group 642"><path id="Path_1206" data-name="Path 1206" d="M50.6,134.17a.87.87,0,1,0,.68,1h0A.87.87,0,0,0,50.6,134.17Z"/></g></g><g id="Group_645" data-name="Group 645"><g id="Group_644" data-name="Group 644"><path id="Path_1207" data-name="Path 1207" d="M101.3,125.7a.87.87,0,1,0,.68,1h0A.87.87,0,0,0,101.3,125.7Z"/></g></g><g id="Group_647" data-name="Group 647"><g id="Group_646" data-name="Group 646"><path id="Path_1208" data-name="Path 1208" d="M101.6,156a1.3,1.3,0,1,0,1.3-1.3h0A1.3,1.3,0,0,0,101.6,156Z"/></g></g><g id="Group_649" data-name="Group 649"><g id="Group_648" data-name="Group 648"><path id="Path_1209" data-name="Path 1209" d="M95,146.18a.87.87,0,1,0,.87-.87.87.87,0,0,0-.87.87Z"/></g></g><g id="Group_651" data-name="Group 651"><g id="Group_650" data-name="Group 650"><path id="Path_1210" data-name="Path 1210" d="M98.75,137.23a1.44,1.44,0,1,0,1.44-1.44h0A1.44,1.44,0,0,0,98.75,137.23Z"/></g></g><g id="Group_653" data-name="Group 653"><g id="Group_652" data-name="Group 652"><path id="Path_1211" data-name="Path 1211" d="M108,137.52a1.15,1.15,0,1,0,1.15-1.16,1.15,1.15,0,0,0-1.15,1.16Z"/></g></g><g id="Group_655" data-name="Group 655"><g id="Group_654" data-name="Group 654"><path id="Path_1212" data-name="Path 1212" d="M107.76,146.45a1.15,1.15,0,1,0,1.15-1.15,1.15,1.15,0,0,0-1.15,1.15Z"/></g></g><g id="Group_657" data-name="Group 657"><g id="Group_656" data-name="Group 656"><path id="Path_1213" data-name="Path 1213" d="M90.12,123.71a1.44,1.44,0,1,0,1.44-1.44h0A1.44,1.44,0,0,0,90.12,123.71Z"/></g></g><g id="Group_659" data-name="Group 659"><g id="Group_658" data-name="Group 658"><circle id="Ellipse_91" data-name="Ellipse 91" cx="85.81" cy="113.2" r="1.44"/></g></g><g id="Group_661" data-name="Group 661"><g id="Group_660" data-name="Group 660"><path id="Path_1214" data-name="Path 1214" d="M97.86,72.06a1,1,0,1,0,1-1,1,1,0,0,0-1,1Z"/></g></g><g id="Group_663" data-name="Group 663"><g id="Group_662" data-name="Group 662"><path id="Path_1215" data-name="Path 1215" d="M113.18,67.24a.43.43,0,1,0,.43-.43h0A.43.43,0,0,0,113.18,67.24Z"/></g></g><g id="Group_665" data-name="Group 665"><g id="Group_664" data-name="Group 664"><path id="Path_1216" data-name="Path 1216" d="M101.13,91.29a1.15,1.15,0,1,0,1.15-1.15h0A1.15,1.15,0,0,0,101.13,91.29Z"/></g></g><g id="Group_667" data-name="Group 667"><g id="Group_666" data-name="Group 666"><path id="Path_1217" data-name="Path 1217" d="M122.41,68a.58.58,0,1,0,.58-.58.58.58,0,0,0-.58.58Z"/></g></g><g id="Group_669" data-name="Group 669"><g id="Group_668" data-name="Group 668"><path id="Path_1218" data-name="Path 1218" d="M64.66,94.93a.58.58,0,1,0,.58-.58.58.58,0,0,0-.58.58Z"/></g></g><g id="Group_671" data-name="Group 671"><g id="Group_670" data-name="Group 670"><path id="Path_1219" data-name="Path 1219" d="M129.63,68.54a.58.58,0,1,0,.58-.58.58.58,0,0,0-.58.58Z"/></g></g><g id="Group_673" data-name="Group 673"><g id="Group_672" data-name="Group 672"><path id="Path_1220" data-name="Path 1220" d="M117.45,59.41a.92.92,0,1,0-.92-.92h0A.92.92,0,0,0,117.45,59.41Z"/></g></g><g id="Group_675" data-name="Group 675"><g id="Group_674" data-name="Group 674"><path id="Path_1221" data-name="Path 1221" d="M123.58,62.21a.58.58,0,1,0,.58-.58.58.58,0,0,0-.58.58Z"/></g></g><g id="Group_677" data-name="Group 677"><g id="Group_676" data-name="Group 676"><path id="Path_1222" data-name="Path 1222" d="M96.73,58.88a.72.72,0,1,0,.72-.72.72.72,0,0,0-.72.72Z"/></g></g><g id="Group_679" data-name="Group 679"><g id="Group_678" data-name="Group 678"><path id="Path_1223" data-name="Path 1223" d="M76.56,81.05a1.44,1.44,0,1,0,2,.13h0A1.44,1.44,0,0,0,76.56,81.05Z"/></g></g><g id="Group_681" data-name="Group 681"><g id="Group_680" data-name="Group 680"><path id="Path_1224" data-name="Path 1224" d="M81.6,100a1.44,1.44,0,1,0,2,.13h0A1.44,1.44,0,0,0,81.6,100Z"/></g></g><g id="Group_683" data-name="Group 683"><g id="Group_682" data-name="Group 682"><path id="Path_1225" data-name="Path 1225" d="M58.08,141.35a1.44,1.44,0,1,0,2,.13h0A1.44,1.44,0,0,0,58.08,141.35Z"/></g></g><g id="Group_685" data-name="Group 685"><g id="Group_684" data-name="Group 684"><path id="Path_1226" data-name="Path 1226" d="M72.57,145a1.44,1.44,0,1,0,2,.13h0A1.44,1.44,0,0,0,72.57,145Z"/></g></g><g id="Group_687" data-name="Group 687"><g id="Group_686" data-name="Group 686"><path id="Path_1227" data-name="Path 1227" d="M64.35,158.83a1.44,1.44,0,1,0,2,.13h0A1.44,1.44,0,0,0,64.35,158.83Z"/></g></g><g id="Group_689" data-name="Group 689"><g id="Group_688" data-name="Group 688"><path id="Path_1228" data-name="Path 1228" d="M68.89,121.16a1.44,1.44,0,1,0,2,.13h0A1.44,1.44,0,0,0,68.89,121.16Z"/></g></g><g id="Group_691" data-name="Group 691"><g id="Group_690" data-name="Group 690"><path id="Path_1229" data-name="Path 1229" d="M85.62,130.93a1.44,1.44,0,1,0,2,.13h0A1.44,1.44,0,0,0,85.62,130.93Z"/></g></g><g id="Group_693" data-name="Group 693"><g id="Group_692" data-name="Group 692"><path id="Path_1230" data-name="Path 1230" d="M56,150.11a1.44,1.44,0,1,0,2,.13h0a1.44,1.44,0,0,0-2-.13Z"/></g></g><g id="Group_695" data-name="Group 695"><g id="Group_694" data-name="Group 694"><path id="Path_1231" data-name="Path 1231" d="M66.26,137a1.44,1.44,0,1,0,2,.13h0A1.44,1.44,0,0,0,66.26,137Z"/></g></g><g id="Group_697" data-name="Group 697"><g id="Group_696" data-name="Group 696"><path id="Path_1232" data-name="Path 1232" d="M82.49,162a1.44,1.44,0,1,0,2,.13h0A1.44,1.44,0,0,0,82.49,162Z"/></g></g><g id="Group_699" data-name="Group 699"><g id="Group_698" data-name="Group 698"><path id="Path_1233" data-name="Path 1233" d="M99.17,110.67a1.44,1.44,0,1,0,2,.13h0A1.44,1.44,0,0,0,99.17,110.67Z"/></g></g><g id="Group_701" data-name="Group 701"><g id="Group_700" data-name="Group 700"><path id="Path_1234" data-name="Path 1234" d="M87.2,64.79a1.44,1.44,0,1,0,1.44-1.44h0A1.44,1.44,0,0,0,87.2,64.79Z"/></g></g><g id="Group_703" data-name="Group 703"><g id="Group_702" data-name="Group 702"><path id="Path_1235" data-name="Path 1235" d="M86.45,77.84a.87.87,0,1,0,.87-.87.87.87,0,0,0-.87.87Z"/></g></g><g id="Group_705" data-name="Group 705"><g id="Group_704" data-name="Group 704"><path id="Path_1236" data-name="Path 1236" d="M92.35,81.35a1.3,1.3,0,1,0,1.3-1.3h0A1.3,1.3,0,0,0,92.35,81.35Z"/></g></g><g id="Group_707" data-name="Group 707"><g id="Group_706" data-name="Group 706"><path id="Path_1237" data-name="Path 1237" d="M83.74,70.13a1,1,0,1,0,1-1,1,1,0,0,0-1,1Z"/></g></g><g id="Group_709" data-name="Group 709"><g id="Group_708" data-name="Group 708"><circle id="Ellipse_92" data-name="Ellipse 92" cx="75.92" cy="72.12" r="1.12"/></g></g><g id="Group_711" data-name="Group 711"><g id="Group_710" data-name="Group 710"><path id="Path_1238" data-name="Path 1238" d="M126.45,143.58a1.15,1.15,0,1,0,1.15-1.16,1.15,1.15,0,0,0-1.15,1.16Z"/></g></g><g id="Group_713" data-name="Group 713"><g id="Group_712" data-name="Group 712"><path id="Path_1239" data-name="Path 1239" d="M129.51,173.13a.87.87,0,1,0,.87-.87.87.87,0,0,0-.87.87Z"/></g></g><g id="Group_715" data-name="Group 715"><g id="Group_714" data-name="Group 714"><path id="Path_1240" data-name="Path 1240" d="M93,173.16a1,1,0,1,0,1-1,1,1,0,0,0-1,1Z"/></g></g><g id="Group_717" data-name="Group 717"><g id="Group_716" data-name="Group 716"><path id="Path_1241" data-name="Path 1241" d="M56,108.8a.72.72,0,1,0,.72-.72.72.72,0,0,0-.72.72Z"/></g></g><g id="Group_719" data-name="Group 719"><g id="Group_718" data-name="Group 718"><path id="Path_1242" data-name="Path 1242" d="M51.42,122.65a1,1,0,1,0,1-1,1,1,0,0,0-1,1Z"/></g></g><g id="Group_721" data-name="Group 721"><g id="Group_720" data-name="Group 720"><path id="Path_1243" data-name="Path 1243" d="M129.63,130.3a.87.87,0,1,0,.87-.87.87.87,0,0,0-.87.87Z"/></g></g><g id="Group_723" data-name="Group 723"><g id="Group_722" data-name="Group 722"><path id="Path_1244" data-name="Path 1244" d="M108.56,65.37a.87.87,0,1,0,.87-.87.87.87,0,0,0-.87.87Z"/></g></g><g id="Group_725" data-name="Group 725"><g id="Group_724" data-name="Group 724"><circle id="Ellipse_93" data-name="Ellipse 93" cx="61.26" cy="126.47" r="2.21"/></g></g><g id="Group_727" data-name="Group 727"><g id="Group_726" data-name="Group 726"><path id="Path_1245" data-name="Path 1245" d="M83.52,142.57a1.4,1.4,0,1,0,1.4-1.4,1.4,1.4,0,0,0-1.4,1.4Z"/></g></g><g id="Group_729" data-name="Group 729"><g id="Group_728" data-name="Group 728"><path id="Path_1246" data-name="Path 1246" d="M73.48,132.62A1.57,1.57,0,1,0,75,131.05a1.57,1.57,0,0,0-1.57,1.57Z"/></g></g><g id="Group_731" data-name="Group 731"><g id="Group_730" data-name="Group 730"><path id="Path_1247" data-name="Path 1247" d="M90.34,158.74a2,2,0,1,0,2-2A2,2,0,0,0,90.34,158.74Z"/></g></g><g id="Group_733" data-name="Group 733"><g id="Group_732" data-name="Group 732"><path id="Path_1248" data-name="Path 1248" d="M98.54,102.89a2,2,0,1,0-2.7-1.06h0a2,2,0,0,0,2.69,1.06Z"/></g></g><g id="Group_735" data-name="Group 735"><g id="Group_734" data-name="Group 734"><path id="Path_1249" data-name="Path 1249" d="M113.79,178.28a1.54,1.54,0,1,0-2-.79h0a1.54,1.54,0,0,0,2,.79Z"/></g></g><g id="Group_737" data-name="Group 737"><g id="Group_736" data-name="Group 736"><path id="Path_1250" data-name="Path 1250" d="M144.5,149.46a1.31,1.31,0,1,0-1.73-.68A1.31,1.31,0,0,0,144.5,149.46Z"/></g></g><g id="Group_739" data-name="Group 739"><g id="Group_738" data-name="Group 738"><path id="Path_1251" data-name="Path 1251" d="M76.17,163.6a1.91,1.91,0,1,0-2.51-1,1.91,1.91,0,0,0,2.51,1Z"/></g></g></g></g><g id="Group_774" data-name="Group 774"><g id="Group_773" data-name="Group 773"><g id="Group_748" data-name="Group 748"><path id="Path_1257" data-name="Path 1257" class="cls-13" d="M188,77a47,47,0,0,1,4.53-4.31A48.27,48.27,0,0,1,214.2,61.92a38.13,38.13,0,0,1,15.47.24,41.93,41.93,0,0,1,8.54,2.92,35.46,35.46,0,0,1,7,4,27.45,27.45,0,0,1,2.1,2q2.38,2.33,4.61,4.79a102.43,102.43,0,0,1,12.14,16.12c3.86,6.44,7,13.55,7.83,21.08A29.7,29.7,0,0,1,266,134.63a43.41,43.41,0,0,1-11.26,9.95,71,71,0,0,1-8,4.35,23.67,23.67,0,0,1-3.26,1.31,66.62,66.62,0,0,1-34.13,1.06c-.62-.15-1.38-.15-1.62-.79a2.27,2.27,0,0,1-.08-1.22c.42-1.82,3.13-1.54,4.46-1.36,1.09.14.45-.87.09-1.35a18,18,0,0,0-2.16-2.33c-1.36-1.29-3-2.2-4.21-3.64-2.92-3.39-4.61-7.82-5.79-12.17l.77,12.37c.07,1.07.17,2.14.2,3.21a1.55,1.55,0,0,1-1.4,1.63,2.84,2.84,0,0,1-2.7-1.78,13,13,0,0,1-.47-2.42c-.94-7-1.06-14.2-1.34-21.27-.31-7.6-.5-15.21-1-22.8-.07-1.08-.14-2.16-.25-3.24,0-.36-.08-.71-.14-1.07,0-.1-.11-.31-.14-.46l-.26-.09-.26-.1c0,.11-.22.33-.26.43a5.89,5.89,0,0,0-.27,1.08A38.46,38.46,0,0,0,192,98.2a74,74,0,0,0,.22,9.22c.26,4.53.6,9,.92,13.57s.64,8.92.85,13.39a50,50,0,0,1,0,8.66c-.06.48-.11,1.19-.62,1.4-1.17.47-2-1.05-2.33-1.88a38.82,38.82,0,0,1-1.94-10.12c-.1-1-.08-2-.11-2.93q-.12-4.12-.23-8.24-.34-12-.68-24L187.64,79C187.62,78.13,187.44,77.65,188,77Z"/></g><g id="Group_749" data-name="Group 749"><path id="Path_1258" data-name="Path 1258" class="cls-14" d="M178.09,60.63a52.38,52.38,0,0,1,4.62-19.38c1.9-4.29,4.68-8.66,9.19-10.51,3.41-1.4,7.24-1.2,10.82-.68,3.33.48,7,1.64,10.36.68,5-1.46,9-5.42,13.57-7.91,4.22-2.33,9.4-3.23,13.45,0,1.06.84,1.88,1.91,2.88,2.81a19.45,19.45,0,0,0,2.68,2,39.5,39.5,0,0,0,6.57,3.19c4.42,1.75,9.11,3,13.32,5.25,3,1.6,5.91,4,5.45,7.81a31.75,31.75,0,0,1-1,3.59,9.43,9.43,0,0,0-.21,4c.4,2.07,1.82,3.56,3.32,4.93a11.63,11.63,0,0,1,3.36,4.13c.74,2.07.49,4.6.36,6.74a66.5,66.5,0,0,1-1,8.14,14.38,14.38,0,0,1-2.24,5.82,11.81,11.81,0,0,1-7,4.5,34.32,34.32,0,0,1-9.31.84c-1.38-.05-3.13-.41-4.25-.35-2,.11-4,1.26-5.68,2.13-2.35,1.2-4.62,2.55-6.95,3.8a27.39,27.39,0,0,1-6.22,2.56,22.67,22.67,0,0,1-7.54.51c-5.5-.49-10.61-2.58-15.84-4.18-7.51-2.29-15.33-4.37-21.92-8.8A24.75,24.75,0,0,1,181,73.85,25.64,25.64,0,0,1,178.09,60.63Z"/></g><g id="Group_750" data-name="Group 750"><path id="Path_1259" data-name="Path 1259" class="cls-14" d="M152.61,142.45c.16-5,4-9.75,9.16-10.28a18.41,18.41,0,0,1,6.7.83,56.86,56.86,0,0,1,8.09,3c6.12,2.75,12,6.06,17.83,9.33,4.93,2.75,9.88,5.73,15.16,7.77,3.58,1.39,7.73,1.62,11.57,2a80.47,80.47,0,0,0,16.15.42c3.37-.32,8.71-1,10.29-4.57.8-1.81.29-3.88-.47-5.6-1-2.34-2.79-4.25-3.8-6.62a6,6,0,0,1-.65-3.52,2.78,2.78,0,0,1,2.64-2.05c2.83-.23,4.55,1.62,6,3.68a28.66,28.66,0,0,1,2.6,4.25c1.57,3.21,2.49,7,1.22,10.45-1.85,5-7.48,7.5-12.27,8.84a52.76,52.76,0,0,1-22.22,1.29c-13.91-2.11-26.82-8.43-39.21-14.8-4.69-2.41-9.34-5-14.24-7a17.27,17.27,0,0,0-4.71-1.36,2.32,2.32,0,0,0-2.25.71,3.16,3.16,0,0,0-.43,1.25,8.43,8.43,0,0,0,.06,2.24,18.44,18.44,0,0,0,4,9.39,39.34,39.34,0,0,0,4.72,4.23c1,.88,1.92,2.1.77,3.3-3.23,3.36-8.11-.14-10.54-2.68C155.22,153.24,152.44,147.79,152.61,142.45Z"/></g><g id="Group_751" data-name="Group 751"><path id="Path_1260" data-name="Path 1260" class="cls-13" d="M182.33,60.47a24.5,24.5,0,0,1,3.76-10.17c1.69-2.54,4.09-4.91,7.14-5.64a8.26,8.26,0,0,1,2-.22c4.82-1.12,10.78-1,15.12,1.57,3.68,2.17,5.32,5.91,5.69,10,.4,4.42.28,9.15-1.51,13.28a13.7,13.7,0,0,1-8.07,7.57A21.57,21.57,0,0,1,199.64,78a30.14,30.14,0,0,1-8-.79,12.07,12.07,0,0,1-8-6.37A18.25,18.25,0,0,1,182.33,60.47Z"/></g><g id="Group_752" data-name="Group 752"><path id="Path_1261" data-name="Path 1261" class="cls-9" d="M197.64,65a2.37,2.37,0,0,1,2.84.1,2.18,2.18,0,0,1,2.67-.17,3.87,3.87,0,0,1,2,3.43,2.57,2.57,0,0,1-2.51,2.5,2.38,2.38,0,0,1-1.94-1.8c-.29.92-.77,1.68-1.6,1.78a3,3,0,0,1-2.91-2.16A3.62,3.62,0,0,1,197.64,65Z"/></g><g id="Group_753" data-name="Group 753"><path id="Path_1262" data-name="Path 1262" class="cls-8" d="M206,58.24a2.18,2.18,0,0,1,.26-.71c.2-.32.4-.33.5-.31.37.07.42.69.31,1.23a2.19,2.19,0,0,1-.26.71c-.16.26-.33.32-.43.32h-.06c-.1,0-.28-.11-.34-.47A2.18,2.18,0,0,1,206,58.24Z"/></g><g id="Group_754" data-name="Group 754"><path id="Path_1263" data-name="Path 1263" class="cls-8" d="M192.61,57.87c.1,0,.3,0,.45.38a2.42,2.42,0,0,1,.07,1.49c-.12.35-.31.41-.41.42h0c-.11,0-.29-.05-.43-.38a2.18,2.18,0,0,1-.15-.74C192.09,58.49,192.23,57.89,192.61,57.87Z"/></g><g id="Group_755" data-name="Group 755"><path id="Path_1264" data-name="Path 1264" class="cls-9" d="M195.94,44.65c1.19-.26,2.4-.47,3.61-.62a17.93,17.93,0,0,1,2.62-.18,3.17,3.17,0,0,1,1.63.33.09.09,0,0,1,.06,0h0q-.2,4.6-.47,9.21c-.14,2.43-.3,4.85-.5,7.28-.14,1.77-.27,3.56-.59,5.3-.06.31-.09,1-.48,1.08a11.15,11.15,0,0,1-1.43,0h-1.34c-.05,0-.17,0-.18-.08l-1-7.53-1.63-12-.38-2.77S195.92,44.65,195.94,44.65Z"/></g><g id="Group_756" data-name="Group 756"><path id="Path_1265" data-name="Path 1265" class="cls-8" d="M198,62.36h4.44c.11,0,.28,0,.27.1q-.07.92-.18,1.84a11.51,11.51,0,0,1-.41,2.54c-.06.18-.1.24-.28.27a6.56,6.56,0,0,1-1,0h-2.1c-.06,0-.21,0-.22-.1l-.69-4.59C197.89,62.36,198,62.36,198,62.36Z"/></g><g id="Group_757" data-name="Group 757"><path id="Path_1266" data-name="Path 1266" class="cls-12" d="M196.62,71a2,2,0,0,0,2.1.16,3.12,3.12,0,0,0,1.13-1.42,7.34,7.34,0,0,0,.61-2.39c0-.21.7-.14.73.07.18,1.32.64,3.58,2.27,3.88A2.38,2.38,0,0,0,205,71c.17-.1.85.07.62.21a3.54,3.54,0,0,1-2.36.38,3.26,3.26,0,0,1-2.38-2.44,6,6,0,0,1-.53,1.21c-.94,1.6-2.71,1.63-4.23.83C195.75,71,196.45,70.92,196.62,71Z"/></g><g id="Group_766" data-name="Group 766"><g id="Group_758" data-name="Group 758"><path id="Path_1267" data-name="Path 1267" class="cls-12" d="M202.07,67.48a.23.23,0,1,1-.23.23.23.23,0,0,1,.23-.23Z"/></g><g id="Group_759" data-name="Group 759"><path id="Path_1268" data-name="Path 1268" class="cls-12" d="M198.14,66.48a.23.23,0,1,1,.23.23.23.23,0,0,1-.23-.23Z"/></g><g id="Group_760" data-name="Group 760"><path id="Path_1269" data-name="Path 1269" class="cls-12" d="M199.3,67.48a.23.23,0,1,1-.23.23.23.23,0,0,1,.23-.23Z"/></g><g id="Group_761" data-name="Group 761"><path id="Path_1270" data-name="Path 1270" class="cls-12" d="M198.3,67.41a.23.23,0,1,1-.23-.23.23.23,0,0,1,.23.23Z"/></g><g id="Group_762" data-name="Group 762"><path id="Path_1271" data-name="Path 1271" class="cls-12" d="M198.07,68.1a.23.23,0,1,1-.23.23.23.23,0,0,1,.23-.23Z"/></g><g id="Group_763" data-name="Group 763"><path id="Path_1272" data-name="Path 1272" class="cls-12" d="M202.69,66.25a.23.23,0,1,1-.23.23.23.23,0,0,1,.23-.23Z"/></g><g id="Group_764" data-name="Group 764"><path id="Path_1273" data-name="Path 1273" class="cls-12" d="M203.61,67.17a.23.23,0,1,1-.23.23.23.23,0,0,1,.23-.23Z"/></g><g id="Group_765" data-name="Group 765"><path id="Path_1274" data-name="Path 1274" class="cls-12" d="M203,68.1a.23.23,0,1,1-.23.23.23.23,0,0,1,.23-.23Z"/></g></g><g id="Group_767" data-name="Group 767"><path id="Path_1275" data-name="Path 1275" class="cls-13" d="M207.47,40.7a20.13,20.13,0,0,1,1-2.18c.42-.79,1-2,1.89-2.29,1.19-.41,1.8.73,2.15,1.64a11.41,11.41,0,0,1,1,4,.2.2,0,0,1-.06.15c0,.07-.11.11-.29.1a1.09,1.09,0,0,1-.38-.07l-4.66-.87C207.94,41.11,207.37,41,207.47,40.7Z"/></g><g id="Group_768" data-name="Group 768"><path id="Path_1276" data-name="Path 1276" class="cls-13" d="M187.75,43.16a.11.11,0,0,1,0,0,11.44,11.44,0,0,1,.84-3.64c.39-1,.87-2.28,2.2-1.67,1.57.71,2.39,3.13,3,4.62,0,.13-.12.23-.21.25l-4.93.92c-.31.09-.86-.09-.86-.37C187.75,43.22,187.75,43.19,187.75,43.16Z"/></g><g id="Group_769" data-name="Group 769"><path id="Path_1277" data-name="Path 1277" class="cls-15" d="M208.62,61.78c1.53,0,2.77.21,2.77.46s-1.24.46-2.77.46-2.77-.21-2.77-.46S207.08,61.78,208.62,61.78Z"/></g><g id="Group_770" data-name="Group 770"><ellipse id="Ellipse_94" data-name="Ellipse 94" class="cls-15" cx="190.44" cy="62.86" rx="2.77" ry="0.46"/></g><g id="Group_771" data-name="Group 771"><path id="Path_1278" data-name="Path 1278" class="cls-16" d="M209.28,41.44c.36-.82.64-1.67,1-2.47.15-.3.48-.48.73-.16a3.89,3.89,0,0,1,.4,1.69c.06.45.1.9.14,1.35,0,.06-.16.08-.27,0l-1.9-.35S209.25,41.51,209.28,41.44Z"/></g><g id="Group_772" data-name="Group 772"><path id="Path_1279" data-name="Path 1279" class="cls-16" d="M189.52,41.23c.14-.41.37-1,.92-.72s.67.93.83,1.35.29.8.41,1.2c0,0,0,0-.08.06h0l-2.05.6c-.06,0-.26,0-.28-.06A5.14,5.14,0,0,1,189.52,41.23Z"/></g></g></g><g id="Group_775" data-name="Group 775"><path id="Path_1280" data-name="Path 1280" class="cls-4" d="M171.64,171.75c6.81-1,8.49-6.63,7.94-12.51a60.56,60.56,0,0,0-8.63-24.95c-5.25-8.52-10.75-17.09-18.13-23.95-3.66-3.4-7.42-6.44-10.87-10-1.53-1.59-4-2.5-6-3.45-1-.47-2.21-1.54-3.28-1.73-1.24-.22-1.06.78-1,1.85,0,2.66,0,5.32,0,8,.08,3.89,1.28,7.64,2.06,11.41,1.76,8.53,4.85,17.44,7.9,25.6a62,62,0,0,0,6.21,12.52c3,4.58,5.71,9.23,10.27,12.37,1.23.85,2.46,1.53,3.66,2.42.94.7,2,.93,3,1.58C166.66,172.11,169.46,172.07,171.64,171.75Z"/><path id="Path_1281" data-name="Path 1281" class="cls-17" d="M166.85,158.66l-.08,0-.08,0c-.12,0-12.29-4.07-19.34-12a.29.29,0,1,1,.41-.41l0,0c6.24,7,16.56,10.92,18.69,11.68-3.26-5.41-6.51-11-9.61-16.54-1.11-.26-9.73-2.39-14.59-7.62a.29.29,0,0,1,.42-.39c4.29,4.62,11.61,6.77,13.78,7.32-2.71-4.82-5.29-9.52-7.65-13.87-.8-.2-5.29-1.53-10.16-6.64a.29.29,0,1,1,.41-.4h0a23.79,23.79,0,0,0,9.36,6.31c-6.89-12.74-11.74-22.29-11.83-22.48a.29.29,0,0,1,.51-.26c.1.2,5,9.77,11.86,22.53,2.71-7.11-.28-14.39-.32-14.47a.29.29,0,0,1,.53-.23c0,.08,3.25,7.89.15,15.35,2.37,4.37,5,9.1,7.69,13.94,4-8.58,1.67-18.75,1.64-18.86a.29.29,0,0,1,.56-.13c0,.11,2.43,10.76-1.86,19.6,3.1,5.49,6.35,11.12,9.6,16.53.83-2.07,1.8-11.13,2.31-19.69a.29.29,0,1,1,.57,0s-.31,5.05-.8,10c-.71,7.16-1.31,9.43-1.74,10.19,2.53,4.19,5.05,8.25,7.5,12a.29.29,0,0,1-.08.4h0a.29.29,0,0,1-.4-.08h0c-2.43-3.72-4.94-7.75-7.46-11.91Z"/></g><g id="Group_776" data-name="Group 776"><path id="Path_1282" data-name="Path 1282" class="cls-3" d="M164.22,191c5.12,6,11.57,5.3,16.87,2.37A51.32,51.32,0,0,0,199.74,175c5-8.45,9.81-17.17,11.86-27,1-4.85,1.63-9.66,3-14.39.59-2.1-.06-4.81-.35-7.05-.14-1.1.13-2.72-.35-3.81-.55-1.26-1.4-.68-2.41-.23-2.52,1.13-5.12,2.15-7.63,3.29-3.68,1.67-6.55,4.35-9.69,6.63-7.1,5.16-13.76,11.75-19.72,18a50.76,50.76,0,0,0-8.21,11c-2.55,4.73-5.35,9.18-5.57,14.78-.06,1.51,0,3-.08,4.45-.09,1.18.37,2.32.34,3.5C160.83,186.46,162.59,189.09,164.22,191Z"/><path id="Path_1283" data-name="Path 1283" class="cls-18" d="M173.85,181.11l-.07-.07,0-.09c0-.13-3.63-13.28-.36-23.19a.29.29,0,0,1,.39-.15h0a.34.34,0,0,1,.23.39c-2.89,8.77-.33,20.13.25,22.46,3.2-5.3,6.6-10.68,10-15.87-.43-1.15-3.67-10.17-1.64-16.91a.29.29,0,0,1,.38-.16h0a.34.34,0,0,1,.23.39c-1.8,6,.63,13.75,1.43,16,3-4.54,5.88-8.91,8.61-12.92a21.14,21.14,0,0,1,.13-12.33.29.29,0,0,1,.37-.17h0a.34.34,0,0,1,.24.39,21.65,21.65,0,0,0-.32,11.43c8-11.74,14.19-20.24,14.32-20.41a.33.33,0,0,1,.45,0,.3.3,0,0,1,.12.41h0c-.13.17-6.33,8.69-14.34,20.45A20.65,20.65,0,0,0,208,144.54a.34.34,0,0,1,.45,0,.29.29,0,0,1,.1.4v0a21.24,21.24,0,0,1-14.64,6.44c-2.74,4-5.68,8.43-8.66,13,10.66.21,19-6.13,19.1-6.19a.36.36,0,0,1,.46.06.27.27,0,0,1,0,.38l0,0c-.09.07-8.84,6.71-19.94,6.3-3.37,5.18-6.77,10.56-10,15.86,2.5-.06,11.78-2.87,20.31-5.9a.39.39,0,0,1,.44.18.25.25,0,0,1-.07.35l-.06,0s-5,1.78-10.12,3.37c-7.3,2.27-9.85,2.64-10.84,2.54-2.47,4.11-4.81,8.16-6.9,12a.31.31,0,0,1-.43.09h0a.31.31,0,0,1-.16-.41c2.08-3.83,4.4-7.85,6.85-11.94Z"/></g></g></g></g></g></svg>