<svg xmlns="http://www.w3.org/2000/svg" xmlns:xlink="http://www.w3.org/1999/xlink" width="47" height="44" viewBox="0 0 47 44">
  <defs>
    <clipPath id="clip-Artboard_23">
      <rect width="47" height="44"/>
    </clipPath>
  </defs>
  <g id="Artboard_23" data-name="Artboard – 23" clip-path="url(#clip-Artboard_23)">
    <rect width="47" height="44" fill="#fff"/>
    <g id="Group_898" data-name="Group 898" transform="translate(-135.147 -264)">
      <ellipse id="Ellipse_85" data-name="Ellipse 85" cx="19.353" cy="19.353" rx="19.353" ry="19.353" transform="translate(139.293 266.647)" fill="#9ece0c"/>
      <path id="Icon_ionic-ios-arrow-round-back" data-name="Icon ionic-ios-arrow-round-back" d="M15.216,11.51a.919.919,0,0,1,.007,1.294l-4.268,4.282H27.218a.914.914,0,0,1,0,1.828H10.955L15.23,23.2a.925.925,0,0,1-.007,1.294.91.91,0,0,1-1.287-.007L8.142,18.647h0a1.026,1.026,0,0,1-.19-.288.872.872,0,0,1-.07-.352.916.916,0,0,1,.26-.64l5.794-5.836A.9.9,0,0,1,15.216,11.51Z" transform="translate(140.643 267.998)" fill="#fff"/>
    </g>
  </g>
</svg>
