<svg id="圖層_1" data-name="圖層 1" xmlns="http://www.w3.org/2000/svg" xmlns:xlink="http://www.w3.org/1999/xlink" viewBox="0 0 134 143"><defs><style>.cls-1{fill:none;}.cls-2{clip-path:url(#clip-path);}.cls-3{clip-path:url(#clip-path-2);}.cls-4{fill:#559972;}.cls-5{fill:#9fc54d;}.cls-6{fill:#043a2c;}.cls-7{fill:#447762;}</style><clipPath id="clip-path"><rect class="cls-1" width="134" height="143"/></clipPath><clipPath id="clip-path-2"><rect class="cls-1" y="-21.23" width="159" height="164"/></clipPath></defs><title>artboard – 19</title><g class="cls-2"><g id="Artboard_19" data-name="Artboard 19"><g class="cls-3"><g id="Mask_Group_19" data-name="Mask Group 19"><g id="Group_896" data-name="Group 896"><g id="Group_525" data-name="Group 525"><path id="Path_1142" data-name="Path 1142" class="cls-4" d="M-8.93,128.65c3,11.64,13.13,13.5,23.25,11.44,14.6-3,29.95-10.56,41.74-19.73,13.81-10.74,27.67-21.93,38.19-36,5.22-7,9.79-14.12,15.38-20.8,2.48-3,3.59-7.44,4.87-11,.63-1.76,2.27-4.14,2.39-6,.14-2.21-1.55-1.7-3.41-1.47-4.61.57-9.25.94-13.85,1.54-6.74.88-13,3.67-19.45,5.74C65.68,56.94,50.77,64,37.17,70.84A108.32,108.32,0,0,0,16.58,84C9.19,90.12,1.62,95.69-3,104.21c-1.24,2.3-2.19,4.56-3.51,6.82-1,1.77-1.22,3.74-2.17,5.54C-10.49,120.06-9.88,124.92-8.93,128.65Z"/><path id="Path_1143" data-name="Path 1143" class="cls-5" d="M12.93,117.84l-.05-.14,0-.15c0-.22,4.74-22.13,17.17-35.89a.5.5,0,1,1,.74.67C19.83,94.51,15,113.19,14.06,117c8.79-6.68,18-13.41,26.94-19.84.24-2,2.31-17.36,10.48-26.8a.5.5,0,1,1,.76.66h0C45,79.4,42.67,92.53,42.11,96.41c7.86-5.62,15.54-11,22.66-15.93.2-1.43,1.66-9.48,9.61-18.92a.5.5,0,1,1,.77.65C68.54,70,66.51,77,65.94,79.66,86.78,65.27,102.46,55,102.78,54.83a.5.5,0,1,1,.55.84c-.32.21-16,10.47-36.91,24.88,12.87,3.37,25-3.22,25.09-3.29a.5.5,0,0,1,.5.87h0c-.13.07-13.1,7.14-26.66,3.17-7.15,4.95-14.88,10.36-22.78,16,15.66,5.25,32.92-.65,33.09-.72a.5.5,0,0,1,.33.95c-.18.06-18.25,6.25-34.42.49-9,6.43-18.13,13.14-26.91,19.82,3.76,1.06,19.68,1,34.67.29a.5.5,0,0,1,0,1c-.09,0-8.84.42-17.6.51-12.58.13-16.65-.49-18-1.09C6.9,123.75.33,128.91-5.71,133.88a.5.5,0,0,1-.7-.07h0a.5.5,0,0,1,.07-.7h0c6-4.94,12.53-10.06,19.29-15.22Z"/></g><g id="Group_526" data-name="Group 526"><path id="Path_1144" data-name="Path 1144" class="cls-6" d="M-3.81,106c9.35,4.34,16.81.83,21.74-4.57A54,54,0,0,0,31,73.77c1.63-11.21,3-22.65.41-34.07C30.07,33.56,29.91,26.76,27.37,21c-1.14-2.61-4.18-10.19-7.74-9.92-2.43.19-7.38,6.34-9.18,8-3.6,3.36-5.7,7.45-8.34,11.24C-3.83,38.87-8.5,48.77-12.52,58a51.73,51.73,0,0,0-4.26,15.33c-.64,6.18-1.73,12.16.91,18.29.71,1.65,1.58,3.16,2.22,4.83.5,1.31,1.65,2.34,2.23,3.63C-10.3,102.56-6.8,104.66-3.81,106Z"/><path id="Path_1145" data-name="Path 1145" class="cls-7" d="M2.76,91.3l-.12,0-.07-.08C2.45,91.05-8.76,78.4-9.93,66.33c0-.18.17-.33.41-.33a.45.45,0,0,1,.48.33C-8,77,1,88.17,2.94,90.43c1.13-7.06,2.48-14.31,3.88-21.32C5.7,68-2.92,59.7-4,51.57c0-.18.15-.33.4-.33a.46.46,0,0,1,.49.32C-2.15,58.73,4.85,66.12,7,68.24c1.24-6.14,2.52-12.09,3.76-17.57A24,24,0,0,1,4.52,37.33c0-.18.15-.33.4-.34a.47.47,0,0,1,.49.32A24.26,24.26,0,0,0,11,49.77c3.62-16,6.73-27.81,6.8-28.05a.44.44,0,0,1,.52-.23c.24,0,.4.23.36.4S15.46,33.93,11.83,50a24,24,0,0,0,13.4-12.51.46.46,0,0,1,.54-.21c.24.06.38.24.33.41A24.83,24.83,0,0,1,11.64,50.82C10.4,56.33,9.11,62.31,7.86,68.48a41.14,41.14,0,0,0,20-14.74.51.51,0,0,1,.59-.13c.23.09.32.29.22.44a41.86,41.86,0,0,1-21,15.21C6.3,76.27,5,83.51,3.82,90.56c3-1.12,12.83-8.07,21.63-14.94a.57.57,0,0,1,.63,0,.27.27,0,0,1,0,.46c-.05,0-5.2,4-10.56,7.9C7.87,89.52,5,91,3.7,91.31c-.87,5.48-1.61,10.83-2.15,15.87,0,.18-.23.3-.48.27h0c-.25,0-.43-.19-.41-.37.54-5,1.27-10.32,2.13-15.76Z"/></g></g></g></g></g></g></svg>