<?xml version="1.0" encoding="utf-8"?>
<!-- Generator: Adobe Illustrator 21.1.0, SVG Export Plug-In . SVG Version: 6.00 Build 0)  -->
<svg version="1.1" id="圖層_1" xmlns="http://www.w3.org/2000/svg" xmlns:xlink="http://www.w3.org/1999/xlink" x="0px" y="0px"
	 viewBox="0 0 203 302" style="enable-background:new 0 0 203 302;" xml:space="preserve">
<style type="text/css">
	.st0{clip-path:url(#SVGID_2_);}
	.st1{fill:#E5C554;}
	.st2{fill:#2B1C11;}
	.st3{fill:#F2C841;}
	.st4{fill:#1A1B1F;}
</style>
<g>
	<defs>
		<rect id="SVGID_1_" width="203" height="302"/>
	</defs>
	<clipPath id="SVGID_2_">
		<use xlink:href="#SVGID_1_"  style="overflow:visible;"/>
	</clipPath>
	<g id="Artboard_20" class="st0">
		<g id="Group_895" transform="translate(16.098 10.258)">
			<g id="Group_523" transform="translate(0)">
				<g id="Group_474" transform="translate(115.667 5.043)">
					<g id="Group_470" transform="translate(7.317)">
						<g id="Group_469">
							<g id="Group_468">
								<path id="Path_1107" class="st1" d="M1.5,0.4l6.3,11.4c0.4,0.8-1.1,1-1.4,0.3L0.1,0.7C-0.3-0.1,1.2-0.2,1.5,0.4L1.5,0.4z"/>
							</g>
						</g>
					</g>
					<g id="Group_473" transform="translate(0 2.94)">
						<g id="Group_472">
							<g id="Group_471">
								<path id="Path_1108" class="st1" d="M1.5,0.3l6.3,14c0.2,0.4-1.3,0.4-1.5-0.1L0,0.3C-0.2-0.1,1.3-0.1,1.5,0.3L1.5,0.3z"/>
							</g>
						</g>
					</g>
				</g>
				<g id="Group_478" transform="translate(133.383 1.598)">
					<g id="Group_476" transform="translate(0)">
						<g id="Group_475">
							<path id="Path_1109" class="st2" d="M2.4,14.8c0,0,6.6-8.9,2.3-13.4s-5.2,3.8-4.6,7.3c0.3,1.8,0.5,3.6,0.5,5.5L2.4,14.8z"/>
						</g>
					</g>
					<g id="Group_477" transform="translate(0.899 4.376)">
						<path id="Path_1110" class="st1" d="M0,9.9c0.2-0.2,0.4-0.5,0.5-0.7l1-6.4c0-0.9,0-1.7,0-2.6c0-0.2,0.8-0.1,0.8,0.1
							c0,1.5,0,2.9-0.1,4.4c-0.1,1.7-0.2,4-1.4,5.4C0.6,10.2-0.1,10,0,9.9z"/>
					</g>
				</g>
				<g id="Group_479" transform="translate(105.117 17.298)">
					<path id="Path_1111" class="st1" d="M0,3.3C0.3,2,1.2,0.9,2.3,0.3c1.2-0.6,2.6-0.3,3.8,0.1c3.5,1.2,5.9,3.9,9.2,5.6
						c0,0,0,0.1,0,0.1C15.2,6.8,15.1,7.4,15,8c-0.2,0.5-0.5,1-1,1.3c0,0-0.1,0.1-0.1,0.1c-0.2,0.2-0.4,0.4-0.6,0.4
						C11,10.1,8.7,10,6.4,9.6C3.4,9-0.5,6.9,0,3.3z"/>
				</g>
				<g id="Group_480" transform="translate(119.741)">
					<path id="Path_1112" class="st2" d="M2.2,0c1.9-0.1,3.7,1,4.5,2.8c0.8,1.8,0.6,4.5-1.7,4.8C3,7.8,1.1,6.6,0.4,4.8
						C-0.3,3-0.2,0.3,2.2,0z"/>
				</g>
				<g id="Group_481" transform="translate(111.795 3.061)">
					<path id="Path_1113" class="st2" d="M2,0.1c2-0.5,3.9,1.1,4.6,2.8c0.8,1.8,0.7,4.4-1.5,5.1c-2,0.6-3.8-1-4.7-2.7
						c0,0,0-0.1,0-0.1c0,0,0,0,0,0C-0.3,3.3-0.2,0.7,2,0.1z"/>
				</g>
				<g id="Group_486" transform="translate(143.146 203.13)">
					<g id="Group_483" transform="translate(0)">
						<g id="Group_482">
							<path id="Path_1114" class="st1" d="M0.5,5c-0.8-2.3-0.6-4.5,0.6-4.9c3.8-0.3,7.4,1.9,8.8,5.4c3.6,9.2,17.6,53.1,21.8,63.3
								c0.4,1.1,1.1,2.1,1.9,2.9c0.8,0.7,1.5,1.9,0.7,2.9C32.9,76.3,14.4,46.3,0.5,5z"/>
						</g>
					</g>
					<g id="Group_485" transform="translate(21.32 52.349)">
						<g id="Group_484" transform="translate(0)">
							<path id="Path_1115" class="st2" d="M4.8,0L0,2.4c0,0,8.9,18.9,11.6,19.9s1.5-2.9,0.6-3.6c-0.6-0.5-2.2-4.9-3.3-7.4
								C8.4,10.2,8,9,7.6,7.9L4.8,0z"/>
						</g>
					</g>
				</g>
				<g id="Group_491" transform="translate(140.079 218.423)">
					<g id="Group_488" transform="translate(0)">
						<g id="Group_487">
							<path id="Path_1116" class="st1" d="M0.2,5.8c-0.6-1.9,0.7-3.4,1.4-4.4C2.5,0,4.6-2.3,5.8,6C6.9,14.1,23.5,49.7,27,58.2
								c0.4,0.9,0.9,1.7,1.7,2.4c0.7,0.6,1.4,1.5,0.4,2.5C27.5,64.7,11,40.3,0.2,5.8z"/>
						</g>
					</g>
					<g id="Group_490" transform="translate(15.35 41.494)">
						<g id="Group_489">
							<path id="Path_1117" class="st2" d="M4.6,0L0,2c0,0,10,19.4,13.4,19.5c2.3,0.1,1.5-1.8,0.8-2.1s-2.6-4.5-2.6-4.5L4.6,0z"/>
						</g>
					</g>
				</g>
				<g id="Group_492" transform="translate(4.732 187.398)">
					<path id="Path_1118" class="st1" d="M0.8,15.3c0.8-4.8,2.7-9.4,5.6-13.3c0.5-0.6,1-1.2,1.6-1.7c0,0,0.1-0.1,0.1-0.1l0,0
						c0,0,0,0,0,0c0,0,0,0,0,0C8.3,0,8.4,0,8.5,0h0c0.4,0,0.9,0.1,1,0.4C10.3,3.3,11,6.1,11.6,9c0.2,1.2,0.8,2.9,0.6,4.1
						C12,13.7,12,13.6,11.5,14c-0.9,0.6-1.7,1.2-2.5,1.9C3.4,21.5,3.1,31,3.6,38.4c0.1,2.2,0.4,4.3,0.8,6.4c0.1,0.6-1.4,0.4-1.5,0
						C0.4,35.3-1,25.1,0.8,15.3z"/>
				</g>
				<g id="Group_493" transform="translate(5.918 224.029)">
					<path id="Path_1119" class="st2" d="M0.4,0.1c0,0,0.1,0,0.1,0c0.1,0,0.1,0,0.2,0c0.9-0.1,1.6,0.1,1.8,1.1
						C2.8,2.5,2.8,4.1,3,5.6c0.1,1.1,0.3,2.1,0.4,3.2c0.1,0.3,0.3,1,0.2,1.3c-0.1,0.4-1.4,0.2-1.5-0.2c-0.5-1.8-1-3.6-1.3-5.4
						C0.7,3.8-0.6,0.5,0.4,0.1z"/>
				</g>
				<g id="Group_494" transform="translate(6.008 15.08)">
					<path id="Path_1120" class="st3" d="M3.2,174.7c5-11.7,15.3-19.6,27-23.9c9.4-3.5,19.2-4.7,29.1-5.6c9.5-0.8,19-1.7,28.4-3
						c4.1-0.5,8.2-1.2,12.2-2.1c1.5-0.4,3.1-0.9,4.3-1.4c1.8-0.7,3.5-1.6,5.1-2.6c3.5-2,6.1-4.4,7-8.4c0.7-2.8,0.3-5.9,0.3-8.8
						c0-4.6,0-9.3-0.1-13.9c-0.1-19.3-0.3-38.6-0.6-58c-0.1-6.9-0.2-13.8-0.3-20.7c0-1.9,0-3.9-0.1-5.9c-0.2-4-6.1-7.3-4.2-11.8
						c0.6-1.1,1.5-2,2.5-2.7c1.1-0.9,2.2-1.8,3.4-2.6c1.8-1.3,3.8-2.3,5.9-3c3.8-0.9,7.8,0.2,10.5,2.9c6.1,5.6,11.5,12.2,17.8,17.6
						c2.9,2.5,2.9,6.3-0.6,8.4c-2.4,1.4-5.8,1-8.4,0.4c-5.4-1.3-10.6-4-15.3-6.9c-0.3-0.2-0.5-0.3-0.8-0.5c-0.1-0.1-0.2-0.1-0.2-0.1
						c0,0,0,0,0,0.1c-0.5,0.4-0.9,1-1.1,1.7c-0.3,1.5-0.4,3-0.3,4.5c0.1,2.1,0.3,4.2,0.4,6.3c0.8,10.1,1.6,20.2,2.7,30.3
						c1.5,15.5,3.3,31,5.4,46.4c2.4,17.9,5.2,35.7,8.6,53.4c3.2,17.2,7.3,34.3,12.3,51.1c2.2,7.3,4.7,14.4,7.5,21.5
						c0,0,0,0.1,0.1,0.1c0.1,2.1-3,3.5-4.6,2.3c-1.2-1-1.9-3.2-2.5-4.5c-2.5-5.8-4.5-11.8-6.6-17.7c-0.8-2.4-1.6-4.7-2.4-7.1
						c-0.2-0.6-0.4-1.2-0.6-1.7c-0.1-0.3-0.2-0.6-0.3-0.8c-0.2-0.4-0.4-0.8-0.7-1.1c-0.3,0.2-0.6,0.4-0.9,0.7
						c-2.6,2.4-4.1,6.3-6,9.2c-2.2,3.5-4.9,6.6-7.8,9.5c-3.2,3.1-7,5.5-11.1,7.1c-4,1.5-8.3,1.8-12.6,2.1
						c-5.1,0.4-10.1,0.3-15.2,0.7c-6.4,0.5-12.7,2.3-18.9,4.2c-8.6,2.6-17.1,6.4-26.3,5.8c-13.9-1-24.5-10.7-32-21.8
						c-3.3-5-6.2-10.3-8.6-15.7c-1.5-3.1-2.8-6.4-3.8-9.7C-1,190.9,0.1,182.1,3.2,174.7z M159.8,239.5L159.8,239.5
						C159.8,239.5,159.8,239.5,159.8,239.5L159.8,239.5z"/>
				</g>
				<g id="Group_499" transform="translate(15.957 236.945)">
					<g id="Group_496" transform="translate(0.286)">
						<g id="Group_495">
							<path id="Path_1121" class="st1" d="M36.7,1c1.4-1.5,3.3-1,4.6-0.9c1.6,0.2,4.6,0.9-2.1,5.9C32.6,11,9.2,42.6,3.5,49.7
								c-0.6,0.8-1.1,1.6-1.3,2.6c-0.2,0.9-0.6,1.9-2,1.6C-1.9,53.3,11.6,27.1,36.7,1z"/>
						</g>
					</g>
					<g id="Group_498" transform="translate(0 32.399)">
						<g id="Group_497">
							<path id="Path_1122" class="st2" d="M15.1,3.2L11,0C11,0-1,18.7,0.1,20.8s2.7,0.8,2.6,0s2.7-4.5,2.7-4.5L15.1,3.2z"/>
						</g>
					</g>
				</g>
				<g id="Group_504" transform="translate(0 235.575)">
					<g id="Group_501" transform="translate(0.246)">
						<g id="Group_500">
							<path id="Path_1123" class="st1" d="M36.7,1c1.4-1.5,3.3-1,4.6-0.9c1.6,0.2,4.6,0.9-2.1,5.9C32.6,11,9.2,42.6,3.5,49.7
								c-0.6,0.8-1.1,1.6-1.3,2.6c-0.2,0.9-0.6,1.9-2,1.6C-1.9,53.3,11.6,27.1,36.7,1z"/>
						</g>
					</g>
					<g id="Group_503" transform="translate(0 32.03)">
						<g id="Group_502">
							<path id="Path_1124" class="st2" d="M15,3.5L10.9,0C10.9,0-1,19.4,0.1,21.5c0.2,0.7,0.9,1.1,1.6,0.9c0.6-0.2,1-0.7,1-1.2
								c-0.1-0.7,2.7-4.5,2.7-4.5L15,3.5z"/>
						</g>
					</g>
				</g>
				<g id="Group_505" transform="translate(139.57 29.978)">
					<path id="Path_1125" class="st2" d="M0.4,10.9L11.3,0.5c0.1-0.1,0.2-0.2,0.3-0.2C12,0,12.5-0.1,12.9,0.1
						c2.6,1.5,4.9,3.6,6.5,6.1c1.8,2.8,0.9,6.6-1.9,8.4c-0.4,0.2-0.7,0.4-1.1,0.6c-5.1,2.1-11.1-0.9-15.9-2.6
						c-0.5-0.2-0.7-0.7-0.5-1.2C0.1,11.2,0.2,11,0.4,10.9z"/>
				</g>
				<g id="Group_508" transform="translate(129.172 23.15)">
					<g id="Group_506" transform="translate(7.816)">
						<path id="Path_1126" class="st4" d="M0.2,0.1C0.4,0,0.7,0,1,0.1c0.3,0.1,0.5,0.3,0.7,0.6c0.5,0.6,0.6,1.2,0.2,1.5
							C1.8,2.2,1.7,2.3,1.6,2.3C1.1,2.3,0.7,2,0.4,1.6C0.2,1.4,0.1,1.1,0,0.8C-0.1,0.6,0,0.3,0.2,0.1z"/>
					</g>
					<g id="Group_507" transform="translate(0 5.038)">
						<path id="Path_1127" class="st4" d="M0.2,0.1C0.4,0,0.7,0,1,0.1c0.3,0.1,0.5,0.3,0.7,0.6c0.5,0.6,0.6,1.2,0.2,1.5
							C1.8,2.2,1.7,2.3,1.6,2.3C1.1,2.3,0.7,2,0.4,1.6C0.2,1.4,0.1,1.1,0,0.8C-0.1,0.6,0,0.3,0.2,0.1z"/>
					</g>
				</g>
				<g id="Group_509" transform="translate(121.838 33.441)">
					<path id="Path_1128" class="st2" d="M0.3,20.8C0.2,15.8,0.3,10.7,0.1,5.7C-0.1,4.3,0,2.9,0.3,1.5c0.3-0.8,0.9-2.1,1.6-1.2
						c0.7,1,0.8,2.9,1,4.1c0.4,2.2,0.8,4.3,1.2,6.5c0.4,2.2,0.7,4.4,1.1,6.6c0.4,1.8,0.6,3.5,0.6,5.3c-0.2,1.6-1.3,4.1-3.2,4.1
						C-0.3,26.9,0.3,22.7,0.3,20.8z"/>
				</g>
				<g id="Group_510" transform="translate(127.751 78.208)">
					<path id="Path_1129" class="st2" d="M1.7,11.4c-0.4-2.4-1.3-4.6-1.6-7c-0.4-1.9,0.8-3.9,2.7-4.3c0.1,0,0.1,0,0.2,0
						c1.7-0.5,3.4,0.6,3.9,2.2c0,0.1,0.1,0.2,0.1,0.4c0.3,2.5,0.5,5,0.8,7.5C8,12.7,8.5,15.4,8.6,18c0.1,4.1-6.3,5.2-7.1,1
						C1,16.5,2.1,13.9,1.7,11.4z"/>
				</g>
				<g id="Group_511" transform="translate(122.646 110.372)">
					<path id="Path_1130" class="st2" d="M0.1,19.5c0-4.8-0.1-9.7-0.1-14.5C0,3.2-0.4,0.5,2,0C3.6-0.3,4.6,2,5.2,3.1
						c1.2,2.4,2.2,5,2.9,7.6c0.2,0.9,0.4,1.9,0.5,2.8c0.1,1.5,0.6,2.9,1.3,4.2c1.2,2.4,3.3,5.1,3.3,7.9c0,2.7-2.7,4.1-5.1,4.6
						c-3.7,0.7-6.6-1.6-7.6-5.1C0.2,23.3,0,21.4,0.1,19.5z"/>
				</g>
				<g id="Group_512" transform="translate(125.033 157.379)">
					<path id="Path_1131" class="st2" d="M2.2,13.9C3.7,9,4,2.8,9.4,0.6c4.7-1.9,10.1,0.4,11.2,5.5c1.2,6.3,2.4,12.5,3.5,18.8
						c0.6,3.3,1.2,6.6,1.9,9.9c0.3,1.8,1.1,3.6,1.4,5.4c0.4,2.4-0.3,5.1-2.9,6c-1.7,0.4-3.4,0.2-4.9-0.5c-3.4-1.3-6.6-3.1-9.5-5.2
						c-4.5-3.1-8.8-7.3-9.8-13C-0.6,22.9,0.9,18.3,2.2,13.9z"/>
				</g>
				<g id="Group_513" transform="translate(79.859 180.01)">
					<path id="Path_1132" class="st2" d="M0.1,17.6c-0.6-7,2.8-13.7,9.4-16.6C14.7-1,23.5-0.4,26,5.6c1.3,3.2,0.4,6.8-0.7,9.9
						c-1.1,3.1-2.5,6-4.2,8.8c-2.5,3.9-6.6,9.3-11.9,8.6c-2.3-0.4-4.2-1.8-5.4-3.8C1.6,25.6,0.4,21.7,0.1,17.6z"/>
				</g>
				<g id="Group_514" transform="translate(11.186 168.051)">
					<path id="Path_1133" class="st2" d="M0.1,24.4C-0.2,21,0,16.7,2.2,14.1c2.5-3,5.2-5.8,8.1-8.5C12.9,3.3,16.4,0,20.2,0
						c0.5,0,1.1,0.1,1.6,0.3c4.5,1.3,10.5,4.9,7.9,10.3c-1.5,3.2-4.5,5.7-7.2,7.8c-2.1,1.6-2.7,4.3-3.5,6.8c-1.1,3.7-2,8.6-6.1,10.3
						C10.3,36.6,7,35.7,4.8,34C1.8,31.8,0.4,28,0.1,24.4z"/>
				</g>
				<g id="Group_515" transform="translate(130.135 213.741)">
					<path id="Path_1134" class="st2" d="M0.1,23.6c0.4-1.5,2.1-2.4,3.1-3.4c1.2-1,2.1-2.3,2.7-3.8c0.5-1.9-0.2-3.9-0.1-5.8
						C6.2,7.4,7.6,4.3,9.9,2c1.2-1.3,3.2-2.3,5.1-1.9c1.6,0.4,2.3,2.2,2.9,3.5c0.6,1.6,1.1,3.3,1.6,4.9c0.5,1.7-0.6,3.8-1.4,5.2
						c-1.2,2.1-2.7,4.1-4.5,5.8l-4.2,4.2c-1.3,1.3-2.5,2.8-4.4,3.3C2.7,27.6-0.7,26.5,0.1,23.6z"/>
				</g>
				<g id="Group_516" transform="translate(96.826 218.786)">
					<path id="Path_1135" class="st2" d="M0,6.1c0-3.5,5.7-5.2,8.4-5.9c0,0,0,0,0,0c0,0,0.1,0,0.1,0C10.4-0.3,12.4,0,14.1,1
						c1.2,0.9,1.7,2.4,1.4,3.9c-0.4,3.1-1.5,6-3.3,8.5c-0.9,1.3-2,2.6-3.7,2.6c-1.2,0.1-2.3-0.6-2.8-1.7c-0.4-0.9-0.3-1.9-0.7-2.9
						c-0.5-1-1.4-1.8-2.4-2.2C1.4,8.5,0,7.8,0,6.1z"/>
				</g>
				<g id="Group_517" transform="translate(83.628 155.174)">
					<path id="Path_1136" class="st2" d="M0.7,3.9c0.8-1.1,2.2-1.2,3.5-1.4l5.8-0.9L21,0.1C21.1,0,21.3,0,21.4,0
						c0.2,0,0.4,0,0.6,0.1c3.7,0.7,1.5,6-0.5,7.5c-2.2,1.7-5.1,2.3-7.7,2.6C10.6,10.7,7.1,10.9,4,10C1.5,9.3-1.3,6.7,0.7,3.9z"/>
				</g>
				<g id="Group_518" transform="translate(51.649 159.897)">
					<path id="Path_1137" class="st2" d="M3.9,1.3c2.2-1,4.7-1,7-1.3c0,0,0.1,0,0.1,0c2.9-0.1,5.5,2.2,7.3,4.3
						c2.5,2.6,3.8,6.1,3.8,9.6c-0.1,3.7-1.5,7.3-3.8,10.2c-0.8,1-2.7,2.5-4.1,2.1c-1.4-0.4-2-2.5-2.4-3.6c-0.8-2.1-1.4-4.3-2.4-6.3
						c-0.8-1.8-1.8-3.9-3.7-4.9c-1-0.5-2.1-0.4-3.1-0.8C1.5,10,0.5,8.9,0.2,7.6C-0.6,4.7,1.4,2.4,3.9,1.3z"/>
				</g>
				<g id="Group_519" transform="translate(44.05 203.806)">
					<path id="Path_1138" class="st2" d="M2.8,3.9c0-0.1,0.1-0.2,0.2-0.2C3,3.6,3.1,3.5,3.2,3.5C5.6,1.9,8.5,0.2,11.4,0
						c6.2-0.4,3.3,7.2,4.2,10.7c0.5,1.9,2,3.5,2.5,5.4c0.6,2.3-1.1,4.4-2.6,5.9c-3.5,3.6-8.7,1.7-11.7-1.5
						C-0.7,15.9-1.4,8.9,2.8,3.9z"/>
				</g>
				<g id="Group_520" transform="translate(8.663 213.023)">
					<path id="Path_1139" class="st2" d="M0.1,4.1c0.4-1.6,1.6-3.5,3.3-4c4-1.1,6.4,4.7,7.4,7.5c1.5,4.2,2,8.7,3.2,13
						c0,0.1,0,0.2,0,0.3c0.2,1.8-0.9,2.8-2.7,3c-1.7,0.1-2.5-1.6-3.5-2.8C5,17.4,2.7,13.4,1,9.1C0.4,7.5-0.3,5.8,0.1,4.1z"/>
				</g>
				<g id="Group_521" transform="translate(70.317 239.275)">
					<path id="Path_1140" class="st2" d="M1.7,11.1C5,6.8,9.2,3.4,14.1,1.1c3.7-1.6,7.6-1.6,10.4,1.6c1.3,1.5,2.2,3.3,2.7,5.2
						c0.6,2.5-1.6,4.1-3.8,4.6c-0.1,0-0.2,0-0.4,0.1c-2.8,0.5-5.6,1.2-8.3,2c-2.8,0.8-5.6,1.4-8.4,2.2c-1.9,0.6-4.2,1.5-5.7-0.4
						C-0.8,14.4,0.6,12.6,1.7,11.1z"/>
				</g>
				<g id="Group_522" transform="translate(33.965 233.477)">
					<path id="Path_1141" class="st2" d="M0,19.2c0.1-1.2,0.4-2.5,0.8-3.7c0.4-1.7,0.9-3.5,1.5-5.2c1-3,2.2-6.5,4.4-8.9
						c2.5-2.8,6.8-1.4,8.9,1.2C16.7,4,16,6.1,15.7,7.6c-0.7,2.5-1.2,5-1.4,7.6c-0.1,1.6,0.3,3.1,1.1,4.5c0.8,1.3,1.9,2.5,2.1,4.2
						c0.3,2.6-2,3.4-4.2,3.1c-0.1,0-0.2,0-0.3-0.1c-3-0.7-5.9-1.8-8.6-3.2C2.7,22.8,0,21.5,0,19.2z"/>
				</g>
			</g>
		</g>
	</g>
</g>
</svg>
