<svg id="圖層_1" data-name="圖層 1" xmlns="http://www.w3.org/2000/svg" xmlns:xlink="http://www.w3.org/1999/xlink" viewBox="0 0 47 49"><defs><style>.cls-1{fill:none;}.cls-2{clip-path:url(#clip-path);}.cls-3{fill:#0fa36c;}.cls-4{fill:#fff;}</style><clipPath id="clip-path"><rect class="cls-1" width="47" height="49"/></clipPath></defs><title>artboard – 27</title><g class="cls-2"><g id="artboard_27" data-name="artboard 27"><g id="Group_901" data-name="Group 901"><circle id="Ellipse_85" data-name="Ellipse 85" class="cls-3" cx="23.5" cy="24.35" r="19.35"/><path id="Icon_ionic-ios-arrow-round-back" data-name="Icon ionic-ios-arrow-round-back" class="cls-4" d="M26.29,17.86a.92.92,0,0,0,0,1.29l4.27,4.28H14.29a.91.91,0,0,0,0,1.83H30.55l-4.27,4.29a.93.93,0,0,0,0,1.29.91.91,0,0,0,1.29,0h0L33.36,25h0a1,1,0,0,0,.19-.29.87.87,0,0,0,.07-.35.92.92,0,0,0-.26-.64l-5.79-5.84a.9.9,0,0,0-1.27,0Z"/></g></g></g></svg>