<svg id="圖層_1" data-name="圖層 1" xmlns="http://www.w3.org/2000/svg" xmlns:xlink="http://www.w3.org/1999/xlink" viewBox="0 0 48 49"><defs><style>.cls-1{fill:none;}.cls-2{clip-path:url(#clip-path);}.cls-3{fill:#0fa36c;}.cls-4{fill:#fff;}</style><clipPath id="clip-path"><rect class="cls-1" width="48" height="49"/></clipPath></defs><title>artboard – 26</title><g class="cls-2"><g id="artboard_26" data-name="artboard 26"><g id="Group_900" data-name="Group 900"><circle id="Ellipse_85" data-name="Ellipse 85" class="cls-3" cx="24" cy="24.35" r="19.35"/><path id="Icon_ionic-ios-arrow-round-back" data-name="Icon ionic-ios-arrow-round-back" class="cls-4" d="M21.21,17.86a.92.92,0,0,1,0,1.29L17,23.44H33.21a.91.91,0,0,1,0,1.83H17l4.27,4.29a.92.92,0,0,1,0,1.29.91.91,0,0,1-1.29,0h0L14.14,25h0a1,1,0,0,1-.19-.29.87.87,0,0,1-.07-.35.92.92,0,0,1,.26-.64l5.79-5.84a.9.9,0,0,1,1.27,0Z"/></g></g></g></svg>