<svg xmlns="http://www.w3.org/2000/svg" xmlns:xlink="http://www.w3.org/1999/xlink" width="274" height="285" viewBox="0 0 274 285">
  <defs>
    <clipPath id="clip-path">
      <rect id="Rectangle_1422" data-name="Rectangle 1422" width="418" height="431" transform="translate(782 1552)" fill="#fff" stroke="#707070" stroke-width="1"/>
    </clipPath>
    <clipPath id="clip-Artboard_14">
      <rect width="274" height="285"/>
    </clipPath>
  </defs>
  <g id="Artboard_14" data-name="Artboard – 14" clip-path="url(#clip-Artboard_14)">
    <rect width="274" height="285" fill="#fff"/>
    <g id="Mask_Group_18" data-name="Mask Group 18" transform="translate(-924 -1694)" clip-path="url(#clip-path)">
      <g id="Group_879" data-name="Group 879" transform="translate(876.26 1776.416) rotate(-13)">
        <path id="Path_1323" data-name="Path 1323" d="M258.712,46.238c-15.564,17.015-19.168,41.725-31.259,61.362-17.344,28.174-50.082,42.849-81.987,51.611s-65.431,13.462-94.656,28.972S-3.21,233.923.34,266.819c3.882,35.99,40.3,60.94,76.144,66.02S184.1,322.573,184.1,322.573s27.921-3.882,41.506-.83c36.864,8.284,57.416,46.946,87.921,69.244,29.723,21.73,70.713,27.041,105,13.607s60.75-45.176,67.8-81.315c6.14-31.471-1.352-65.8,12.293-94.818C520.781,181.334,553.8,163,546.02,104.9c-4.326-32.3-16.967-60.962-44.356-79.839C443.06-15.336,306.413-5.908,258.712,46.238Z" fill="#9bbf8b"/>
        <path id="Path_1324" data-name="Path 1324" d="M258.712,46.237c-15.564,17.015-19.168,41.725-31.259,61.362-17.344,28.174-50.082,42.849-81.987,51.614s-65.431,13.462-94.656,28.969S-3.21,233.926.34,266.819c3.882,35.99,40.306,60.944,76.144,66.02s71.885-4.484,107.615-10.267c13.75-2.226,27.921-3.882,41.51-.83,36.864,8.287,57.413,46.95,87.918,69.247,29.726,21.727,70.713,27.041,105,13.607s60.75-45.177,67.8-81.318c6.137-31.468-1.355-65.8,12.293-94.815,22.167-47.13,55.187-65.462,47.4-123.569-4.326-32.3-16.967-60.959-44.353-79.836C443.06-15.336,306.413-5.909,258.712,46.237Z" transform="translate(12.699 41.273)" fill="none" stroke="#fffbe6" stroke-miterlimit="10" stroke-width="1"/>
      </g>
    </g>
  </g>
</svg>
