<svg id="圖層_1" data-name="圖層 1" xmlns="http://www.w3.org/2000/svg" xmlns:xlink="http://www.w3.org/1999/xlink" viewBox="0 0 204 143"><defs><style>.cls-1{fill:none;}.cls-2{clip-path:url(#clip-path);}.cls-3{fill:#043a2c;}.cls-4{fill:#73871e;}.cls-5{fill:#fcd400;}.cls-6{clip-path:url(#clip-path-2);}.cls-7{fill:#fff;}.cls-8{fill:#996d1d;}.cls-9{fill:#e2b705;}.cls-10{clip-path:url(#clip-path-3);}.cls-11{fill:#d3aa00;}.cls-12{fill:#ed9aae;}</style><clipPath id="clip-path"><rect class="cls-1" width="204" height="143"/></clipPath><clipPath id="clip-path-2"><path class="cls-1" d="M193.24,102.27c-4.91-1.22-9.63-1.87-13.85-3a60.88,60.88,0,0,1-27.87-15.71A79.12,79.12,0,0,1,142,71.89c-7.07-10.36-12-22.64-20.61-31.76a14.83,14.83,0,0,1-4.86,4.7,60.9,60.9,0,0,1,5.34,7.06c2.85,4.35,5.07,9.34,7.41,14.22,4.86,10.13,10.54,18.27,18.64,25.17a66.23,66.23,0,0,0,13.63,8.89c7.44,3.7,16.17,7.44,27,7.12,3-.09,7.63-.63,7.75-2.76C196.36,103,195.19,102.76,193.24,102.27Z"/></clipPath><clipPath id="clip-path-3"><path class="cls-1" d="M145.42,96.57a95.82,95.82,0,0,0-5.16-25.11c-.55-1.52-1.15-2.9-1.76-4.3C134.06,56.87,122.33,47.6,113.39,45c-.77-.23-1.55-.5-2.35-.71a65.62,65.62,0,0,0-19.24-1.84c-1.87.11-3.74.28-5.59.37-3.74.19-7.38.66-10.79,1.09,0-.23-38.23,20-39.82,21.72l.09,0c.1,0,.27,0,.32.12A36.12,36.12,0,0,0,34.95,75c0,1.61.14,3.22.26,4.8.38,4.76,1,9,1.6,13.55.43,3,.83,6,1.27,8.87s.74,5.95,1,9.12.32,6.4.46,9.68.17,6.53,0,10a48.8,48.8,0,0,0-.13,7.35c.08.74.17,1.66.85,1.7.91,0,1.14-1.41,1.51-2,.13.8.44,2.29,1.17,2.45s1-.56,1.21-1,.35-1,.53-1.46c.22.6.33,1.41,1.07,1.4s1-1.1,1.22-1.9a58.16,58.16,0,0,0,1.12-8.38c.39-3.94.67-7.77.84-11.87.08-1.9.16-4,.33-6,.26-3,.63-5.67,2.34-7.09a5.33,5.33,0,0,1,2.08-1c1.68-.45,4-.32,5.07.6a8.24,8.24,0,0,1,1.84,3.51c1.34,4.12,1.72,9.18,2,14.08.2,3.15.31,7,.38,10.39,0,1.65-.05,3.52,0,5.36,0,.75,0,1.63,0,2.66s.27,1.79.85,1.85.93-.43,1.17-.77.34-.7.6-1.08c.2.73.32,1.73,1.07,1.81s1.2-.94,1.43-1.48a2.75,2.75,0,0,1,.37-.82c.15.81.31,1.93,1,2.11s1-.81,1.18-1.37a19.52,19.52,0,0,0,.53-2c.36-1.47.64-2.73.89-4.11.55-3,.83-5.91,1.17-8.91s.61-6.1,1-9.1c.47-3.74,1.2-7.31,3-9.44a9,9,0,0,1,1.29-1.18c2.68-2.11,6.42-3.7,9.61-5a69,69,0,0,1,7.07-2.64c2.45-.73,5-1.44,7.65-2a23.28,23.28,0,0,1,3.85,8.23,72.71,72.71,0,0,1,2.09,10,66.43,66.43,0,0,1,.14,17.28,20.51,20.51,0,0,0-.33,2.77c0,1-.09,2.17.84,2.19s1.15-1.19,1.51-1.59c0,1.05.05,2.17.88,2.26,1,.11,1.18-1.24,1.62-1.78.09.86.23,1.8,1.1,1.78.68,0,1.14-.87,1.47-1.52a20.4,20.4,0,0,0,.9-2.12,82.25,82.25,0,0,0,3.67-14.64,94.27,94.27,0,0,0,1.45-10.81,98.8,98.8,0,0,0,0-11.88,45.59,45.59,0,0,1,4.68,8.54A59.31,59.31,0,0,1,130,114.43a61.14,61.14,0,0,1,1.37,11.9c0,1.05.08,2.15,0,3.26s-.12,2.17-.15,3.26c0,1.92-.18,5.09,1.31,5.34,1,.17,1.33-.92,1.72-1.4.22.75.61,1.84,1.46,1.9s1.22-1.07,1.66-1.78c.28.78.58,1.9,1.57,1.75.62-.1,1.08-.88,1.47-1.52a24.13,24.13,0,0,0,2.52-6.68A97.19,97.19,0,0,0,144.83,120,120.28,120.28,0,0,0,145.42,96.57Z"/></clipPath></defs><title>artboard – 21</title><g class="cls-2"><path id="Path_969" data-name="Path 969" class="cls-3" d="M155,24.51a26,26,0,0,1,4.23-.8c1.5,10,2.34,20.77,3,31.61s.68,21.84,2.29,32.08c.49-10.07.13-21.1,1.42-32.27.33-2.82.52-5.71.82-8.54.9-8.5,1.7-16.87,2.18-25.1.94,0,1.94,0,2.93,0-.7,10.13-1.15,20.59-2.05,31.17s-2.28,21.23-2.41,31.46c1.86-9.93,5-18.6,7.07-28.61,2-9.86,3.55-20.16,5.46-30.62,1.09.13,2-.06,3,.06-1.56,9.93-2.18,20-3.9,29.36a230.69,230.69,0,0,1-6.42,26c4.06-7.68,7.89-15.31,11.76-23.4a61.91,61.91,0,0,0,4.85-13.07c1.11-4.87,1.81-10.06,3.17-15.31.9.38,2.06.54,2.93.94-1.43,6.06-2.35,12-3.77,17.59a151.73,151.73,0,0,1-5,15.86c-3.73,9.94-10,17.11-13.59,26.87a20.86,20.86,0,0,0,2.68-4.15c2.48-4.25,5.51-8.4,7.89-13,3.14-6.09,6.83-12.08,9.55-18.64,1.59.89,3.19,1.76,4.67,2.74-1.64,3.4-3.11,7-4.86,10.49-1.61,3.25-3.62,6.31-5.5,9.51s-3.6,6.41-5.41,9.63c-3.19,5.69-6,11.26-12.49,12.41-.62,4.08-1,8.65-1.81,12.23a52,52,0,0,1-2.32,6.55A55.82,55.82,0,0,0,162,132.31c-1,.12-2.32.58-3.3.36,0-5.87-.1-11.94,1.4-17.79.68-2.62,1.65-5.28,2.2-8.25s.83-6.14,1.25-9.38A25.47,25.47,0,0,1,157.69,92a28.21,28.21,0,0,1-4.33-6.4,39.67,39.67,0,0,1-2.15-8.25c-.57-2.8-1.13-5.66-1.8-8.43a46.29,46.29,0,0,0-6.6-14.56A45.36,45.36,0,0,0,132.7,42.73c.6-.83,1.28-1.55,1.91-2.33a89.29,89.29,0,0,1,9.83,9.47,39.55,39.55,0,0,1,7.66,11.21,78.31,78.31,0,0,1,4,14.11,54.29,54.29,0,0,0,1.84,7.2,40.2,40.2,0,0,0,3,6.46c.08,0,.09.13.2.14-1.54-7.14-3.26-14.88-3.72-23.05-.16-2.79-.09-5.64-.16-8.55C157.09,46.11,156.63,34.69,155,24.51Z"/><path id="Path_970" data-name="Path 970" class="cls-3" d="M16.81,94.95c.57,0,1-.19,1.5-.24.87,4.67,1.38,9.27,2.14,13.86.74,4.42,2.49,8.31,3.42,12.31-.32-4.25-1-8.72-.82-13.08.08-2.08.24-4.19.29-6.26a50.71,50.71,0,0,1,.21-6.34c.57.15,1.27.13,1.83.29.32,4.6.36,9,.38,13.34s.86,8.62.75,13.16a66.87,66.87,0,0,0,3.66-11.29c1-4.06,1.37-8.37,2.23-12.62.49.15,1.06.21,1.53.38a46.21,46.21,0,0,1-2,13.46c-1.16,4.1-2.17,8.1-3,12.58a3.24,3.24,0,0,0,1.17-.77,22.32,22.32,0,0,0,3.25-3,16.68,16.68,0,0,0,2.83-5.31,76.36,76.36,0,0,1,5.49-10.84c.59.2,1,.58,1.63.77-1.68,4.22-4,7.94-5.51,12a32.76,32.76,0,0,1-2.79,6,13.33,13.33,0,0,1-2,2.45c-.7.7-1.55,1.33-2.23,2.15a27.49,27.49,0,0,0-1.39,2.42c-.31.47-.73.79-1.07,1.23a60.3,60.3,0,0,1,.64,6.6c-1.05.13-2.08.3-3.15.41-.26-2.4-.76-4.52-.89-7.06-2.45-.92-3.22-3.72-5.05-5.66a35.24,35.24,0,0,0-4.89-4c-1.72-1.26-3.7-2.11-5.24-3.54S7.26,115,6.17,113A16.84,16.84,0,0,0,8,111.67,48.41,48.41,0,0,0,10.71,116a14,14,0,0,0,3.65,3.32c1.44.94,3,1.62,4.29,2.58a35.41,35.41,0,0,1,3.8,3.39c.06,0,.08.07.15.07A40.81,40.81,0,0,1,20.08,119c-.65-2.27-1.24-4.71-1.73-7.25a73.32,73.32,0,0,1-.88-8.31C17.26,100.64,16.83,97.82,16.81,94.95Z"/><g id="Group_382" data-name="Group 382"><path id="Path_971" data-name="Path 971" class="cls-4" d="M150.25,128c2.62-.63,2.32,8,.33,8C149,136,148.26,128.49,150.25,128Z"/><path id="Path_972" data-name="Path 972" class="cls-4" d="M156.3,135.12c1.73-.31,1.44,5.33,0,5.35S154.83,135.38,156.3,135.12Z"/></g><g id="Group_383" data-name="Group 383"><path id="Path_973" data-name="Path 973" class="cls-4" d="M95,123.36c2.62-.62,2.32,8,.33,8C93.74,131.38,93,123.83,95,123.36Z"/><path id="Path_974" data-name="Path 974" class="cls-4" d="M101.06,130.46c1.73-.31,1.44,5.33,0,5.35S99.59,130.72,101.06,130.46Z"/><path id="Path_975" data-name="Path 975" class="cls-4" d="M94,134.15c1,.43,1.38,5.22-.39,5-1.3-.15-.89-3.23-.91-4.58A1.26,1.26,0,0,1,94,134.15Z"/></g><g id="Group_384" data-name="Group 384"><path id="Path_976" data-name="Path 976" class="cls-4" d="M76.19,132.36c2-.78,1.53,5.57-.39,5.12C74.45,137.16,75.28,132.71,76.19,132.36Z"/><path id="Path_977" data-name="Path 977" class="cls-4" d="M79.56,138.31c2.16-.73,2.07,4.57.27,4.46C78.5,142.69,78.25,138.75,79.56,138.31Z"/></g><g id="artboard_21" data-name="artboard 21"><g id="Group_877" data-name="Group 877"><path id="Path_978" data-name="Path 978" class="cls-5" d="M139,67.2c1,1.6,2,3.17,3,4.7a79.12,79.12,0,0,0,9.55,11.69A60.88,60.88,0,0,0,179.38,99.3c4.22,1.11,8.94,1.76,13.85,3,1.95.49,3.12.74,3,2.26-.12,2.13-4.73,2.67-7.75,2.76-10.84.32-19.57-3.42-27-7.12a66.22,66.22,0,0,1-13.62-8.89c-8.1-6.9-13.78-15-18.64-25.17l-.81-1.7A21,21,0,0,0,139,67.2Z"/><g id="Group_393" data-name="Group 393"><g id="Group_392" data-name="Group 392"><g class="cls-6"><g id="Group_391" data-name="Group 391"><g id="Group_390" data-name="Group 390"><g id="Group_385" data-name="Group 385"><path id="Path_979" data-name="Path 979" class="cls-7" d="M168.8,106.92c-3.93.17-2.28-4.87.22-5.75,1.22-.43,2.62,0,2.84,1.18C172.36,105,169.67,105.53,168.8,106.92Z"/><path id="Path_980" data-name="Path 980" class="cls-8" d="M167.88,110.64c-2.37.09-2-2.19-2.14-4-1.75.64-4,.15-4-1.44,0-2,2.39-2.19,4.06-2.65-.78-2.43,1.21-6.13,3.33-4.39,1,.78.79,3.61.11,5.33-.27.7-1,1.18-1,1.88C168,106.55,169.6,109.61,167.88,110.64Z"/><path id="Path_981" data-name="Path 981" class="cls-8" d="M172.2,101.78c3.33-1,2.37,4.86-.37,4.22C170,105.56,170.9,102.15,172.2,101.78Z"/></g><g id="Group_386" data-name="Group 386"><path id="Path_982" data-name="Path 982" class="cls-7" d="M142.62,73.75A4,4,0,0,1,147,77.28v.07c.27,5.51-7.47,2.44-6.75-1.86C140.48,74.14,141.37,73.8,142.62,73.75Z"/><path id="Path_983" data-name="Path 983" class="cls-8" d="M149.22,80.6c-.34,1.63-3.5,2.37-5.9,1.87-1.27-.26-2.24-1.06-2.17-2,.14-2,3-1.8,4.76-2.28-.41-4.57,4.24-5.22,3.61-.87C149.33,78.58,148.7,79.31,149.22,80.6Z"/></g><g id="Group_387" data-name="Group 387"><path id="Path_984" data-name="Path 984" class="cls-7" d="M152.31,92.29c1.92-.58,3.74,2,3,4.09a2,2,0,0,1-3,.63C151.19,96,150.82,92.74,152.31,92.29Z"/><path id="Path_985" data-name="Path 985" class="cls-8" d="M152.22,90c1.66-.68,4.69,0,4.85,1.68.22,2.27-2.38,2.47-4.87,1.82.51,2.5-.35,4.55-2.15,4.35-1.31-.15-2.23-2.46-2-4.29.1-.69.78-1.57.94-2.34.3-1.35-.08-4.13,2.2-3.28C151.91,88.18,152,89.09,152.22,90Z"/><path id="Path_986" data-name="Path 986" class="cls-8" d="M155.47,96.39c.89-.13,1.69.08,1.66,1.22-.08,2.69-5.09,1.76-2.89-.58A3.24,3.24,0,0,1,155.47,96.39Z"/></g><g id="Group_388" data-name="Group 388"><path id="Path_987" data-name="Path 987" class="cls-7" d="M126.07,63.09l.07-.12A24,24,0,0,0,131,65.65a3.55,3.55,0,0,1,0,1.15c-.53,2.88-4.07,1.75-4.84-.15a4.7,4.7,0,0,1-.08-3.51C126.37,63.38,126.46,63.44,126.07,63.09Z"/><path id="Path_988" data-name="Path 988" class="cls-8" d="M123.46,61.13c1.29.83,5.37,4.36.66.26a25.32,25.32,0,0,0,4,2.86,2.12,2.12,0,0,1-1.48,0c-.1,1.85-1,3.26-2.59,2.64-.89-.35-1.4-3.55-.82-5.89Z"/><path id="Path_989" data-name="Path 989" class="cls-8" d="M130.32,67.49c3.26-.49,1.36,4.43-1.18,3.38C127.49,70.19,128.7,67.73,130.32,67.49Z"/></g><g id="Group_389" data-name="Group 389"><path id="Path_990" data-name="Path 990" class="cls-7" d="M184.29,101.37a6.25,6.25,0,0,1,3.58,1.1c1.88,2.62-2.15,4.87-4.11,3.26C182.77,104.92,181.78,101.74,184.29,101.37Z"/><path id="Path_991" data-name="Path 991" class="cls-8" d="M189.8,102.2c1,.55,2,.7,2.19,1.88.19,1.54-2,5.78-4,5.54-2.43-.29-2.27-4.6-.76-6.3-.92-1.49-1.22-5.37,1-4.92C189.51,98.66,189.63,100.66,189.8,102.2Z"/><path id="Path_992" data-name="Path 992" class="cls-8" d="M183.08,101.71c1.08-.17,2.47,1.84,1.07,2.84C182.56,105.69,180.76,102.07,183.08,101.71Z"/></g></g></g></g></g></g><g id="Group_428" data-name="Group 428"><g id="Group_416" data-name="Group 416"><path id="Path_994" data-name="Path 994" class="cls-9" d="M145.42,96.57a95.82,95.82,0,0,0-5.16-25.11c-.55-1.52-1.15-2.9-1.76-4.3C134.06,56.87,122.33,47.6,113.39,45c-.77-.23-1.55-.5-2.35-.71a65.62,65.62,0,0,0-19.24-1.84c-1.87.11-3.74.28-5.59.37-3.74.19-7.38.66-10.79,1.09,0-.23-38.23,20-39.82,21.72l.09,0c.1,0,.27,0,.32.12A36.12,36.12,0,0,0,34.95,75c0,1.61.14,3.22.26,4.8.38,4.76,1,9,1.6,13.55.43,3,.83,6,1.27,8.87s.74,5.95,1,9.12.32,6.4.46,9.68.17,6.53,0,10a48.8,48.8,0,0,0-.13,7.35c.08.74.17,1.66.85,1.7.91,0,1.14-1.41,1.51-2,.13.8.44,2.29,1.17,2.45s1-.56,1.21-1,.35-1,.53-1.46c.22.6.33,1.41,1.07,1.4s1-1.1,1.22-1.9a58.16,58.16,0,0,0,1.12-8.38c.39-3.94.67-7.77.84-11.87.08-1.9.16-4,.33-6,.26-3,.63-5.67,2.34-7.09a5.33,5.33,0,0,1,2.08-1c1.68-.45,4-.32,5.07.6a8.24,8.24,0,0,1,1.84,3.51c1.34,4.12,1.72,9.18,2,14.08.2,3.15.31,7,.38,10.39,0,1.65-.05,3.52,0,5.36,0,.75,0,1.63,0,2.66s.27,1.79.85,1.85.93-.43,1.17-.77.34-.7.6-1.08c.2.73.32,1.73,1.07,1.81s1.2-.94,1.43-1.48a2.75,2.75,0,0,1,.37-.82c.15.81.31,1.93,1,2.11s1-.81,1.18-1.37a19.52,19.52,0,0,0,.53-2c.36-1.47.64-2.73.89-4.11.55-3,.83-5.91,1.17-8.91s.61-6.1,1-9.1c.47-3.74,1.2-7.31,3-9.44a9,9,0,0,1,1.29-1.18c2.68-2.11,6.42-3.7,9.61-5a69,69,0,0,1,7.07-2.64c2.45-.73,5-1.44,7.65-2a23.28,23.28,0,0,1,3.85,8.23,72.71,72.71,0,0,1,2.09,10,66.43,66.43,0,0,1,.14,17.28,20.51,20.51,0,0,0-.33,2.77c0,1-.09,2.17.84,2.19s1.15-1.19,1.51-1.59c0,1.05.05,2.17.88,2.26,1,.11,1.18-1.24,1.62-1.78.09.86.23,1.8,1.1,1.78.68,0,1.14-.87,1.47-1.52a20.4,20.4,0,0,0,.9-2.12,82.25,82.25,0,0,0,3.67-14.64,94.27,94.27,0,0,0,1.45-10.81,98.8,98.8,0,0,0,0-11.88,45.59,45.59,0,0,1,4.68,8.54A59.31,59.31,0,0,1,130,114.43a61.14,61.14,0,0,1,1.37,11.9c0,1.05.08,2.15,0,3.26s-.12,2.17-.15,3.26c0,1.92-.18,5.09,1.31,5.34,1,.17,1.33-.92,1.72-1.4.22.75.61,1.84,1.46,1.9s1.22-1.07,1.66-1.78c.28.78.58,1.9,1.57,1.75.62-.1,1.08-.88,1.47-1.52a24.13,24.13,0,0,0,2.52-6.68A97.19,97.19,0,0,0,144.83,120,120.28,120.28,0,0,0,145.42,96.57Z"/><g id="Group_411" data-name="Group 411"><g id="Group_410" data-name="Group 410"><g class="cls-10"><g id="Group_409" data-name="Group 409"><g id="Group_408" data-name="Group 408"><path id="Path_995" data-name="Path 995" class="cls-8" d="M68.39,118.63c-1.2-.68-2,.41-2.94-1.08a1.92,1.92,0,0,1,.9-2.41,3.27,3.27,0,0,1,3.51.83c.27.33.26.88.52,1.59.16.45.49.76.57,1.07a9.31,9.31,0,0,1-.08,4.08c-.53,1.52-1.64,2.06-2.45,1.43s-.53-2.14-.5-2.71A11,11,0,0,1,68.39,118.63Z"/><g id="Group_394" data-name="Group 394"><path id="Path_996" data-name="Path 996" class="cls-7" d="M46.59,91c2.75-.84,4.23.54,3.62,2.67S45,95.59,45,93A2,2,0,0,1,46.59,91Z"/><path id="Path_997" data-name="Path 997" class="cls-8" d="M46.4,93.5c1.84,5.9-5.7,4.32-5.08-.07.14-1,.72-1.44,1.46-2.11-.41-2.4.54-4.74,2.44-4.56C47.78,87,48,91.66,46.4,93.5Z"/><path id="Path_998" data-name="Path 998" class="cls-8" d="M50.4,91.58c2.61-.47,1.66,3.71-.2,3.6C48.09,95.07,48.71,91.89,50.4,91.58Z"/></g><g id="Group_395" data-name="Group 395"><path id="Path_999" data-name="Path 999" class="cls-7" d="M129.19,81c2.54-.78,4.71-.12,4.42,2-.35,2.56-5.45,2-5.88.25S128.2,81.31,129.19,81Z"/><path id="Path_1000" data-name="Path 1000" class="cls-8" d="M132.66,82.53c-.76-1.5-1.31-4.59,1.64-3.91,1.49.34,2.54,3.2,2.15,5.44A12,12,0,0,1,134,88c-2.08,1.31-6.68.11-5.36-3.35C129.1,83.49,130.38,83.06,132.66,82.53Z"/></g><g id="Group_396" data-name="Group 396"><path id="Path_1001" data-name="Path 1001" class="cls-7" d="M88.09,50c2.62-.61,4,.18,4.1,1.86.14,3.43-6.58,4-6.35.24C85.91,51,86.69,50.28,88.09,50Z"/><path id="Path_1002" data-name="Path 1002" class="cls-8" d="M92.73,49.53c1.51-.69,3.14.06,3.32,1.36S94.88,53.29,94.1,54c-.93.82-3.9,3.07-4.61.59A3.2,3.2,0,0,1,90,52.11a4.47,4.47,0,0,1,.65-.81c0-.8-1.35-1.07-1.24-2.31C89.56,47.07,92.55,47.33,92.73,49.53Z"/><path id="Path_1003" data-name="Path 1003" class="cls-8" d="M88.11,51.43c.3,2.79-.14,6.65-2.31,7s-2.87-2.12-2.48-4.79c-.2-.78-1-1-1.25-1.66-.87-3.67,3.39-3.43,4.15-1.42C87.3,50.41,87.58,51,88.11,51.43Z"/></g><g id="Group_397" data-name="Group 397"><path id="Path_1004" data-name="Path 1004" class="cls-7" d="M88.63,65.92c1.26-.07,3.46,1.44,3.44,4.15,0,1.64-.93,3.81-3.06,3.4-1.35-.26-2.2-1.94-2.49-4S86.62,66,88.63,65.92Z"/><path id="Path_1005" data-name="Path 1005" class="cls-8" d="M89,64.28c1.16-.21,2.16-.2,2.37,1C91.6,66.84,90,67.46,88.61,68s-3.33,1.21-3.65-.38c-.18-.94.64-1.56,1.46-2.11A7.14,7.14,0,0,1,89,64.28Z"/><path id="Path_1006" data-name="Path 1006" class="cls-8" d="M86,71.13a3.84,3.84,0,0,1,3.8,1c1.29-1.47,2.4-3.86,4.49-3.55,4,.6,1.07,7.48-1.53,8a8.72,8.72,0,0,1-2.54,0C88,76.19,84,73.28,86,71.13Z"/></g><g id="Group_398" data-name="Group 398"><path id="Path_1007" data-name="Path 1007" class="cls-7" d="M70.81,88.66a3.41,3.41,0,0,1,.92,2.47c-.26,2.78-5.14,3.85-5.57.91C65.8,89.6,68.36,88,70.81,88.66Z"/><path id="Path_1008" data-name="Path 1008" class="cls-8" d="M72.71,91.31c-1.4.59-3.35-.49-3.31-2C69.5,86.05,75,88.38,72.71,91.31Z"/><path id="Path_1009" data-name="Path 1009" class="cls-8" d="M67,91.57c.92.69,2.18.75,3.16,1.52,1.23,1,2.5,2.92,2.32,4.62-.38,3.5-5.24,1.33-6.34-.58-3,1.89-5.1-4-3.1-6.11.4-.14,1.24-.3,1.59,0C64.29,86.62,69.45,88.44,67,91.57Z"/></g><g id="Group_399" data-name="Group 399"><path id="Path_1010" data-name="Path 1010" class="cls-7" d="M107.2,75.11c1-3.24,9.43-1,7.12,2.07-.57.75-2,.79-3.34.61A5.23,5.23,0,0,1,107.2,75.11Z"/><path id="Path_1011" data-name="Path 1011" class="cls-8" d="M109,72c1-.09,2.6-.42,3.17.37.41,1.86-1.43,2.51-3.21,2.58-.27.6,4.72,6.08,1.66,6.91-1.39.38-1.93-.87-2.52-1.67-1.31,4.05-5.49,0-5-3.84.21-1.75,1.35-2.42,2.27-3.41-1.36-2.7,2-5.1,3.37-2.58C108.75,71,109.1,71.25,109,72Z"/><path id="Path_1012" data-name="Path 1012" class="cls-8" d="M112.7,79.12c-.3-2.62,1.62-5.2,3.54-3.4C117.2,78.33,114.45,81.45,112.7,79.12Z"/></g><g id="Group_400" data-name="Group 400"><path id="Path_1013" data-name="Path 1013" class="cls-7" d="M54.43,77.52a2.68,2.68,0,0,1,.28,1c0,1.27-1.75,3.68-3.18,3.91a2.64,2.64,0,0,1-2.79-1.77c-.33-1.45,1.13-4.78,4.06-4.53A2.17,2.17,0,0,1,54.43,77.52Z"/><path id="Path_1014" data-name="Path 1014" class="cls-8" d="M52.66,77.47c-3,1.46-7.07-.84-5.74-3.51.7-1.39,3.35-1.29,4.86-.83.4-.84,2.25-1.55,3.1-.76a2.3,2.3,0,0,1-.43,2.87c1.68.18,3.32,3.58,1.53,4.42S53.6,78.37,52.66,77.47Z"/><path id="Path_1015" data-name="Path 1015" class="cls-8" d="M52.89,81.74c1.27,3.31-4.65,2.45-4.8,0C47.92,79.12,52.27,80.13,52.89,81.74Z"/></g><g id="Group_401" data-name="Group 401"><path id="Path_1016" data-name="Path 1016" class="cls-7" d="M127.43,64.25c0-.19.16-.09.16,0,2.66-.17,4.68,1.81,4.07,4.16A2.7,2.7,0,0,1,128.31,70C126.72,69.56,125.38,65.61,127.43,64.25Z"/><path id="Path_1017" data-name="Path 1017" class="cls-8" d="M125.23,62.25c1.51-.89,6-2.49,6.67-.07s-2.07,3.3-4.49,3.38c-.58,2.21-.83,4.69-3.39,3.89-.87-.27-1.37-1.52-1.23-3,0-.46.39-1,.34-1.47-.12-1.19-1.55-2.13-1.39-3.3C122.08,59.37,124.61,60.88,125.23,62.25Z"/></g><g id="Group_402" data-name="Group 402"><path id="Path_1018" data-name="Path 1018" class="cls-7" d="M71.23,67.31c1.39-.25,2.82.12,2.51,2.5-.19,1.43-2.62,4.12-4.34,3.88-1.5-.22-1.68-2.29-1.06-3.79A4.71,4.71,0,0,1,71.23,67.31Z"/><path id="Path_1019" data-name="Path 1019" class="cls-8" d="M72.36,65.85c1.4-.56,3.74,1.45,3.13,3.49s-2.41.72-3.17-.37C71.68,68.06,70.65,66.53,72.36,65.85Z"/><path id="Path_1020" data-name="Path 1020" class="cls-8" d="M66,70.19a2.19,2.19,0,0,1,2.87-.94c.33.48.93,1.37.45,2.14,1.93,1.34,3.29,8-.73,7.54-2.2-.27-2.54-3.17-3.27-5.29-1.21-.92-3.2-1.86-3-3.81S65.36,68.39,66,70.19Z"/></g><g id="Group_403" data-name="Group 403"><path id="Path_1021" data-name="Path 1021" class="cls-7" d="M111.27,52.19c4-.92,4.09,6.1.4,5.58C109.36,57.44,108.47,52.83,111.27,52.19Z"/><path id="Path_1022" data-name="Path 1022" class="cls-8" d="M109.39,50.52c1.21-1.5,4.38-1.9,4.44.39,0,2.06-2.21,1.95-3.53,2.9,0,3.37,0,7.7-2.8,7.67-3.24,0-3-7.2-1-9.2-1.37-1.31-1.34-4.72,1.16-4.08C108.53,48.42,108.83,49.66,109.39,50.52Z"/><path id="Path_1023" data-name="Path 1023" class="cls-8" d="M115.06,54.7c4.14-.62,1.89,5-1.32,4.08C111.62,58.15,112.78,55,115.06,54.7Z"/></g><g id="Group_404" data-name="Group 404"><path id="Path_1024" data-name="Path 1024" class="cls-7" d="M138.46,98c3.65-1,3.35,6.51-.23,5.41-.83-.26-1.79-2.16-1.38-3.79A3.24,3.24,0,0,1,138.46,98Z"/><path id="Path_1025" data-name="Path 1025" class="cls-8" d="M139.28,95.86c3.29-1.17,4.36,5.55,1.83,5.77-1.32.11-1.92-1.47-2.5-2.82C138.12,97.67,137.86,96.36,139.28,95.86Z"/><path id="Path_1026" data-name="Path 1026" class="cls-8" d="M141.2,107.2c-1.41,1.13-3.28-.13-4.11-1-.53,1.43-4.05,3.52-4.78,1.08-.65-2.2,1.83-4.11,2.61-5.38-.9-1.13-1.7-3.88-.26-4.6,1.94-1,3,2.52,3.28,4.48C139.12,103.36,142,104.12,141.2,107.2Z"/></g><g id="Group_405" data-name="Group 405"><path id="Path_1027" data-name="Path 1027" class="cls-7" d="M89.67,88.88c.16,1.47-.54,2.63-2,3.83-1,.86-2.63,1.84-3.77,1.74-2.26-.18-2.37-3.07-1.07-4.73A9.58,9.58,0,0,1,84.73,88c.56-.39,2.7-1.65,3.94-1.26C89.52,87,89.58,88,89.67,88.88Z"/><path id="Path_1028" data-name="Path 1028" class="cls-8" d="M92.68,88.3c.32,2.59-.33,6-3,5.33-1.87-.49-1.65-4.25-1.28-6.53-1,.54-5.21,2.51-5.72,0-.6-3,6.82-4.7,8.21-2,1.79-1.48,6.91-1.62,6.23,1.47C96.79,87.89,94.64,88.21,92.68,88.3Z"/><path id="Path_1029" data-name="Path 1029" class="cls-8" d="M84.4,93.78c.89,3.54-4.71,2-4.46-.7S84,92.17,84.4,93.78Z"/></g><g id="Group_406" data-name="Group 406"><path id="Path_1030" data-name="Path 1030" class="cls-7" d="M41.93,109.66c4-1.43,6.21,6.34,2,6.1-1.69-.1-2.24-1.85-2.65-3.65C41,110.8,40.36,110.22,41.93,109.66Z"/><path id="Path_1031" data-name="Path 1031" class="cls-8" d="M41.91,111.3c.85,1.85,2,7.47-1,7.37-1.41,0-2.56-2.23-2.8-4.3-.12-1,.39-2.19.2-3.11-.3-1.45-2.76-2.47-1.38-4,.18,0,.28,0,.32-.16,1.22-.14,1.59.56,2,1.18.68-.3.63-1.2,1.29-1.79,1.76-1.54,5.08-.84,4.74,2C45.09,110.14,43.66,111,41.91,111.3Z"/></g><g id="Group_407" data-name="Group 407"><path id="Path_1032" data-name="Path 1032" class="cls-8" d="M134.67,118.43c1.72-.71,5.06,1.61,4.4,3.83-.34,1.15-2,1.48-3.19,1.1C134,122.73,132.71,119.24,134.67,118.43Z"/><path id="Path_1033" data-name="Path 1033" class="cls-7" d="M138.14,120.45c-.33-1-1.18-1.52-1.08-2.64a1.53,1.53,0,0,1,2.08-1.45c1.12.31,1,1.65,1.55,3.14.29.74,1.34,1.82,1.4,2.15.52,2.63-2.94,6.13-5.78,5.33a2.16,2.16,0,0,1-1.25-1.82C135,123,136.82,122.36,138.14,120.45Z"/></g><path id="Path_1034" data-name="Path 1034" class="cls-8" d="M43.38,123c2.2-.47,3.54,4.49,1.21,4.94S40.87,123.56,43.38,123Z"/></g></g></g></g></g><g id="Group_415" data-name="Group 415"><g id="Group_412" data-name="Group 412"><path id="Path_1036" data-name="Path 1036" class="cls-7" d="M37.76,72.27C39,72,38.93,74.8,38.91,76.1c0,1.6,0,3.72-1.16,3.57-.87-.11-.85-2.18-.86-3.29,0-.69,0-1.44.07-2C37,73.48,37.06,72.41,37.76,72.27Z"/><path id="Path_1037" data-name="Path 1037" class="cls-7" d="M42.08,76.45c1.12-.32,1.18,1.45,1.13,2.5s-.17,2.4-1.1,2.29c-.53-.06-.74-.87-.79-1.65A8.43,8.43,0,0,1,41.56,77,.86.86,0,0,1,42.08,76.45Z"/><path id="Path_1038" data-name="Path 1038" class="cls-7" d="M38.06,82.07a.59.59,0,0,1,.43,0c.57.21.89,1.95.78,3-.07.6-.33,1-.74,1-.82,0-1-2-.95-3.07C37.6,82.53,37.72,82.17,38.06,82.07Z"/></g><g id="Group_413" data-name="Group 413"><path id="Path_1039" data-name="Path 1039" class="cls-7" d="M58.57,100.1c.52-.14.84.31,1.15.73a1.55,1.55,0,0,1,.42,1.17c-.14.57-.91.36-1.27,0a4,4,0,0,1-.46-.65C58.17,101,58,100.26,58.57,100.1Z"/><path id="Path_1040" data-name="Path 1040" class="cls-7" d="M62.47,102.07c.69-.15,1.06.43,1.33,1a17.5,17.5,0,0,1,.95,2.52c.32,1,.38,2.82-.8,2.84s-1.73-2.42-2-3.66C61.71,103.81,61.48,102.29,62.47,102.07Z"/></g><g id="Group_414" data-name="Group 414"><path id="Path_1041" data-name="Path 1041" class="cls-8" d="M108.18,97.07c.63-.11,1.07.51,1.4,1a11.78,11.78,0,0,1,1.23,2.9,10.62,10.62,0,0,1,.49,1.58c.09.85-.25,1.5-.89,1.49s-.9-.56-1.18-1.14c-.44-.92-.94-2.29-1.3-3.32C107.64,98.8,107.09,97.26,108.18,97.07Z"/><path id="Path_1042" data-name="Path 1042" class="cls-7" d="M113.43,100.82c.85-.11,1.08,1.06,1.21,2,0,.27,0,.54.06.82.09.74.58,1.7,0,2.17a.85.85,0,0,1-.58.14c-.71-.09-.84-1.18-1-2.08-.08-.4-.17-.82-.24-1.32C112.72,101.75,112.7,100.92,113.43,100.82Z"/><path id="Path_1043" data-name="Path 1043" class="cls-8" d="M111.67,108.1c1.17-.23,1.13,1.94,1.3,3.09.13.85.18,2.17-.64,2.17s-.86-1.22-1-2.08c-.07-.43-.16-.9-.2-1.32C111.06,109.26,111,108.24,111.67,108.1Z"/></g><path id="Path_1044" data-name="Path 1044" class="cls-11" d="M121.23,89.79c-2-2.58-4.73-4.82-9.27-4.66a40.65,40.65,0,0,0-7.09,1A78.31,78.31,0,0,0,92.63,90c-1.94.76-3.8,1.58-5.58,2.47-3.68,1.85-7.07,3.83-9,7.26s-3.34,13-3.24,12.95a13.56,13.56,0,0,1,2.5-6.1,9,9,0,0,1,1.29-1.18c2.68-2.11,6.42-3.7,9.61-5a69,69,0,0,1,7.07-2.64c2.45-.73,5-1.44,7.65-2,4.64-1,18.67-5,21.68,4.07C124.19,96,123.3,92.45,121.23,89.79Z"/></g><path id="Path_1045" data-name="Path 1045" class="cls-8" d="M124.44,96.88a8,8,0,0,1-1.37-.54,28.64,28.64,0,0,0-4.52-1.41,31.77,31.77,0,0,0-7.32-.44,42.16,42.16,0,0,0-6.87.88c-2.24.39-4.37.86-6.4,1.37,3.85-1.79,8.09-3.56,13.51-3.75a23.15,23.15,0,0,1,4.06.21A25.83,25.83,0,0,1,124.44,96.88Z"/><path id="Path_1046" data-name="Path 1046" class="cls-7" d="M69.1,123.42c-.58,1.06-1.57,2.17-3,1.36-1.71-1-1.58-3.14-1.41-4.26.24-1.62,1.9-4.67,3.91-3C69.7,118.43,70,121.87,69.1,123.42Z"/></g><g id="Group_427" data-name="Group 427"><g id="Group_425" data-name="Group 425"><path id="Path_1047" data-name="Path 1047" class="cls-5" d="M34.95,17.58a20.09,20.09,0,0,1,6.52-2.14,32.19,32.19,0,0,1,8.12-.06,39.88,39.88,0,0,1,4.31.54,21.43,21.43,0,0,1,9.63,4.39,12.85,12.85,0,0,1,3-4.14,6.65,6.65,0,0,1,4.81-1.72c2.95.28,4.42,3,4.37,5.88-.08,4.48-2.79,6.73-5.22,8.3A40.54,40.54,0,0,0,77.08,37c.76.69,2.43,1.58,2.26,2.72s-1.9.64-2.71.32a15.31,15.31,0,0,1-2.68-1.35,29.78,29.78,0,0,0,3.78,4.41c.44.49,1.13,1.1.84,1.88-.37,1-2.21.2-2.85-.21a9.86,9.86,0,0,1,.68,5.72,13.75,13.75,0,0,1-2.08,5.2A19.8,19.8,0,0,1,70.9,59.2a36.22,36.22,0,0,1-3.79,3,34.08,34.08,0,0,1-19.76,6,33.36,33.36,0,0,1-16.46-4.79,30.31,30.31,0,0,1-4-2.89,43.46,43.46,0,0,1-6.77-7,13.34,13.34,0,0,1-2.95-10.37,10,10,0,0,1,1.6-3.83c-.75.3-2.8.75-2.88-.47,0-.69.69-1.22,1.22-1.62a34.82,34.82,0,0,0,4.56-3.55c-.92.25-1.73.6-2.82.82-.92.19-2.68.46-2.74-.78-.05-1.08,1.72-1.78,2.6-2.32a31.2,31.2,0,0,0,2.92-2c2.12-1.68,3.6-3.48,5.16-4.9-1.93-2-4.13-4.4-3.78-8.39.28-3.21,2.17-5.93,5.18-5.8a6.55,6.55,0,0,1,4.6,2.63A9.8,9.8,0,0,1,34.95,17.58Z"/><path id="Path_1048" data-name="Path 1048" class="cls-9" d="M47.13,26.14A40.86,40.86,0,0,1,56,27.54a12.12,12.12,0,0,1,6.07,3.53,16,16,0,0,1,3.12,5.81A30.8,30.8,0,0,1,66.66,44a14.46,14.46,0,0,1-1.11,7.75,10,10,0,0,1-2,2.59,24.7,24.7,0,0,1-2.46,2.1A20.86,20.86,0,0,1,55,59.3a27.25,27.25,0,0,1-16.23-.78,20.29,20.29,0,0,1-10.34-8.46,10.66,10.66,0,0,1-1.2-7.3,26.11,26.11,0,0,1,2.26-7.19c2-4.25,4.37-8.12,9.23-9.08A28.31,28.31,0,0,1,47,26.12Z"/><path id="Path_1049" data-name="Path 1049" class="cls-12" d="M69.26,22.35c1,.27,1.68.57,1.47,1.55s-2.52,1.78-3.83,1.43a1.44,1.44,0,0,1-.79-.53,4.19,4.19,0,0,1,0-2A7,7,0,0,1,68.8,18.9a1,1,0,0,1,1.43.65A5.9,5.9,0,0,1,69.26,22.35Z"/><path id="Path_1050" data-name="Path 1050" class="cls-12" d="M28.42,19.85c-.83-.78-2.33-2.11-1.92-3.85a1.5,1.5,0,0,1,1.83-1.07l.11,0c1.56.32,2.65,1.79,3.49,3a2.76,2.76,0,0,1,.68,2.44,3.16,3.16,0,0,1-2.16,2.1c-1.15.41-3.39.54-3.3-1.09C27.19,20.55,27.86,20.24,28.42,19.85Z"/><path id="Path_1051" data-name="Path 1051" class="cls-5" d="M54.23,24.91l-11-1.06-1,19.91,9.48.91Z"/><g id="Group_421" data-name="Group 421"><g id="Group_417" data-name="Group 417"><path id="Path_1052" data-name="Path 1052" class="cls-7" d="M39.33,31.43c-1.91-.48-4.07.53-5.8,1.6a16.17,16.17,0,0,0-6.36,7.3c-1.4,3.82.05,7,3.76,7.73A14.55,14.55,0,0,0,39,47c1.94-.86,3-1.93,3.49-4.79.67-4,.36-8.18-1.55-10A4.25,4.25,0,0,0,39.33,31.43Z"/><path id="Path_1053" data-name="Path 1053" class="cls-12" d="M35.07,45.65c-1.9-.23-4.67,0-4.94,1.71-.3,1.91,1.76,2.72,3.34,2.89,1.76.19,4.45,0,4.78-1.46a2.83,2.83,0,0,0-.39-1.89A3.91,3.91,0,0,0,35.07,45.65Z"/><path id="Path_1054" data-name="Path 1054" class="cls-8" d="M35.59,41.51c0,1.59.72,2.88,1.59,2.87s1.55-1.3,1.54-2.9-.72-2.87-1.58-2.87S35.58,39.92,35.59,41.51Z"/><path id="Path_1055" data-name="Path 1055" class="cls-8" d="M34.22,36.55l.13,0,4.8-1.16a1,1,0,0,0,.74-1.24c-.12-.55-.64-.76-1.2-.77a8.8,8.8,0,0,0-4.8,1.15c-.47.29-.87.68-.75,1.24A1,1,0,0,0,34.22,36.55Z"/></g><g id="Group_418" data-name="Group 418"><path id="Path_1056" data-name="Path 1056" class="cls-7" d="M56.81,32.93c2-.14,3.94,1.21,5.46,2.57a16.39,16.39,0,0,1,5.11,8.29c.77,4-1.18,6.94-4.95,7a14.65,14.65,0,0,1-7.83-2.44c-1.77-1.18-2.66-2.42-2.68-5.32,0-4.06,1-8.12,3.12-9.57A4.22,4.22,0,0,1,56.81,32.93Z"/><path id="Path_1057" data-name="Path 1057" class="cls-12" d="M58.74,47.69c1.91.09,4.6.82,4.6,2.53,0,1.93-2.17,2.38-3.76,2.28-1.76-.11-4.39-.76-4.48-2.26a2.82,2.82,0,0,1,.69-1.8A3.86,3.86,0,0,1,58.74,47.69Z"/><path id="Path_1058" data-name="Path 1058" class="cls-8" d="M58.89,43.51c-.27,1.57-1.17,2.71-2,2.56S55.55,44.52,55.82,43s1.17-2.71,2-2.56S59.15,41.95,58.89,43.51Z"/><path id="Path_1059" data-name="Path 1059" class="cls-8" d="M61,38.85l-.13,0-4.55-2a1,1,0,0,1-.54-1.35,1.09,1.09,0,0,1,1.3-.55,8.88,8.88,0,0,1,4.55,2c.42.37.75.82.54,1.35A1,1,0,0,1,61,38.85Z"/></g><g id="Group_420" data-name="Group 420"><path id="Path_1060" data-name="Path 1060" class="cls-11" d="M46.68,51.62c.4,2.12,1.5,4.34,3.55,5C54,58,56,54.44,56,50.66A9.92,9.92,0,0,0,40.45,43a7.53,7.53,0,0,0-3.05,5.5c-.13,3.35.79,8,5.5,7.69C44.51,56.09,46.4,53.55,46.68,51.62Z"/><g id="Group_419" data-name="Group 419"><path id="Path_1061" data-name="Path 1061" class="cls-8" d="M46.42,47.69c-.47,1.09-.37,2.62-1.48,3.2-.3-.7-1-1.4-1.92-.85-1,1.5,1,2.81,2.61,2,.53-.28.61-.88,1-1.17.26,1.23,1.06,2.17,2.17,2s2.08-2.4.6-2.33c-.61,0-.71.57-1,1-1.06-.47-.73-2.83-1.33-3.92Z"/><path id="Path_1062" data-name="Path 1062" class="cls-8" d="M45.32,44.59c.24,1.31.22,3.12,1.32,3.32,1.4.25,1.68-1.74,2.16-2.9,1.52,2.87,4.34-1,3-3.18-1.22-2-6.87-3.11-8.7-.91C42.19,42,42,45,44,45.15,44.67,45.21,44.85,44.93,45.32,44.59Z"/></g></g></g><g id="Group_422" data-name="Group 422"><path id="Path_1063" data-name="Path 1063" class="cls-8" d="M43.23,18.87c1.79-.72,2.4,3.56.26,3.33C42.1,22,42,19.36,43.23,18.87Z"/><path id="Path_1064" data-name="Path 1064" class="cls-8" d="M50.49,19.76c1.37,2.11-.45,8.18-2.74,7.51s.1-6.91,1.63-7.62Z"/><path id="Path_1065" data-name="Path 1065" class="cls-8" d="M54.37,20.51c2.38-.5,1.85,4-.33,3.66C52.17,23.84,52.91,20.83,54.37,20.51Z"/></g><g id="Group_423" data-name="Group 423"><path id="Path_1066" data-name="Path 1066" class="cls-8" d="M74.77,47.78c-2.62-1.8-2.12,5-.86,5.11C75.39,53.07,75.25,48.67,74.77,47.78Z"/><path id="Path_1067" data-name="Path 1067" class="cls-7" d="M68.49,56.09c.84-.29,1.51-1.75,1.7-2.77a2.45,2.45,0,0,0,.07-.86.89.89,0,0,0-1.08-.65h-.05A5.27,5.27,0,0,0,68,55C68.06,55.47,68.37,55.76,68.49,56.09Z"/><path id="Path_1068" data-name="Path 1068" class="cls-7" d="M71.45,43.95c.68-.56.8-2.17.62-3.19a2.44,2.44,0,0,0-.24-.83.89.89,0,0,0-1.23-.24l0,0a5.29,5.29,0,0,0,.09,3.4C70.83,43.52,71.23,43.68,71.45,43.95Z"/></g><g id="Group_424" data-name="Group 424"><path id="Path_1069" data-name="Path 1069" class="cls-8" d="M19.73,48.51c-.77-.44-1.17-2-1.18-3a2.43,2.43,0,0,1,.09-.86.88.88,0,0,1,1.17-.44l.06,0a5.33,5.33,0,0,1,.52,3.37C20.26,48,19.91,48.21,19.73,48.51Z"/><path id="Path_1070" data-name="Path 1070" class="cls-7" d="M25.26,33.27c-.47-.76-.07-2.32.43-3.23a2.36,2.36,0,0,1,.49-.7.89.89,0,0,1,1.24.19l0,0a5.23,5.23,0,0,1-1.16,3.18C26,33.08,25.56,33.1,25.26,33.27Z"/></g></g><g id="Group_426" data-name="Group 426"><path id="Path_1071" data-name="Path 1071" class="cls-7" d="M52.89,63.91c0,1.37-6.06,1.26-5.66-.6.13-.59.9-.71,2.07-.67C50.81,62.7,52.91,62.71,52.89,63.91Z"/><path id="Path_1072" data-name="Path 1072" class="cls-7" d="M44.47,63.67c-1.07.74-4.19.37-4.05-.9s3.43-.37,4.07.21C44.48,63.22,44.48,63.44,44.47,63.67Z"/><path id="Path_1073" data-name="Path 1073" class="cls-8" d="M48,59.76c-1-.46-2.79-1-3,0C44.6,61.16,48.89,61.78,48,59.76Z"/></g></g></g></g></g></g></svg>