<?xml version="1.0" encoding="utf-8"?>
<!-- Generator: Adobe Illustrator 21.1.0, SVG Export Plug-In . SVG Version: 6.00 Build 0)  -->
<svg version="1.1" id="圖層_1" xmlns="http://www.w3.org/2000/svg" xmlns:xlink="http://www.w3.org/1999/xlink" x="0px" y="0px"
	 viewBox="0 0 117 116" style="enable-background:new 0 0 117 116;" xml:space="preserve">
<style type="text/css">
	.st0{clip-path:url(#SVGID_2_);}
	.st1{fill:none;}
	.st2{fill:#534741;}
</style>
<title>Artboard – 24</title>
<g>
	<defs>
		<rect id="SVGID_1_" x="-3.5" y="-1.5" width="120" height="119"/>
	</defs>
	<clipPath id="SVGID_2_">
		<use xlink:href="#SVGID_1_"  style="overflow:visible;"/>
	</clipPath>
	<g id="Artboard_24" class="st0">
		<g id="Group_899">
			<g id="Path_1342">
				<path class="st1" d="M58.5,0.5C90.2,0.5,116,26.2,116,58s-25.7,57.5-57.5,57.5S1,89.7,1,58S26.7,0.5,58.5,0.5z"/>
				<path class="st2" d="M58.5,4.6C29,4.6,5.1,28.5,5.1,57.9c0,21.5,12.8,40.8,32.6,49.2c18.5,7.8,39.9,4.5,55.2-8.5
					c2.9-2.5,5.5-5.2,7.8-8.3c2.3-3,4.3-6.3,5.9-9.7c1.6-3.5,2.9-7.1,3.7-10.9C117,41.1,99,12.5,70.3,6C66.4,5.1,62.5,4.6,58.5,4.6
					 M58.5,0.5C90.2,0.5,116,26.2,116,58s-25.7,57.5-57.5,57.5S1,89.7,1,58S26.7,0.5,58.5,0.5z"/>
			</g>
			<g id="Group_899-2">
				<path id="Path_1094" class="st2" d="M13.2,57.1h10.2v27.1c0,1,0.8,1.8,1.8,1.8H71c1,0,1.8-0.8,1.8-1.8l0,0V65
					c0.1-1-0.7-1.8-1.6-1.9c-1-0.1-1.8,0.7-1.9,1.6c0,0.1,0,0.2,0,0.3v17.5H55.1v-2c0-1-0.8-1.8-1.8-1.8c0,0,0,0,0,0l0,0
					c-1,0-1.8,0.8-1.8,1.8l0,0v2h-6.8V70.1c0-1.9,1.5-3.4,3.4-3.4c1.9,0,3.4,1.5,3.4,3.4c0,1,0.8,1.8,1.8,1.8c0,0,0,0,0,0l0,0
					c1,0,1.8-0.8,1.8-1.8c0,0,0,0,0,0l0,0c0-3.9-3.1-7-7-7c-3.9,0-7,3.1-7,7v12.3H27V57.1h39.2c1-0.1,1.7-0.9,1.6-1.9
					c-0.1-0.9-0.8-1.6-1.6-1.6H18l30.2-26.4l15.4,13.4c0.7,0.6,1.9,0.6,2.5-0.2c0,0,0,0,0,0l0,0c0.6-0.7,0.6-1.9-0.2-2.5L49.3,23.5
					c-0.7-0.6-1.7-0.6-2.4,0L12.1,54c-0.7,0.6-0.8,1.8-0.2,2.5C12.2,56.9,12.7,57.1,13.2,57.1L13.2,57.1z"/>
				<path id="Path_1095" class="st2" d="M69.2,45.6c0.8,0.6,1.9,0.5,2.5-0.3c0.6-0.7,0.5-1.8-0.2-2.4l-1.2-1
					c-0.7-0.6-1.9-0.6-2.5,0.2l0,0c-0.6,0.7-0.6,1.9,0.2,2.5L69.2,45.6z"/>
				<path id="Path_1096" class="st2" d="M103,48.6c0.4-2.9-1-5.8-3.6-7.2c0.4-2.3-0.4-4.7-2.1-6.4c-0.7-0.7-1.8-0.8-2.5-0.1
					c-0.7,0.7-0.8,1.8-0.1,2.5c0,0,0.1,0.1,0.1,0.1c1,1,1.3,2.5,0.8,3.9c0,0.1-0.1,0.2-0.1,0.3c-0.4,0.9,0,2,0.9,2.4
					c0.1,0.1,0.3,0.1,0.4,0.1c0.2,0,0.4,0.1,0.6,0.2c1.6,0.8,2.4,2.7,1.8,4.4v0.1c-0.4,0.9,0.1,1.9,1,2.3c0.1,0,0.1,0,0.2,0.1
					l0.3,0.1c1.7,0.8,2.4,2.8,1.8,4.5c-0.3,1-1.1,1.8-2.1,2.1c-0.7,0.2-1.3,0.8-1.3,1.6c0,0.4-0.1,0.7-0.2,1
					c-0.3,0.9-0.9,1.5-1.8,1.9c-0.7,0.3-1.4,0.3-2.1,0c-0.7-0.3-1.4-0.1-1.9,0.4c-2.5,2.8-6.7,3-9.5,0.6c-0.2-0.2-0.4-0.4-0.6-0.6
					c-0.5-0.5-1.3-0.7-1.9-0.4c-0.7,0.3-1.4,0.3-2.1,0c-0.8-0.4-1.5-1.1-1.8-1.9c-0.1-0.3-0.2-0.7-0.2-1c0-0.8-0.6-1.4-1.3-1.6
					c-1-0.3-1.8-1.1-2.1-2.1c-0.7-1.7,0.1-3.7,1.8-4.5l0.3-0.1c0.9-0.3,1.5-1.2,1.3-2.2c0-0.1,0-0.1-0.1-0.2v-0.1
					c-0.6-1.7,0.1-3.6,1.7-4.4c0.2-0.1,0.4-0.1,0.6-0.2c1-0.2,1.6-1.1,1.4-2.1c0-0.1-0.1-0.3-0.1-0.4c0-0.1-0.1-0.2-0.1-0.3
					c-0.7-1.7,0.1-3.7,1.8-4.5c0.4-0.2,0.8-0.2,1.3-0.2c1,0.1,1.8-0.6,1.9-1.6l0,0c0.1-1-0.6-1.9-1.6-1.9c-1-0.1-2,0.1-3,0.4
					c-3,1.3-4.6,4.5-4.1,7.7c-2.6,1.4-4,4.3-3.6,7.2c-2.8,1.8-4.1,5.4-2.9,8.5c0.6,1.7,1.8,3.1,3.4,3.9c0.1,0.3,0.1,0.6,0.2,0.8
					c0.6,1.8,1.9,3.2,3.6,4c1.2,0.5,2.5,0.7,3.8,0.4c1.4,1.2,3.1,2.1,5,2.4v13.8h-3.6c-1,0.1-1.7,0.9-1.6,1.9
					c0.1,0.9,0.8,1.6,1.6,1.6h10.9c1,0,1.8-0.8,1.8-1.8l0,0c0-1-0.8-1.8-1.8-1.8h-3.7V68.7c1.8-0.4,3.6-1.2,5-2.4
					c1.3,0.3,2.6,0.1,3.8-0.4c1.7-0.8,3-2.2,3.6-4c0.1-0.3,0.2-0.6,0.2-0.8c1.6-0.8,2.8-2.2,3.4-3.9C107,53.9,105.8,50.4,103,48.6z"
					/>
				<path id="Path_1097" class="st2" d="M88.1,34.8c0.7,0,1.3,0.5,1.6,1.1c0.3,0.6,0.9,1,1.6,1c0.3,0,0.5-0.1,0.7-0.2
					c0.9-0.4,1.3-1.5,0.9-2.3c0,0,0,0,0,0l0,0c-0.8-1.9-2.7-3.2-4.8-3.2c-1-0.1-1.8,0.7-1.9,1.6c-0.1,1,0.7,1.8,1.6,1.9
					C87.9,34.8,88,34.8,88.1,34.8z"/>
				<path id="Path_1098" class="st2" d="M95.2,57.8c0.2,0.1,0.4,0.1,0.6,0.1c0.8,0,1.4-0.5,1.7-1.2c0.9-2.6-0.3-5.5-2.8-6.7
					c-0.9-0.4-2-0.1-2.4,0.8c-0.4,0.9-0.1,2,0.8,2.4c0.1,0,0.2,0.1,0.2,0.1l0,0c0.8,0.4,1.2,1.4,0.8,2.2
					C93.8,56.5,94.3,57.5,95.2,57.8z"/>
				<path id="Path_1099" class="st2" d="M82.3,48.2c0.3,0.7,0.9,1.2,1.7,1.2c0.2,0,0.4,0,0.6-0.1c0.9-0.3,1.4-1.4,1-2.3l0,0
					c-0.3-0.8,0-1.8,0.8-2.2c0.9-0.4,1.3-1.4,1-2.3l0,0c-0.4-0.9-1.4-1.3-2.3-1l0,0C82.5,42.7,81.3,45.6,82.3,48.2z"/>
				<path id="Path_1100" class="st2" d="M53.4,73.3c-1,0-1.8,0.8-1.8,1.8v0.7c0.1,1,0.9,1.7,1.9,1.6c0.9-0.1,1.6-0.8,1.6-1.6v-0.6
					C55.1,74.1,54.3,73.3,53.4,73.3L53.4,73.3z"/>
				<path id="Path_1101" class="st2" d="M16.6,91.1c-1,0.1-1.7,0.9-1.6,1.9c0.1,0.9,0.8,1.6,1.6,1.6H54c1,0,1.8-0.8,1.8-1.8l0,0
					c0-1-0.8-1.8-1.8-1.8L16.6,91.1z"/>
				<path id="Path_1102" class="st2" d="M60.7,91.1c-1-0.1-1.8,0.7-1.9,1.6c-0.1,1,0.7,1.8,1.6,1.9c0.1,0,0.2,0,0.3,0h2.6
					c1,0,1.8-0.8,1.8-1.8l0,0c0-1-0.8-1.8-1.8-1.8L60.7,91.1z"/>
				<path id="Path_1103" class="st2" d="M101.2,91.1h-29c-1,0.1-1.7,0.9-1.6,1.9c0.1,0.9,0.8,1.6,1.6,1.6h29c1,0,1.8-0.8,1.8-1.8
					l0,0C102.9,91.9,102.1,91.1,101.2,91.1z"/>
			</g>
		</g>
	</g>
</g>
</svg>
