<svg id="圖層_1" data-name="圖層 1" xmlns="http://www.w3.org/2000/svg" xmlns:xlink="http://www.w3.org/1999/xlink" viewBox="0 0 272 308"><defs><style>.cls-1,.cls-5{fill:none;}.cls-2{clip-path:url(#clip-path);}.cls-3{clip-path:url(#clip-path-2);}.cls-4{fill:#9bbf8b;}.cls-5{stroke:#fffbe6;stroke-miterlimit:10;}</style><clipPath id="clip-path"><rect class="cls-1" width="272" height="308"/></clipPath><clipPath id="clip-path-2"><rect class="cls-1" x="-10.48" y="-33.29" width="282.48" height="341"/></clipPath></defs><title>artboard – 32</title><g class="cls-2"><g id="artboard_32" data-name="artboard 32"><g class="cls-3"><g id="Mask_Group_23" data-name="Mask Group 23"><path id="Path_1360" data-name="Path 1360" class="cls-4" d="M173.15,118.07c-11.34,20.08-9.29,45-16.65,66.82-10.56,31.35-39.16,53-68.28,68.73S27.49,281.46,2.51,303.15s-42.35,56.72-31.49,88c11.88,34.19,53,50.31,89,47.2s102.55-34.21,102.55-34.21S188.94,394,202.87,394c37.78-.22,66.5,32.83,101.24,47.69,33.85,14.49,75,10.44,105.37-10.36s49-57.68,47.77-94.48c-1.1-32-16.12-63.81-9.35-95.15,11-50.9,39-76.2,18.39-131.06C454.81,80.1,436,55,405.11,42.79,338.92,16.61,207.9,56.53,173.15,118.07Z"/><path id="Path_1361" data-name="Path 1361" class="cls-5" d="M194.81,155.43c-11.34,20.08-9.29,45-16.65,66.82-10.56,31.35-39.16,53-68.28,68.73S49.15,318.82,24.16,340.5s-42.35,56.72-31.49,88c11.88,34.19,53,50.32,89,47.2s69-20.54,102.55-34.21c12.9-5.26,26.33-10.06,40.26-10.15,37.78-.22,66.5,32.83,101.24,47.69,33.85,14.48,75,10.44,105.37-10.36s49-57.68,47.77-94.49c-1.1-32-16.12-63.81-9.35-95.15,11-50.91,39-76.2,18.39-131.06-11.48-30.5-30.24-55.58-61.18-67.81C360.58,54,229.55,93.89,194.81,155.43Z"/></g></g></g></g></svg>