<svg id="圖層_1" data-name="圖層 1" xmlns="http://www.w3.org/2000/svg" xmlns:xlink="http://www.w3.org/1999/xlink" viewBox="0 0 142 192"><defs><style>.cls-1{fill:none;}.cls-2{clip-path:url(#clip-path);}.cls-3{clip-path:url(#clip-path-2);}.cls-4{fill:#447762;}.cls-5{fill:#024f39;}</style><clipPath id="clip-path"><rect class="cls-1" width="142" height="192"/></clipPath><clipPath id="clip-path-2"><rect class="cls-1" x="-15" y="-5" width="157" height="224"/></clipPath></defs><title>Artboard – 7</title><g class="cls-2"><g id="Artboard_7" data-name="Artboard 7"><g class="cls-3"><g id="Mask_Group_15" data-name="Mask Group 15"><g id="Group_867" data-name="Group 867"><path id="Path_149" data-name="Path 149" class="cls-4" d="M156.3,52.84a51.41,51.41,0,0,1-19.1,3.71,30.76,30.76,0,0,1-21.91-9.26c-4.48-4.52-12.15-9.91-21.59-7.07-15.26,4.58-27-6.39-27-6.39S62.42,30,56.86,30.18a18.54,18.54,0,0,1-11.09-2.93c-1-.67-4.93-4.42-5.92-5.35,0,0,9-5,16.51-2.26s11.65,2.2,16.2-.54,20.79-1.33,29.39,2,23.11-7.7,31.76-8S155.23,19,167.66,41.11l-.43,4.53S170.57,45.94,156.3,52.84Z"/><path id="Path_157" data-name="Path 157" class="cls-5" d="M179.69,54.28s-8.56,10-38.82-6.83-71.41,2.85-68.13,7.43S74.92,63.31,93.13,59,132.51,49.42,147,56.1a64.43,64.43,0,0,0,27.66,5.95s-6.74,12.83-13.57,12.45-8.28-1-14.51-4.72-13.32-11.51-31.48-9.1-40,13.9-36.63,15.55,1.77,6,21,.69S129,68.79,143.91,76,156,79.11,156,79.11s-1.27,9.71-30.5,7.09-37.63.34-43.09,3.45S57.24,98.51,59.51,104s23.56-3.57,23.56-3.57,15.81-6,25.54-4.44,36.27-3.84,36.27-3.84-26.1,23-35.39,23-35-4.9-40.43-3.73-52.17,12.73-49.75,29.49c0,0,5.2,5.67,16.7-3s28.35-16.51,33.73-16.7,33.73-.56,35.74-2.4-20.67,20.85-38.31,22.8S10.91,160,8,174c0,0,1.24,7.4,10.2,2s23.5-17.76,29.41-19.38,24.75-10.35,26.25-11.73S63.19,159.49,56.28,162,37.56,183,41.91,184.7c0,0,5.76,3.26,14.9-8s28.57-39.48,39-46.23,19.45-13.09,19.45-13.09-.86,12.18-8.43,20.07-9.61,10.71-6.27,13.34c0,0,6.83.38,12-9.11s8.64-26.91,8.64-26.91l4.52-4.15s-1.48,16.54-5.59,23.16c0,0,.8,5.91,5.41-1.16s6.13-24.6,6.13-24.6l12-10.08s-1,17.06-7.63,26-11.21,15-6.36,16.27S151,115,150.68,94.45l14.13-14.86S154,98.06,155.55,110.86s-21.2,38.42-21.2,38.42-3,3.74,3.31,3.61,23-17.3,22.8-42.74,10.68-29.72,10.68-29.72,5,27.67-2.14,38-12.89,22.26-9.49,22.94,3.4.68,5.44-2.14,12.77-18.36,11.59-27.71-2.57-28-.49-31.82,9.69,18.64,8.89,28.86-1,18,2.92,16.3,8.45-4.91,5.26-12.42S176.48,65.09,179.59,59.4L182.07,56Z"/></g></g></g></g></g></svg>