<svg id="圖層_1" data-name="圖層 1" xmlns="http://www.w3.org/2000/svg" xmlns:xlink="http://www.w3.org/1999/xlink" viewBox="0 0 117 116"><defs><style>.cls-1{fill:none;}.cls-2{clip-path:url(#clip-path);}.cls-3{fill:#0fa36c;}</style><clipPath id="clip-path"><rect class="cls-1" x="-3.5" y="-1.5" width="120" height="119"/></clipPath></defs><title>artboard – 24</title><g class="cls-2"><g id="Artboard_24" data-name="Artboard 24"><g id="Group_899" data-name="Group 899"><g id="Path_1342" data-name="Path 1342"><path class="cls-1" d="M58.5.5A57.5,57.5,0,1,1,1,58,57.51,57.51,0,0,1,58.5.5Z"/><path class="cls-3" d="M58.5,4.6a53.34,53.34,0,1,0,34.4,94,51.15,51.15,0,0,0,7.8-8.3,53.46,53.46,0,0,0,5.9-9.7,51.88,51.88,0,0,0,3.7-10.9A53,53,0,0,0,70.3,6,52.15,52.15,0,0,0,58.5,4.6m0-4.1A57.5,57.5,0,1,1,1,58,57.51,57.51,0,0,1,58.5.5Z"/></g><g id="Group_899-2" data-name="Group 899-2"><path id="Path_1094" data-name="Path 1094" class="cls-3" d="M13.2,57.1H23.4V84.2A1.79,1.79,0,0,0,25.2,86H71a1.79,1.79,0,0,0,1.8-1.8h0V65a1.76,1.76,0,1,0-3.5-.3V82.5H55.1v-2a1.79,1.79,0,0,0-1.8-1.8h0a1.79,1.79,0,0,0-1.8,1.8h0v2H44.7V70.1a3.4,3.4,0,0,1,6.8,0,1.79,1.79,0,0,0,1.8,1.8h0a1.79,1.79,0,0,0,1.8-1.8h0a7,7,0,0,0-14,0V82.4H27V57.1H66.2a1.76,1.76,0,0,0,0-3.5H18L48.2,27.2,63.6,40.6a1.76,1.76,0,0,0,2.5-.2h0a1.76,1.76,0,0,0-.2-2.5L49.3,23.5a1.83,1.83,0,0,0-2.4,0L12.1,54a1.85,1.85,0,0,0-.2,2.5,1.61,1.61,0,0,0,1.3.6Z"/><path id="Path_1095" data-name="Path 1095" class="cls-3" d="M69.2,45.6a1.76,1.76,0,0,0,2.5-.3,1.73,1.73,0,0,0-.2-2.4l-1.2-1a1.76,1.76,0,0,0-2.5.2h0a1.76,1.76,0,0,0,.2,2.5Z"/><path id="Path_1096" data-name="Path 1096" class="cls-3" d="M103,48.6a7.07,7.07,0,0,0-3.6-7.2A7.34,7.34,0,0,0,97.3,35a1.77,1.77,0,1,0-2.6,2.4l.1.1a3.7,3.7,0,0,1,.8,3.9c0,.1-.1.2-.1.3a1.83,1.83,0,0,0,.9,2.4.6.6,0,0,0,.4.1,1.42,1.42,0,0,1,.6.2,3.61,3.61,0,0,1,1.8,4.4v.1a1.77,1.77,0,0,0,1,2.3c.1,0,.1,0,.2.1l.3.1a3.63,3.63,0,0,1,1.8,4.5,3.16,3.16,0,0,1-2.1,2.1,1.71,1.71,0,0,0-1.3,1.6,3,3,0,0,1-.2,1,3.08,3.08,0,0,1-1.8,1.9,2.56,2.56,0,0,1-2.1,0,1.68,1.68,0,0,0-1.9.4,6.78,6.78,0,0,1-9.5.6l-.6-.6a1.71,1.71,0,0,0-1.9-.4,2.56,2.56,0,0,1-2.1,0,3.7,3.7,0,0,1-1.8-1.9,3.55,3.55,0,0,1-.2-1A1.71,1.71,0,0,0,75.7,58a3.16,3.16,0,0,1-2.1-2.1,3.54,3.54,0,0,1,1.8-4.5l.3-.1A1.91,1.91,0,0,0,77,49.1c0-.1,0-.1-.1-.2v-.1a3.57,3.57,0,0,1,1.7-4.4c.2-.1.4-.1.6-.2a1.74,1.74,0,0,0,1.4-2.1c0-.1-.1-.3-.1-.4s-.1-.2-.1-.3a3.54,3.54,0,0,1,1.8-4.5,2.74,2.74,0,0,1,1.3-.2,1.71,1.71,0,0,0,1.9-1.6h0a1.66,1.66,0,0,0-1.6-1.9,7.77,7.77,0,0,0-3,.4,7.12,7.12,0,0,0-4.1,7.7,7.07,7.07,0,0,0-3.6,7.2A7.18,7.18,0,0,0,70.2,57a6.89,6.89,0,0,0,3.4,3.9c.1.3.1.6.2.8a6.77,6.77,0,0,0,3.6,4,6.19,6.19,0,0,0,3.8.4,10.17,10.17,0,0,0,5,2.4V82.3H82.6a1.76,1.76,0,0,0,0,3.5H93.5A1.79,1.79,0,0,0,95.3,84h0a1.79,1.79,0,0,0-1.8-1.8H89.8V68.7a11.63,11.63,0,0,0,5-2.4,6.19,6.19,0,0,0,3.8-.4,6.77,6.77,0,0,0,3.6-4,3.09,3.09,0,0,0,.2-.8,6.89,6.89,0,0,0,3.4-3.9A7.19,7.19,0,0,0,103,48.6Z"/><path id="Path_1097" data-name="Path 1097" class="cls-3" d="M88.1,34.8a1.88,1.88,0,0,1,1.6,1.1,1.78,1.78,0,0,0,1.6,1,1.45,1.45,0,0,0,.7-.2,1.75,1.75,0,0,0,.9-2.3h0a5.25,5.25,0,0,0-4.8-3.2,1.76,1.76,0,0,0-.3,3.5A.37.37,0,0,0,88.1,34.8Z"/><path id="Path_1098" data-name="Path 1098" class="cls-3" d="M95.2,57.8a1.27,1.27,0,0,0,.6.1,1.84,1.84,0,0,0,1.7-1.2A5.47,5.47,0,0,0,94.7,50a1.79,1.79,0,1,0-1.6,3.2.35.35,0,0,1,.2.1h0a1.68,1.68,0,0,1,.8,2.2A1.82,1.82,0,0,0,95.2,57.8Z"/><path id="Path_1099" data-name="Path 1099" class="cls-3" d="M82.3,48.2A1.84,1.84,0,0,0,84,49.4a1.27,1.27,0,0,0,.6-.1,1.73,1.73,0,0,0,1-2.3h0a1.78,1.78,0,0,1,.8-2.2,1.86,1.86,0,0,0,1-2.3h0a1.86,1.86,0,0,0-2.3-1h0A5.28,5.28,0,0,0,82.3,48.2Z"/><path id="Path_1100" data-name="Path 1100" class="cls-3" d="M53.4,73.3a1.79,1.79,0,0,0-1.8,1.8v.7a1.76,1.76,0,0,0,3.5,0v-.6a1.8,1.8,0,0,0-1.7-1.9Z"/><path id="Path_1101" data-name="Path 1101" class="cls-3" d="M16.6,91.1a1.76,1.76,0,0,0,0,3.5H54a1.79,1.79,0,0,0,1.8-1.8h0A1.79,1.79,0,0,0,54,91Z"/><path id="Path_1102" data-name="Path 1102" class="cls-3" d="M60.7,91.1a1.76,1.76,0,0,0-.3,3.5h2.9a1.79,1.79,0,0,0,1.8-1.8h0A1.79,1.79,0,0,0,63.3,91Z"/><path id="Path_1103" data-name="Path 1103" class="cls-3" d="M101.2,91.1h-29a1.76,1.76,0,0,0,0,3.5h29a1.79,1.79,0,0,0,1.8-1.8h0A1.92,1.92,0,0,0,101.2,91.1Z"/></g></g></g></g></svg>