<svg xmlns="http://www.w3.org/2000/svg" xmlns:xlink="http://www.w3.org/1999/xlink" width="27" height="26" viewBox="0 0 27 26">
  <defs>
    <clipPath id="clip-Artboard_9">
      <rect width="27" height="26"/>
    </clipPath>
  </defs>
  <g id="Artboard_9" data-name="Artboard – 9" clip-path="url(#clip-Artboard_9)">
    <rect width="27" height="26" fill="#fff"/>
    <path id="Path_1316" data-name="Path 1316" d="M399.858,222.006c-.455.793.068,1.7.376,2.438a31.007,31.007,0,0,0,5.807,9.508c1.114,1.136,2.748,2.488,4.5,2.592a3.882,3.882,0,0,0,3.181-1.576,18.744,18.744,0,0,0,2.625-6.459,31.516,31.516,0,0,0,.9-8.065,5.625,5.625,0,0,0-.363-2.045c-.745-.106-.9.653-1.138,1.115a24.982,24.982,0,0,0-1.9,4.572c-.256-1.2-.456-2.551-.715-3.8s-.359-2.514-1.091-3.295c-.712.1-.624.95-.733,1.494a29.468,29.468,0,0,0-.482,6.093,30.271,30.271,0,0,0-1.506-3.968c-.539-1.195-.887-2.7-2.165-3.161-.493,1.06-.006,3.274.061,4.7a20.441,20.441,0,0,1-1.345-2.11c-.437-.629-.918-1.493-1.818-1.6-.674.941-.258,2.461-.071,3.726a20.846,20.846,0,0,0,.908,3.695c.021.078.1.094.1.192a30.976,30.976,0,0,0-2.33-2.274A5.645,5.645,0,0,0,399.858,222.006Z" transform="translate(-394.969 -213.771)" fill="#d9dd31" fill-rule="evenodd"/>
  </g>
</svg>
