<svg id="圖層_1" data-name="圖層 1" xmlns="http://www.w3.org/2000/svg" xmlns:xlink="http://www.w3.org/1999/xlink" viewBox="0 0 159 328"><defs><style>.cls-1{fill:none;}.cls-2{clip-path:url(#clip-path);}.cls-3{clip-path:url(#clip-path-2);}.cls-4{fill:#559972;}.cls-5{fill:#101111;}.cls-6{fill:#043a2c;}.cls-7{fill:#447762;}.cls-8{fill:#9fc54d;}</style><clipPath id="clip-path"><rect class="cls-1" width="181" height="328"/></clipPath><clipPath id="clip-path-2"><rect class="cls-1" y="-27" width="173" height="355"/></clipPath></defs><title>artboard – 31</title><g class="cls-2"><g id="artboard_31" data-name="artboard 31"><g class="cls-3"><g id="Mask_Group_20" data-name="Mask Group 20"><g id="Group_917" data-name="Group 917"><g id="Group_908" data-name="Group 908"><g id="Group_906" data-name="Group 906"><g id="Group_904" data-name="Group 904"><path id="Path_1343" data-name="Path 1343" class="cls-4" d="M23.78,79s4.36-21.27,19.63-18.38C43.41,60.67,42.09,77.26,23.78,79Z"/><path id="Path_1344" data-name="Path 1344" class="cls-4" d="M7.45,48.19S31.57,57.7,25,79.26C25,79.26,5.7,74.82,7.45,48.19Z"/></g><g id="Group_905" data-name="Group 905"><path id="Path_1345" data-name="Path 1345" class="cls-4" d="M34.54,33.37s7.58-20.34-6.9-26C27.64,7.38,20,22.15,34.54,33.37Z"/><path id="Path_1346" data-name="Path 1346" class="cls-4" d="M64.75,15.87S39.26,11.15,33.43,32.93C33.43,32.93,52.11,39.38,64.75,15.87Z"/></g></g><path id="Path_1347" data-name="Path 1347" class="cls-4" d="M51.23,39.25S49,58.13,28.29,58.12C28.29,58.12,28.37,37.55,51.23,39.25Z"/><path id="Path_1348" data-name="Path 1348" class="cls-4" d="M16.19,25.81s20.4,9.11,13.12,32.36C29.31,58.17,6.26,50.87,16.19,25.81Z"/><g id="Group_907" data-name="Group 907"><path id="Path_1349" data-name="Path 1349" class="cls-4" d="M35.86,30.64l-1.39-.5c-.12.31-11.32,31.74-13.39,81.9l1.48.06C24.62,62.18,35.75,30.95,35.86,30.64Z"/></g></g><g id="Group_914" data-name="Group 914"><g id="Group_909" data-name="Group 909"><rect id="Rectangle_1426" data-name="Rectangle 1426" class="cls-5" x="-64.5" y="257.18" width="89.87" height="2.57" transform="translate(-232.67 110.9) rotate(-59.63)"/></g><path id="Path_1350" data-name="Path 1350" class="cls-6" d="M63.15,209.7c3.46-9.91,5-20.4,6.95-30.67a111.1,111.1,0,0,1,3-12.82,52.37,52.37,0,0,1,4.17-9.05c4.14-7.63,8.75-14.94,13.15-22.4,5.71-9.67,10.45-20.27,12.55-31.35,2.42-12.81.42-26.24-9.7-35.29a42.86,42.86,0,0,0-9.32-6.21,50.79,50.79,0,0,0-24.08-4.75,33.6,33.6,0,0,0-19.38,7.12C32.13,71,28,81.34,24.06,90.94,19.82,101.16,16.54,111.73,12.5,122A121.88,121.88,0,0,1-2.68,149.43c-5.32,7.31-10.66,14.66-15,22.6-3.81,7-7.2,14.79-7.07,22.87.12,7.94,4.35,14.58,10.57,19.27,9,6.81,20.27,11.39,31.26,13.88,9.72,2.21,20.58,3.11,30.15-.27a22.6,22.6,0,0,0,9.95-6.58A36.35,36.35,0,0,0,63.15,209.7Z"/><g id="Group_910" data-name="Group 910"><path id="Path_1351" data-name="Path 1351" class="cls-7" d="M.69,223c-2-11.28,7.07-34.52,26.84-69.07,14.66-25.62,30.09-48.27,30.25-48.5l1.59,1.09c-.61.9-61.3,90.19-56.78,116.15Z"/></g><g id="Group_911" data-name="Group 911"><path id="Path_1352" data-name="Path 1352" class="cls-7" d="M42.31,130.23c-6.86-7.09-5.09-20.19-5-20.74l1.91.27c0,.13-1.71,12.72,4.49,19.13Z"/></g><g id="Group_912" data-name="Group 912"><path id="Path_1353" data-name="Path 1353" class="cls-7" d="M9.56,191.54l.19-1.92c14.18,1.42,24.61-2.33,30.87-5.73a38.64,38.64,0,0,0,10.31-7.8l1.48,1.24C52.26,177.5,37.75,194.36,9.56,191.54Z"/></g><g id="Group_913" data-name="Group 913"><path id="Path_1354" data-name="Path 1354" class="cls-7" d="M21,166.92c-5.07-3.43-5.94-11.22-6-11.54l1.92-.2c0,.07.82,7.22,5.14,10.15Z"/></g></g><g id="Group_915" data-name="Group 915"><path id="Path_1355" data-name="Path 1355" class="cls-7" d="M25.28,324.66c-7.14-8.28-3.27-16.81,3.52-23.3,9.8-9.36,23.43-16.89,36.39-20.94,15.18-4.75,30.74-9.29,46.74-9.83,7.93-.26,15.62,0,23.51-.7,3.49-.31,7.42,1.18,10.76,2.08,1.64.44,4.26.45,5.74,1.35,1.72,1,.46,2-.68,3.31-2.82,3.15-5.5,6.42-8.33,9.54-4.16,4.58-9.51,7.84-14.38,11.55-11,8.4-24,15.88-36.19,22.49a98.54,98.54,0,0,1-20.51,8.55c-8.4,2.35-16.48,5.11-25.23,4.13-2.36-.27-4.55-.73-6.91-.92-1.86-.15-3.43-1-5.27-1.26C30.89,330.28,27.57,327.31,25.28,324.66Z"/><path id="Path_1356" data-name="Path 1356" class="cls-6" d="M44.69,313.94l.08.11.13.05c.19.08,19,7.94,35.72,5.79a.46.46,0,0,0-.09-.91h0c-14.79,1.89-31.27-4.17-34.63-5.48,9.55-3.1,19.33-6.46,28.79-9.83,1.6.85,14.17,7.28,25.46,6.08a.46.46,0,1,0-.1-.91h0c-10,1.06-21-4-24.18-5.59,8.28-3,16.28-5.9,23.65-8.66,1.17.59,7.94,3.68,19.12,2.64a.46.46,0,1,0-.08-.91c-9.28.87-15.55-1.24-17.82-2.19,21.56-8.1,37.34-14.51,37.66-14.64a.46.46,0,1,0-.34-.84c-.33.13-16.14,6.55-37.74,14.67,4.16-11.36,15.36-17,15.47-17a.46.46,0,1,0-.39-.82h0c-.12.06-12.13,6.08-16.19,18.27-7.4,2.78-15.46,5.74-23.78,8.71C79.6,288,93,278.21,93.1,278.11a.46.46,0,1,0-.54-.74c-.14.1-14.14,10.39-18.22,25.46-9.45,3.36-19.22,6.72-28.76,9.82,1.16-3.36,9.46-15.23,17.77-26a.46.46,0,1,0-.72-.56c-.05.06-4.9,6.38-9.51,12.89-6.62,9.33-8.27,12.69-8.55,14-7.41,2.39-14.67,4.62-21.52,6.56a.46.46,0,0,0-.32.56h0a.46.46,0,0,0,.56.31c6.8-1.93,14-4.14,21.38-6.51Z"/></g><g id="Group_916" data-name="Group 916"><path id="Path_1357" data-name="Path 1357" class="cls-4" d="M17.49,341.77c-15.2-.09-22.1-10.49-24.34-21.93-3.23-16.51-1.35-35.07,4.05-50.22,6.34-17.75,13.18-35.68,25.06-50.81,5.89-7.5,12.21-14.34,17.54-22.15,2.36-3.46,7.16-5.87,10.82-8.21,1.79-1.15,3.86-3.55,6-4.2,2.55-.74,2.74,1.22,3.32,3.28,1.45,5.11,3.17,10.2,4.59,15.31,2.08,7.49,1.69,15,2.21,22.48,1.18,16.85-.29,34.8-2.1,51.28a97.64,97.64,0,0,1-6.07,25.7c-3.82,9.6-6.92,19.24-14.89,26.48-2.15,2-4.4,3.59-6.46,5.61-1.62,1.59-3.86,2.33-5.57,3.83C28.39,341.13,22.35,341.8,17.49,341.77Z"/><path id="Path_1358" data-name="Path 1358" class="cls-8" d="M20.17,315.34l.19,0,.16-.07c.24-.11,24.05-11.07,34.62-28.14a.56.56,0,0,0-.25-.76h0a.65.65,0,0,0-.86.15c-9.34,15.1-29.25,25.37-33.4,27.39,3.85-11.26,7.58-22.94,11-34.32,2.24-.79,19.52-7.16,26.94-18.49a.56.56,0,0,0-.23-.76l0,0a.66.66,0,0,0-.86.14c-6.54,10-21,16.07-25.38,17.71,3-10,5.85-19.69,8.39-28.67,1.6-.6,10.48-4.34,18-15.43a.56.56,0,0,0-.22-.76l0,0a.66.66,0,0,0-.87.13A41.65,41.65,0,0,1,40.89,248c7.42-26.3,12.28-45.93,12.38-46.33a.63.63,0,0,0-.49-.71.57.57,0,0,0-.75.32v0c-.1.4-5,20.08-12.4,46.42a39.72,39.72,0,0,1-7.73-27.88.65.65,0,0,0-.54-.69.56.56,0,0,0-.71.35v0a40.84,40.84,0,0,0,8.61,29.54c-2.55,9-5.4,18.8-8.44,28.83-13.49-15.44-14.48-35.59-14.49-35.8a.7.7,0,0,0-.66-.61.52.52,0,0,0-.62.5c0,.21,1,21.32,15.38,37.17-3.47,11.38-7.19,23-11,34.29-3-3.76-10.33-20.91-16.41-37.22a.74.74,0,0,0-.81-.44.48.48,0,0,0-.4.65c0,.1,3.59,9.62,7.56,19.08,5.68,13.57,8.3,17.78,9.66,19.12-3,8.73-6.08,17.18-9.17,25a.6.6,0,0,0,.41.74h0a.6.6,0,0,0,.8-.26c3.07-7.8,6.13-16.19,9.11-24.86Z"/></g></g></g></g></g></g></svg>