<?xml version="1.0" encoding="utf-8"?>
<!-- Generator: Adobe Illustrator 21.1.0, SVG Export Plug-In . SVG Version: 6.00 Build 0)  -->
<svg version="1.1" id="圖層_1" xmlns="http://www.w3.org/2000/svg" xmlns:xlink="http://www.w3.org/1999/xlink" x="0px" y="0px"
	 viewBox="0 0 257 276" style="enable-background:new 0 0 257 276;" xml:space="preserve">
<style type="text/css">
	.st0{fill:none;}
	.st1{clip-path:url(#SVGID_2_);}
	.st2{fill:#9BBF8B;}
	.st3{fill:none;stroke:#FFFBE6;stroke-miterlimit:10;}
</style>
<rect class="st0" width="257" height="276"/>
<g>
	<g id="Artboard_13">
		<defs>
			<rect id="SVGID_1_" width="418" height="431"/>
		</defs>
		<clipPath id="SVGID_2_">
			<use xlink:href="#SVGID_1_"  style="overflow:visible;"/>
		</clipPath>
		<g id="Mask_Group_17" transform="translate(1200 1983) rotate(180)" class="st1">
			<g id="Group_876" transform="translate(876.26 1776.416) rotate(-13)">
				<path id="Path_1321" class="st2" d="M258.7,46.2c-15.6,17-19.2,41.7-31.3,61.4c-17.3,28.2-50.1,42.8-82,51.6s-65.4,13.5-94.7,29
					s-54,45.7-50.5,78.6c3.9,36,40.3,60.9,76.1,66s107.6-10.3,107.6-10.3s27.9-3.9,41.5-0.8c36.9,8.3,57.4,46.9,87.9,69.2
					c29.7,21.7,70.7,27,105,13.6s60.8-45.2,67.8-81.3c6.1-31.5-1.4-65.8,12.3-94.8c22.2-47.1,55.2-65.5,47.4-123.6
					c-4.3-32.3-17-61-44.4-79.8C443.1-15.3,306.4-5.9,258.7,46.2z"/>
				<path id="Path_1322" class="st3" d="M271.4,87.5c-15.6,17-19.2,41.7-31.3,61.4c-17.3,28.2-50.1,42.8-82,51.6s-65.4,13.5-94.7,29
					s-54,45.7-50.5,78.6c3.9,36,40.3,60.9,76.1,66s71.9-4.5,107.6-10.3c13.8-2.2,27.9-3.9,41.5-0.8c36.9,8.3,57.4,47,87.9,69.2
					c29.7,21.7,70.7,27,105,13.6s60.8-45.2,67.8-81.3c6.1-31.5-1.4-65.8,12.3-94.8c22.2-47.1,55.2-65.5,47.4-123.6
					c-4.3-32.3-17-61-44.4-79.8C455.8,25.9,319.1,35.4,271.4,87.5z"/>
			</g>
		</g>
	</g>
</g>
</svg>
