<svg xmlns="http://www.w3.org/2000/svg" xmlns:xlink="http://www.w3.org/1999/xlink" width="416" height="203" viewBox="0 0 416 203">
  <defs>
    <clipPath id="clip-path">
      <rect id="Rectangle_1383" data-name="Rectangle 1383" width="83" height="172" fill="#fff"/>
    </clipPath>
    <clipPath id="clip-Artboard_22">
      <rect width="416" height="203"/>
    </clipPath>
  </defs>
  <g id="Artboard_22" data-name="Artboard – 22" clip-path="url(#clip-Artboard_22)">
    <rect width="416" height="203" fill="#fff"/>
    <g id="Group_897" data-name="Group 897" transform="translate(-351.5 -1499.216)">
      <g id="Group_453" data-name="Group 453" transform="translate(682.758 1531.168)" clip-path="url(#clip-path)">
        <g id="Group_452" data-name="Group 452" transform="translate(9.496 10.241)">
          <g id="Group_443" data-name="Group 443" transform="matrix(-0.809, -0.588, 0.588, -0.809, 63.511, 57.935)">
            <g id="Group_441" data-name="Group 441" transform="translate(8.534 10.895)">
              <g id="Group_439" data-name="Group 439" transform="translate(0 0)">
                <path id="Path_1076" data-name="Path 1076" d="M0,1.652S7.732,8.715,12.872,3.258A10.026,10.026,0,0,0,0,1.652Z" transform="translate(1.877)" fill="#559972"/>
                <path id="Path_1077" data-name="Path 1077" d="M4.254,17.087S10.966,6.537,2.275,0C2.275,0-3.98,7.192,4.254,17.087Z" transform="translate(0 1.237)" fill="#559972"/>
              </g>
              <g id="Group_440" data-name="Group 440" transform="translate(18.496 12.671)">
                <path id="Path_1078" data-name="Path 1078" d="M.53,0S9.258,5.786,5.212,12.1A10.026,10.026,0,0,1,.53,0Z" transform="translate(0 3.754)" fill="#559972"/>
                <path id="Path_1079" data-name="Path 1079" d="M17.056,2.013S8.452,11.085,0,4.24C0,4.24,5.459-3.573,17.056,2.013Z" transform="translate(0.223 0)" fill="#559972"/>
              </g>
            </g>
            <path id="Path_1080" data-name="Path 1080" d="M14.3,3.264A10.609,10.609,0,0,0,0,2.408S5.863,10.413,14.3,3.264Z" transform="translate(18.104 17.026)" fill="#559972"/>
            <path id="Path_1081" data-name="Path 1081" d="M6.21,16.346A12.47,12.47,0,0,0,2.153,0S-4.769,9.386,6.21,16.346Z" transform="translate(16.335 19.127)" fill="#559972"/>
            <g id="Group_442" data-name="Group 442" transform="translate(0 0)">
              <path id="Path_1082" data-name="Path 1082" d="M28.852,28.011l-.4.591C28.32,28.513,15.036,19.429,0,.443L.56,0C15.522,18.892,28.721,27.922,28.852,28.011Z" fill="#559972"/>
            </g>
          </g>
          <g id="Group_449" data-name="Group 449" transform="matrix(-0.899, 0.438, -0.438, -0.899, 108.643, 139.993)">
            <g id="Group_444" data-name="Group 444" transform="translate(15.225 0)">
              <rect id="Rectangle_1382" data-name="Rectangle 1382" width="43.354" height="1.241" transform="translate(1.237 0) rotate(85.605)" fill="#101111"/>
            </g>
            <path id="Path_1083" data-name="Path 1083" d="M43.072,18.883c-.595,5.028-2.146,9.9-3.468,14.77a53.6,53.6,0,0,0-1.42,6.185,25.264,25.264,0,0,0-.105,4.807c.183,4.185.635,8.328.97,12.5a47.6,47.6,0,0,1-1.183,16.246C36.211,79.455,32.5,84.859,26.2,86.642a20.674,20.674,0,0,1-5.354.725A24.5,24.5,0,0,1,9.4,84.339a16.212,16.212,0,0,1-6.9-7.183C.31,72.488.727,67.133,1.029,62.128c.321-5.327,1.132-10.6,1.554-15.92a58.794,58.794,0,0,0-.79-15.1A102.73,102.73,0,0,1,.056,18.139c-.184-3.824,0-7.933,1.767-11.413A11.867,11.867,0,0,1,10.48.6a40.131,40.131,0,0,1,16.488.583c4.683,1.1,9.581,3,13.02,6.486a10.9,10.9,0,0,1,2.924,4.957A17.537,17.537,0,0,1,43.072,18.883Z" transform="translate(0 41.4)" fill="#043a2c"/>
            <g id="Group_445" data-name="Group 445" transform="translate(15.301 41.323)">
              <path id="Path_1084" data-name="Path 1084" d="M3.492,0C.257,4.479-.737,16.465.538,35.626c.945,14.209,2.85,27.292,2.869,27.423l.921-.135C4.252,62.394-3.2,10.854,4.246.544Z" fill="#447762"/>
            </g>
            <g id="Group_446" data-name="Group 446" transform="translate(10.691 90.345)">
              <path id="Path_1085" data-name="Path 1085" d="M6.555,0C2.081,1.627.083,7.68,0,7.937l.886.286C.9,8.164,2.829,2.345,6.873.875Z" fill="#447762"/>
            </g>
            <g id="Group_447" data-name="Group 447" transform="translate(15.677 56.836)">
              <path id="Path_1086" data-name="Path 1086" d="M.322,0,0,.873A25.534,25.534,0,0,1,12.175,9.88a18.641,18.641,0,0,1,2.82,5.563l.9-.226C15.871,15.113,13.142,4.734.322,0Z" fill="#447762"/>
            </g>
            <g id="Group_448" data-name="Group 448" transform="translate(10.74 69.942)">
              <path id="Path_1087" data-name="Path 1087" d="M5.033,0C2.108.418.085,3.606,0,3.742l.789.494C.808,4.206,2.671,1.277,5.164.921Z" fill="#447762"/>
            </g>
          </g>
          <g id="Group_450" data-name="Group 450" transform="translate(66.482 156.21) rotate(139)">
            <path id="Path_1088" data-name="Path 1088" d="M6.166.142C.945.9-.347,5.228.074,9.737A46.462,46.462,0,0,0,6.693,28.878C10.719,35.411,14.94,41.99,20.6,47.249c2.806,2.608,5.692,4.942,8.34,7.7,1.172,1.22,3.074,1.919,4.577,2.648a11.8,11.8,0,0,0,2.517,1.327c.954.166.814-.6.8-1.419-.031-2.038.029-4.078-.015-6.112-.064-2.984-.981-5.861-1.578-8.757a137.329,137.329,0,0,0-6.057-19.642,47.535,47.535,0,0,0-4.763-9.606C22.11,9.873,20.041,6.309,16.544,3.9c-.943-.65-1.886-1.173-2.807-1.855-.722-.535-1.572-.712-2.315-1.21C9.985-.13,7.836-.1,6.166.142Z" transform="translate(0 0)" fill="#447762"/>
            <path id="Path_1089" data-name="Path 1089" d="M6.145,9.232l.063-.017.062.02c.094.031,9.427,3.121,14.837,9.194a.22.22,0,1,1-.328.292c-4.785-5.371-12.7-8.38-14.34-8.962,2.5,4.152,4.994,8.472,7.372,12.691.852.2,7.461,1.831,11.192,5.844a.22.22,0,0,1-.322.3c-3.292-3.541-8.91-5.191-10.574-5.618,2.079,3.7,4.062,7.3,5.87,10.64a17.579,17.579,0,0,1,7.8,5.09.22.22,0,1,1-.318.3,18.253,18.253,0,0,0-7.179-4.843c5.286,9.774,9,17.1,9.079,17.251a.22.22,0,0,1-.392.2c-.077-.151-3.8-7.494-9.1-17.283-2.079,5.455.218,11.042.243,11.1a.22.22,0,0,1-.4.176c-.026-.059-2.491-6.052-.112-11.779-1.818-3.355-3.812-6.982-5.9-10.7-3.035,6.583-1.28,14.387-1.261,14.467a.22.22,0,0,1-.429.1c-.019-.082-1.861-8.256,1.425-15.037-2.377-4.215-4.871-8.53-7.365-12.678-.64,1.59-1.378,8.539-1.774,15.107a.22.22,0,1,1-.439-.027c0-.039.235-3.875.614-7.7C5,11.866,5.464,10.121,5.793,9.541,3.853,6.324,1.915,3.214.036.341A.22.22,0,0,1,.1.036h0A.22.22,0,0,1,.4.1C2.271,2.955,4.2,6.043,6.125,9.238Z" transform="translate(3.695 0.959)" fill="#043a2c"/>
          </g>
          <g id="Group_451" data-name="Group 451" transform="translate(98.908 135.179) rotate(130)">
            <path id="Path_1090" data-name="Path 1090" d="M46.927,4.241C42.18-1.35,36.2-.675,31.275,2.046a47.621,47.621,0,0,0-17.3,17.071c-4.6,7.844-9.1,15.935-11,25.014-.945,4.5-1.513,8.958-2.747,13.352-.547,1.945.053,4.465.321,6.545.131,1.019-.116,2.527.327,3.536.515,1.173,1.3.633,2.241.211,2.342-1.049,4.753-1.993,7.082-3.053,3.415-1.555,6.074-4.032,8.991-6.153,6.593-4.792,12.77-10.9,18.3-16.677A47.1,47.1,0,0,0,45.1,31.677c2.362-4.388,4.964-8.521,5.169-13.715.055-1.4-.038-2.737.07-4.129.085-1.091-.339-2.149-.313-3.246C50.075,8.468,48.445,6.028,46.927,4.241Z" transform="translate(0 0)" fill="#559972"/>
            <path id="Path_1091" data-name="Path 1091" d="M32.3,11.52l.066.064.023.081c.034.122,3.37,12.321.335,21.519a.272.272,0,0,1-.374.134.312.312,0,0,1-.21-.364c2.684-8.135.3-18.676-.235-20.835-2.966,4.915-6.127,9.913-9.259,14.727.4,1.071,3.408,9.434,1.519,15.69a.27.27,0,0,1-.369.142.316.316,0,0,1-.217-.361c1.668-5.521-.584-12.759-1.322-14.871-2.746,4.211-5.46,8.268-7.992,11.992a19.618,19.618,0,0,1-.125,11.436.268.268,0,0,1-.366.146.318.318,0,0,1-.222-.359,20.093,20.093,0,0,0,.3-10.608C6.427,50.945.682,58.831.564,58.993a.306.306,0,0,1-.415.036.278.278,0,0,1-.107-.386c.118-.162,5.876-8.066,13.308-18.979a19.162,19.162,0,0,0-12.7,5.79.315.315,0,0,1-.421.013.271.271,0,0,1-.082-.388A19.706,19.706,0,0,1,13.734,39.1c2.545-3.743,5.275-7.823,8.035-12.057-9.888-.2-17.644,5.684-17.722,5.745a.336.336,0,0,1-.429-.057.252.252,0,0,1,0-.383c.081-.063,8.2-6.227,18.506-5.842,3.128-4.809,6.286-9.8,9.249-14.712-2.319.059-10.93,2.668-18.846,5.477a.358.358,0,0,1-.412-.164.233.233,0,0,1,.117-.351c.046-.016,4.671-1.656,9.393-3.124,6.777-2.108,9.144-2.448,10.062-2.359C33.976,7.457,36.147,3.7,38.088.124a.291.291,0,0,1,.4-.079h0a.292.292,0,0,1,.151.379C36.712,3.977,34.557,7.71,32.279,11.5Z" transform="translate(5.691 1.908)" fill="#9fc54d"/>
          </g>
        </g>
      </g>
      <line id="Line_93" data-name="Line 93" x2="414.229" transform="translate(351.5 1501.222)" fill="none" stroke="#3fb589" stroke-width="4"/>
      <line id="Line_94" data-name="Line 94" y1="0.222" x2="413.258" transform="translate(352.5 1700.668)" fill="none" stroke="#3fb589" stroke-width="4"/>
      <path id="Path_1105" data-name="Path 1105" d="M4521.5,1474.273V1268.824" transform="translate(-3755.771 230.392)" fill="none" stroke="#3fb589" stroke-width="4"/>
      <path id="Path_1106" data-name="Path 1106" d="M4521.5,1291.642v-22.818" transform="translate(-4168 232.898)" fill="none" stroke="#3fb589" stroke-width="4"/>
    </g>
  </g>
</svg>
