<svg id="圖層_1" data-name="圖層 1" xmlns="http://www.w3.org/2000/svg" viewBox="0 0 518 253"><defs><style>.cls-1{fill:none;}.cls-2{fill:#ffcf88;}</style></defs><title>artboard – 30</title><rect class="cls-1" x="431" y="-57" width="372" height="310"/><rect class="cls-1" y="-54" width="600" height="307"/><g id="Mask_Group_22" data-name="Mask Group 22"><path id="Path_1359" data-name="Path 1359" class="cls-2" d="M116.6,135.69c93.83,62.44,211.38,73.06,322.64,91.08,49.6,8,107.34,24.88,123.25,72.54,18.82,56.38-34.11,109-52.48,165.55C498.28,501,500,542.72,476.74,572.75c-18.67,24.15-50.55,35.38-81.07,35.08s-60-10.76-87.86-23.31A575,575,0,0,1,170.6,497.37c-30.82-26.38-59.7-56.58-97-72.62C43,411.58,9.1,409-24.12,406.63l-109-7.84c-19.78-1.42-39.94-2.93-58.3-10.43-36.64-15-60.65-52.4-68.19-91.25s-.83-79.09,9.4-117.32C-233.74,118-191-15.94-111.92-25.18-28.52-34.93,54.21,94.16,116.6,135.69Z"/></g></svg>