<?xml version="1.0" encoding="utf-8"?>
<!-- Generator: Adobe Illustrator 21.1.0, SVG Export Plug-In . SVG Version: 6.00 Build 0)  -->
<svg version="1.1" id="圖層_1" xmlns="http://www.w3.org/2000/svg" xmlns:xlink="http://www.w3.org/1999/xlink" x="0px" y="0px"
	 viewBox="0 0 19.8 20.3" style="enable-background:new 0 0 19.8 20.3;" xml:space="preserve">
<style type="text/css">
	.st0{clip-path:url(#SVGID_2_);}
	.st1{fill:#D9DD31;}
</style>
<g>
	<defs>
		<rect id="SVGID_1_" x="-3.8" y="-3" width="27" height="26"/>
	</defs>
	<clipPath id="SVGID_2_">
		<use xlink:href="#SVGID_1_"  style="overflow:visible;"/>
	</clipPath>
	<g id="Artboard_9" class="st0">
		<path id="Path_1316" class="st1" d="M0.8,5.4C0.4,6.2,0.9,7.1,1.2,7.8c1.3,3.5,3.3,6.7,5.8,9.5c1.1,1.1,2.7,2.5,4.5,2.6
			c1.3,0,2.4-0.6,3.2-1.6c1.3-2,2.2-4.2,2.6-6.5c0.6-2.6,0.9-5.3,0.9-8.1c0-0.7-0.1-1.4-0.4-2c-0.7-0.1-0.9,0.7-1.1,1.1
			c-0.8,1.5-1.4,3-1.9,4.6c-0.3-1.2-0.5-2.6-0.7-3.8S13.7,1.2,13,0.4c-0.7,0.1-0.6,0.9-0.7,1.5c-0.4,2-0.5,4.1-0.5,6.1
			c-0.4-1.4-0.9-2.7-1.5-4C9.7,2.8,9.4,1.3,8.1,0.8c-0.5,1.1,0,3.3,0.1,4.7C7.7,4.9,7.2,4.2,6.8,3.4C6.4,2.8,5.9,1.9,5,1.8
			C4.3,2.8,4.7,4.3,4.9,5.6c0.2,1.3,0.5,2.5,0.9,3.7c0,0.1,0.1,0.1,0.1,0.2C5.2,8.7,4.4,7.9,3.6,7.2C2.9,6.3,1.9,5.7,0.8,5.4z"/>
	</g>
</g>
</svg>
