<svg xmlns="http://www.w3.org/2000/svg" xmlns:xlink="http://www.w3.org/1999/xlink" width="26" height="28" viewBox="0 0 26 28">
  <defs>
    <clipPath id="clip-path">
      <path id="Path_942" data-name="Path 942" d="M.263,0A9.034,9.034,0,0,1,3.4,1.949,11.847,11.847,0,0,1,5.676,4.7a13.986,13.986,0,0,1,1.38,8.463A10.091,10.091,0,0,1,3.8,11.3,10.206,10.206,0,0,1,1.5,8.516,12.576,12.576,0,0,1,.232.086C.231.044.23,0,.263,0Z" fill="none" clip-rule="evenodd"/>
    </clipPath>
    <clipPath id="clip-path-2">
      <path id="Path_950" data-name="Path 950" d="M8.616,0c.024,0,.026.012.027.03A12.5,12.5,0,0,1,5.678,6.361,12.781,12.781,0,0,1,0,9.691,12.1,12.1,0,0,1,2.882,3.329,13.907,13.907,0,0,1,8.559.028C8.592.034,8.61.023,8.616,0Z" fill="none" clip-rule="evenodd"/>
    </clipPath>
    <clipPath id="clip-path-3">
      <path id="Path_957" data-name="Path 957" d="M10.137,0c.1.046.028.2.019.26A13.478,13.478,0,0,1,8.935,4.026,11.677,11.677,0,0,1,5.308,8.259,10.2,10.2,0,0,1,0,10.592,11.6,11.6,0,0,1,3.274,3.407,12.946,12.946,0,0,1,10.109,0Z" fill="none" clip-rule="evenodd"/>
    </clipPath>
    <clipPath id="clip-path-4">
      <path id="Path_964" data-name="Path 964" d="M.032.019A7.648,7.648,0,0,1,5.385,4a14.508,14.508,0,0,1,1.869,7.3A10.2,10.2,0,0,1,1.929,7.317,13.078,13.078,0,0,1,0,.076C-.008.02.025-.028.032.019Z" fill="none" clip-rule="evenodd"/>
    </clipPath>
    <clipPath id="clip-Artboard_12">
      <rect width="26" height="28"/>
    </clipPath>
  </defs>
  <g id="Artboard_12" data-name="Artboard – 12" clip-path="url(#clip-Artboard_12)">
    <rect width="26" height="28" fill="#fff"/>
    <g id="Group_874" data-name="Group 874" transform="translate(-177.265 -1912.038)">
      <path id="Path_939" data-name="Path 939" d="M17.917,10.106c-1.478,1.285-2.888,2.63-4.3,3.98-1.39,1.334-2.659,2.787-3.908,4.224-.432.5-.8,1.02-1.228,1.43-.139-1.929-.351-3.906-.569-5.784a3.572,3.572,0,0,1-.085-.839c.04-.159.4-.445.584-.644.618-.676,1.2-1.4,1.726-2.019,1.808-2.139,3.661-4.132,5.508-6.133a2.7,2.7,0,0,1-.145-.315,83.062,83.062,0,0,0-7.268,7.913,4.169,4.169,0,0,1-.556.674c-1.2-2.415-2.537-4.732-3.817-7.074C3.22,4.343,2.584,3.159,1.926,2,1.549,1.329,1.161.665.8,0,.741.049.683.1.623.139L.769.43c2.077,4.145,4.071,8.2,6.262,12.227a2.841,2.841,0,0,1,.238.469,6.383,6.383,0,0,1,.05,1.039c.106,2.463.153,4.933.293,7.332C5.424,18.717,3.326,15.744,1.4,12.731c-.4-.62-.8-1.262-1.2-1.881a2.687,2.687,0,0,1-.2.25c1.048,1.861,2.215,3.606,3.333,5.385,1.181,1.879,2.463,3.788,3.781,5.6a3.965,3.965,0,0,1,.564.8,5.475,5.475,0,0,1,.049,1.068c.018.377.052.739.049,1.068.4.005.72-.087,1.1-.108-.051-1-.122-2.107-.207-3.12a4.173,4.173,0,0,1-.078-1.04c.046-.192.436-.524.644-.757,1.592-1.781,3.066-3.574,4.644-5.237.925-.974,1.872-1.9,2.766-2.849.488-.518.992-1.043,1.5-1.55A2.634,2.634,0,0,1,17.917,10.106Z" transform="matrix(0.978, -0.208, 0.208, 0.978, 180.593, 1915.687)" fill="#82663f" fill-rule="evenodd"/>
      <g id="Group_364" data-name="Group 364" transform="matrix(0.978, -0.208, 0.208, 0.978, 180.265, 1914.732)">
        <g id="Group_362" data-name="Group 362" transform="translate(0)">
          <path id="Path_940" data-name="Path 940" d="M.263,0A9.034,9.034,0,0,1,3.4,1.949,11.847,11.847,0,0,1,5.676,4.7a13.986,13.986,0,0,1,1.38,8.463A10.091,10.091,0,0,1,3.8,11.3,10.206,10.206,0,0,1,1.5,8.516,12.576,12.576,0,0,1,.232.086C.231.044.23,0,.263,0Z" fill="#b1bc00" fill-rule="evenodd"/>
          <g id="Group_361" data-name="Group 361">
            <g id="Group_360" data-name="Group 360" clip-path="url(#clip-path)">
              <path id="Path_941" data-name="Path 941" d="M.528,0,.612,0a5,5,0,0,1,.476.909c.453.871.966,1.74,1.461,2.614.658,1.162,1.294,2.347,1.937,3.523C5.766,9.39,7.1,11.707,8.3,14.122a4.171,4.171,0,0,0,.556-.674A88.341,88.341,0,0,1,17.14,4.555c.1-.095.211-.181.318-.278.088-.078.181-.216.317-.22a1.663,1.663,0,0,1-.5.7c-2.177,2.374-4.374,4.7-6.51,7.222-.527.624-1.108,1.342-1.726,2.019-.182.2-.544.485-.584.644a3.569,3.569,0,0,0,.085.839c.218,1.879.43,3.855.569,5.784.424-.41.8-.933,1.228-1.43,1.249-1.437,2.518-2.89,3.908-4.224,1.724-1.655,3.451-3.3,5.306-4.841.082-.068.187-.284.344-.19.136.161-.107.3-.181.369-.809.777-1.649,1.64-2.444,2.485-.894.949-1.841,1.875-2.766,2.849-1.579,1.664-3.052,3.456-4.644,5.237-.208.233-.6.565-.644.757a4.173,4.173,0,0,0,.078,1.04c.084,1.013.156,2.123.206,3.12-.381.021-.7.113-1.1.108,0-.329-.032-.691-.049-1.068A5.474,5.474,0,0,0,8.3,24.413a3.964,3.964,0,0,0-.564-.8c-1.319-1.814-2.6-3.723-3.781-5.6C2.663,15.957,1.3,13.947.14,11.749c-.061-.116-.214-.289-.1-.436.1.007.194.185.271.3.577.84,1.149,1.769,1.713,2.651,1.923,3.012,4.02,5.986,6.208,8.766-.14-2.4-.186-4.868-.293-7.332a6.384,6.384,0,0,0-.05-1.039,2.842,2.842,0,0,0-.238-.469C5.463,10.156,3.469,6.1,1.391,1.96c-.146-.291-.3-.606-.448-.908A6.427,6.427,0,0,1,.525.086Z" transform="translate(-0.5 -0.527)" fill="#82663f" fill-rule="evenodd"/>
            </g>
          </g>
        </g>
        <g id="Group_363" data-name="Group 363" transform="translate(1.358 1.904)">
          <path id="Path_943" data-name="Path 943" d="M.586,1.139C.387,1.079.3.853.207.694A1.057,1.057,0,0,1,0,.082C.037.04.11.041.146,0A1.045,1.045,0,0,1,.605.563C.681.748.787,1.052.586,1.139Z" transform="translate(3.331 2.744)" fill="#73871e" fill-rule="evenodd"/>
          <path id="Path_944" data-name="Path 944" d="M.063,0C.276-.034.311.23.36.359.418.51.526.684.429.852.19.9.188.613.132.467S-.089.13.063,0Z" transform="translate(4.179 4.265)" fill="#fff" fill-rule="evenodd"/>
          <path id="Path_945" data-name="Path 945" d="M.615,1.365C.4,1.288.279,1.01.184.8A1.253,1.253,0,0,1,.011.076C.219-.195.443.321.556.613S.816,1.263.615,1.365Z" transform="translate(0 4.543)" fill="#fff" fill-rule="evenodd"/>
          <path id="Path_946" data-name="Path 946" d="M.594.883C.437.978.308.764.209.611.088.423-.139.054.117,0,.356-.047.609.644.594.883Z" transform="translate(0.989 6.411)" fill="#73871e" fill-rule="evenodd"/>
          <path id="Path_947" data-name="Path 947" d="M.594.883C.437.977.308.763.209.611.088.423-.139.054.117,0,.357-.046.609.644.594.883Z" transform="translate(0.838 0)" fill="#fff" fill-rule="evenodd"/>
        </g>
      </g>
      <g id="Group_369" data-name="Group 369" transform="matrix(0.978, -0.208, 0.208, 0.978, 189.144, 1916.968)">
        <g id="Group_367" data-name="Group 367" transform="translate(0 0)">
          <path id="Path_948" data-name="Path 948" d="M8.616,0c.024,0,.026.012.027.03A12.5,12.5,0,0,1,5.678,6.361,12.781,12.781,0,0,1,0,9.691,12.1,12.1,0,0,1,2.882,3.329,13.907,13.907,0,0,1,8.559.028C8.592.034,8.61.023,8.616,0Z" fill="#b1bc00" fill-rule="evenodd"/>
          <g id="Group_366" data-name="Group 366">
            <g id="Group_365" data-name="Group 365" clip-path="url(#clip-path-2)">
              <path id="Path_949" data-name="Path 949" d="M.528,0,.612,0a5,5,0,0,1,.476.909c.453.871.966,1.74,1.461,2.614.658,1.162,1.294,2.347,1.937,3.523C5.766,9.39,7.1,11.707,8.3,14.122a4.171,4.171,0,0,0,.556-.674A88.341,88.341,0,0,1,17.14,4.555c.1-.095.211-.181.318-.278.088-.078.181-.216.317-.22a1.663,1.663,0,0,1-.5.7c-2.177,2.374-4.374,4.7-6.51,7.222-.527.624-1.108,1.342-1.726,2.019-.182.2-.544.485-.584.644a3.569,3.569,0,0,0,.085.839c.218,1.879.43,3.855.569,5.784.424-.41.8-.933,1.228-1.43,1.249-1.437,2.518-2.89,3.908-4.224,1.724-1.655,3.451-3.3,5.306-4.841.082-.068.187-.284.344-.19.136.161-.107.3-.181.369-.809.777-1.649,1.64-2.444,2.485-.894.949-1.841,1.875-2.766,2.849-1.579,1.664-3.052,3.456-4.644,5.237-.208.233-.6.565-.644.757a4.173,4.173,0,0,0,.078,1.04c.084,1.013.156,2.123.206,3.12-.381.021-.7.113-1.1.108,0-.329-.032-.691-.049-1.068A5.474,5.474,0,0,0,8.3,24.413a3.964,3.964,0,0,0-.564-.8c-1.319-1.814-2.6-3.723-3.781-5.6C2.663,15.957,1.3,13.947.14,11.749c-.061-.116-.214-.289-.1-.436.1.007.194.185.271.3.577.84,1.149,1.769,1.713,2.651,1.923,3.012,4.02,5.986,6.208,8.766-.14-2.4-.186-4.868-.293-7.332a6.384,6.384,0,0,0-.05-1.039,2.842,2.842,0,0,0-.238-.469C5.463,10.156,3.469,6.1,1.391,1.96c-.146-.291-.3-.606-.448-.908A6.427,6.427,0,0,1,.525.086Z" transform="translate(-8.72 -4.56)" fill="#82663f" fill-rule="evenodd"/>
            </g>
          </g>
        </g>
        <g id="Group_368" data-name="Group 368" transform="translate(2.111 2.162)">
          <path id="Path_951" data-name="Path 951" d="M1.032.042c.026.3-.261.39-.411.505S.3.9.048.874C-.1.675.111.464.292.306.488.135.783-.1,1.032.042Z" transform="translate(2.364 0)" fill="#fff" fill-rule="evenodd"/>
          <path id="Path_952" data-name="Path 952" d="M0,.727C-.025.537.152.417.27.3.357.22.811-.206.895.122.936.282.656.47.514.571.334.7.169.828,0,.727Z" transform="translate(1.079 1.257)" fill="#73871e" fill-rule="evenodd"/>
          <path id="Path_953" data-name="Path 953" d="M.921.1A1.012,1.012,0,0,1,.082.819.143.143,0,0,0,0,.73C-.015.437.674-.254.921.1Z" transform="translate(2.129 3.594)" fill="#73871e" fill-rule="evenodd"/>
          <path id="Path_954" data-name="Path 954" d="M1.06.1C1.049.324.8.5.621.629.457.743.161.937,0,.7.049.43.786-.25,1.06.1Z" transform="translate(0 5.087)" fill="#fff" fill-rule="evenodd"/>
        </g>
      </g>
      <g id="Group_374" data-name="Group 374" transform="matrix(0.978, -0.208, 0.208, 0.978, 191.156, 1922.982)">
        <g id="Group_372" data-name="Group 372" transform="translate(0 0)">
          <path id="Path_955" data-name="Path 955" d="M10.137,0c.1.046.028.2.019.26A13.478,13.478,0,0,1,8.935,4.026,11.677,11.677,0,0,1,5.308,8.259,10.2,10.2,0,0,1,0,10.592,11.6,11.6,0,0,1,3.274,3.407,12.946,12.946,0,0,1,10.109,0Z" fill="#b1bc00" fill-rule="evenodd"/>
          <g id="Group_371" data-name="Group 371">
            <g id="Group_370" data-name="Group 370" clip-path="url(#clip-path-3)">
              <path id="Path_956" data-name="Path 956" d="M.528,0,.612,0a5,5,0,0,1,.476.909c.453.871.966,1.74,1.461,2.614.658,1.162,1.294,2.347,1.937,3.523C5.766,9.39,7.1,11.707,8.3,14.122a4.171,4.171,0,0,0,.556-.674A88.341,88.341,0,0,1,17.14,4.555c.1-.095.211-.181.318-.278.088-.078.181-.216.317-.22a1.663,1.663,0,0,1-.5.7c-2.177,2.374-4.374,4.7-6.51,7.222-.527.624-1.108,1.342-1.726,2.019-.182.2-.544.485-.584.644a3.569,3.569,0,0,0,.085.839c.218,1.879.43,3.855.569,5.784.424-.41.8-.933,1.228-1.43,1.249-1.437,2.518-2.89,3.908-4.224,1.724-1.655,3.451-3.3,5.306-4.841.082-.068.187-.284.344-.19.136.161-.107.3-.181.369-.809.777-1.649,1.64-2.444,2.485-.894.949-1.841,1.875-2.766,2.849-1.579,1.664-3.052,3.456-4.644,5.237-.208.233-.6.565-.644.757a4.173,4.173,0,0,0,.078,1.04c.084,1.013.156,2.123.206,3.12-.381.021-.7.113-1.1.108,0-.329-.032-.691-.049-1.068A5.474,5.474,0,0,0,8.3,24.413a3.964,3.964,0,0,0-.564-.8c-1.319-1.814-2.6-3.723-3.781-5.6C2.663,15.957,1.3,13.947.14,11.749c-.061-.116-.214-.289-.1-.436.1.007.194.185.271.3.577.84,1.149,1.769,1.713,2.651,1.923,3.012,4.02,5.986,6.208,8.766-.14-2.4-.186-4.868-.293-7.332a6.384,6.384,0,0,0-.05-1.039,2.842,2.842,0,0,0-.238-.469C5.463,10.156,3.469,6.1,1.391,1.96c-.146-.291-.3-.606-.448-.908A6.427,6.427,0,0,1,.525.086Z" transform="translate(-9.439 -10.861)" fill="#82663f" fill-rule="evenodd"/>
            </g>
          </g>
        </g>
        <g id="Group_373" data-name="Group 373" transform="translate(2.1 2.439)">
          <path id="Path_958" data-name="Path 958" d="M.659.068A1.3,1.3,0,0,1,.5.754C.426.9.3,1.213.116,1.174-.236,1.1.312.181.436,0A.306.306,0,0,1,.659.068Z" transform="translate(6.424 0)" fill="#fff" fill-rule="evenodd"/>
          <path id="Path_959" data-name="Path 959" d="M1.069.087A.909.909,0,0,1,.683.709c-.146.142-.332.373-.6.355A.145.145,0,0,0,0,.974.853.853,0,0,1,.213.491C.425.233.745-.1,1.044.028,1.038.062,1.048.08,1.069.087Z" transform="translate(0.963 1.313)" fill="#73871e" fill-rule="evenodd"/>
          <path id="Path_960" data-name="Path 960" d="M.605.111c-.1.264-.2.512-.5.56A.7.7,0,0,1,0,.552C.047.27.344-.221.605.111Z" transform="translate(5.687 1.747)" fill="#73871e" fill-rule="evenodd"/>
          <path id="Path_961" data-name="Path 961" d="M.718.088c-.061.4-.291.77-.7.7-.1-.2.217-.611.362-.738A.248.248,0,0,1,.718.088Z" transform="translate(0 2.796)" fill="#fff" fill-rule="evenodd"/>
        </g>
      </g>
      <g id="Group_379" data-name="Group 379" transform="matrix(0.978, -0.208, 0.208, 0.978, 182.12, 1925.583)">
        <g id="Group_377" data-name="Group 377" transform="translate(0 0)">
          <path id="Path_962" data-name="Path 962" d="M.032.019A7.648,7.648,0,0,1,5.385,4a14.508,14.508,0,0,1,1.869,7.3A10.2,10.2,0,0,1,1.929,7.317,13.078,13.078,0,0,1,0,.076C-.008.02.025-.028.032.019Z" fill="#b1bc00" fill-rule="evenodd"/>
          <g id="Group_376" data-name="Group 376">
            <g id="Group_375" data-name="Group 375" clip-path="url(#clip-path-4)">
              <path id="Path_963" data-name="Path 963" d="M.528,0,.612,0a5,5,0,0,1,.476.909c.453.871.966,1.74,1.461,2.614.658,1.162,1.294,2.347,1.937,3.523C5.766,9.39,7.1,11.707,8.3,14.122a4.171,4.171,0,0,0,.556-.674A88.341,88.341,0,0,1,17.14,4.555c.1-.095.211-.181.318-.278.088-.078.181-.216.317-.22a1.663,1.663,0,0,1-.5.7c-2.177,2.374-4.374,4.7-6.51,7.222-.527.624-1.108,1.342-1.726,2.019-.182.2-.544.485-.584.644a3.569,3.569,0,0,0,.085.839c.218,1.879.43,3.855.569,5.784.424-.41.8-.933,1.228-1.43,1.249-1.437,2.518-2.89,3.908-4.224,1.724-1.655,3.451-3.3,5.306-4.841.082-.068.187-.284.344-.19.136.161-.107.3-.181.369-.809.777-1.649,1.64-2.444,2.485-.894.949-1.841,1.875-2.766,2.849-1.579,1.664-3.052,3.456-4.644,5.237-.208.233-.6.565-.644.757a4.173,4.173,0,0,0,.078,1.04c.084,1.013.156,2.123.206,3.12-.381.021-.7.113-1.1.108,0-.329-.032-.691-.049-1.068A5.474,5.474,0,0,0,8.3,24.413a3.964,3.964,0,0,0-.564-.8c-1.319-1.814-2.6-3.723-3.781-5.6C2.663,15.957,1.3,13.947.14,11.749c-.061-.116-.214-.289-.1-.436.1.007.194.185.271.3.577.84,1.149,1.769,1.713,2.651,1.923,3.012,4.02,5.986,6.208,8.766-.14-2.4-.186-4.868-.293-7.332a6.384,6.384,0,0,0-.05-1.039,2.842,2.842,0,0,0-.238-.469C5.463,10.156,3.469,6.1,1.391,1.96c-.146-.291-.3-.606-.448-.908A6.427,6.427,0,0,1,.525.086Z" transform="translate(-0.059 -11.526)" fill="#82663f" fill-rule="evenodd"/>
            </g>
          </g>
        </g>
        <g id="Group_378" data-name="Group 378" transform="translate(2.735 1.889)">
          <path id="Path_965" data-name="Path 965" d="M.99,1.278C.656,1.436.358.781.172.5.044.309-.038.262.018.064c.066-.036.1-.09.2-.051C.551.139,1.2.82.99,1.278Z" transform="translate(0 0)" fill="#fff" fill-rule="evenodd"/>
          <path id="Path_966" data-name="Path 966" d="M0,.073c.267-.247.477.19.63.511.082.173.31.651.06.722C.488,1.364.3.938.229.8A1.4,1.4,0,0,1,0,.073Z" transform="translate(1.62 1.717)" fill="#73871e" fill-rule="evenodd"/>
          <path id="Path_967" data-name="Path 967" d="M.885,1.118c-.033-.006-.05,0-.057.027C.592,1.108.449.863.308.7S-.071.341.019.081c.259-.254.518.151.69.4C.855.686,1.052.936.885,1.118Z" transform="translate(0.16 5.322)" fill="#73871e" fill-rule="evenodd"/>
          <path id="Path_968" data-name="Path 968" d="M.721.5A.5.5,0,0,0,.633.614C.453.624-.024.362,0,.161.047-.218.754.145.721.5Z" transform="translate(1.498 7.015)" fill="#fff" fill-rule="evenodd"/>
        </g>
      </g>
    </g>
  </g>
</svg>
