<?xml version="1.0" encoding="utf-8"?>
<!-- Generator: Adobe Illustrator 21.1.0, SVG Export Plug-In . SVG Version: 6.00 Build 0)  -->
<svg version="1.1" id="圖層_1" xmlns="http://www.w3.org/2000/svg" xmlns:xlink="http://www.w3.org/1999/xlink" x="0px" y="0px"
	 viewBox="0 0 27 19.3" style="enable-background:new 0 0 27 19.3;" xml:space="preserve">
<style type="text/css">
	.st0{fill:#73871E;}
</style>
<g>
	<g>
		<g id="Artboard_11">
			<g id="Group_869" transform="matrix(1, -0.017, 0.017, 1, 2.182, 4.881)">
				<path id="Path_933" class="st0" d="M8-3.6C5.1-4.3,5.4,5.3,7.6,5.3C9.4,5.3,10.2-3,8-3.6z"/>
				<path id="Path_934" class="st0" d="M1.3,4.2c-1.9-0.3-1.6,5.9,0,5.9C2.7,10.2,2.9,4.5,1.3,4.2z"/>
				<path id="Path_935" class="st0" d="M9.1,8.3C8,8.8,7.6,14,9.5,13.8c1.4-0.2,1-3.6,1-5C10.2,8.4,9.6,8.2,9.1,8.3z"/>
			</g>
			<g id="Group_870" transform="matrix(1, -0.017, 0.017, 1, 17.919, 9.262)">
				<path id="Path_936" class="st0" d="M5.5-3.5C3.3-4.4,3.8,2.6,5.9,2.1C7.4,1.8,6.5-3.1,5.5-3.5z"/>
				<path id="Path_937" class="st0" d="M1.8,3c-2.4-0.8-2.3,5-0.3,4.9C2.9,7.8,3.2,3.5,1.8,3z"/>
			</g>
		</g>
	</g>
</g>
</svg>
