<?xml version="1.0" encoding="utf-8"?>
<!-- Generator: Adobe Illustrator 21.1.0, SVG Export Plug-In . SVG Version: 6.00 Build 0)  -->
<svg version="1.1" id="圖層_1" xmlns="http://www.w3.org/2000/svg" xmlns:xlink="http://www.w3.org/1999/xlink" x="0px" y="0px"
	 viewBox="0 0 21.2 24.7" style="enable-background:new 0 0 21.2 24.7;" xml:space="preserve">
<style type="text/css">
	.st0{clip-path:url(#SVGID_2_);}
	.st1{fill:#B1BC00;}
</style>
<g>
	<g>
		<defs>
			<rect id="SVGID_1_" x="-2.7" y="-0.8" width="26" height="26"/>
		</defs>
		<clipPath id="SVGID_2_">
			<use xlink:href="#SVGID_1_"  style="overflow:visible;"/>
		</clipPath>
		<g id="Artboard_10" class="st0">
			<path id="Path_1315" class="st1" d="M15.9,1.3c-0.3,0-0.5-0.2-0.8-0.2c-0.8,2.4-1.3,4.9-2,7.3c-0.7,2.3-1.9,4.3-2.6,6.3
				c0.6-2.3,1-4.6,1.3-6.9c0.1-1.1,0.1-2.2,0.3-3.4C12.2,3.3,12.3,2,12.3,1c-0.3,0-0.7,0-1,0c-0.5,2.4-0.8,4.8-1.1,7.1s-1,4.5-1.3,7
				c-0.6-2-1-4.1-1.2-6.3C7.4,6.6,7.5,4.2,7.3,1.8c-0.3,0-0.6,0-0.8,0.1c-0.2,2.5-0.1,5,0.3,7.4c0.4,2.3,0.6,4.5,0.8,6.9
				C7.4,16.1,7.2,16,7,15.8c-0.6-0.5-1.1-1.2-1.5-1.8c-0.6-0.9-1-1.9-1.2-3C3.7,8.9,3,6.8,2.1,4.8c-0.4,0.1-0.6,0.3-1,0.3
				c0.6,2.4,1.6,4.5,2.2,6.8c0.2,1.2,0.6,2.3,1.1,3.4c0.2,0.5,0.5,1,0.9,1.4C5.6,17,6,17.4,6.4,17.9c0.2,0.5,0.4,0.9,0.6,1.4
				c0.1,0.3,0.3,0.5,0.5,0.7c-0.3,1.1-0.6,2.3-0.8,3.5c0.6,0.1,1.1,0.3,1.7,0.4c0.3-1.3,0.7-2.4,0.9-3.7c1.4-0.3,2-1.8,3.1-2.7
				c0.9-0.7,1.9-1.3,2.9-1.8s2-1,3-1.5c0.9-0.8,1.6-1.7,2.2-2.7c-0.3-0.3-0.6-0.5-0.9-0.8c-0.5,0.7-1.1,1.5-1.7,2.2
				c-0.6,0.6-1.4,1.2-2.2,1.5c-0.8,0.4-1.7,0.7-2.5,1.1c-0.8,0.5-1.5,1-2.2,1.6c0,0,0,0-0.1,0c0.7-1,1.3-2.1,1.8-3.3s1-2.4,1.4-3.7
				c0.4-1.4,0.8-2.9,1-4.4C15.3,4.3,15.7,2.8,15.9,1.3z"/>
		</g>
	</g>
</g>
</svg>
